<svg width="60" height="45" viewBox="0 0 60 45" fill="none" xmlns="http://www.w3.org/2000/svg">
<path d="M37.5156 11.4042C37.132 11.4042 36.7673 11.4866 36.4379 11.6342V11.5687C36.4379 10.108 35.2498 8.91987 33.7891 8.91987C33.4055 8.91987 33.0407 9.00227 32.7114 9.14979V9.08435C32.7114 7.62362 31.5232 6.43549 30.0625 6.43549C28.6018 6.43549 27.4136 7.62362 27.4136 9.08435V9.14979C27.0843 9.00227 26.7195 8.91987 26.3359 8.91987C24.8752 8.91987 23.6871 10.108 23.6871 11.5687V19.0816C22.897 18.4007 21.869 17.9878 20.7461 17.9878C20.3123 17.9878 19.9605 18.3396 19.9605 18.7734V28.7109C19.9605 30.5124 20.8207 32.2328 22.2622 33.3144L22.2622 33.3144L23.2559 34.0596C24.2148 34.779 24.9293 36.3453 24.9293 37.7789C24.9293 38.2127 25.281 38.5645 25.7148 38.5645H28.5098C28.9436 38.5645 29.2953 38.2127 29.2953 37.7789C29.2953 37.3451 28.9436 36.9933 28.5098 36.9933H26.4488C26.2608 35.5221 25.5503 33.8169 24.1987 32.8028L24.1987 32.8028L23.205 32.0575C23.205 32.0575 23.205 32.0575 23.205 32.0575C22.1574 31.2715 21.5317 30.02 21.5317 28.7109V19.6655C22.7732 20.0101 23.6871 21.1507 23.6871 22.5V26.2265C23.6871 26.6603 24.0388 27.0121 24.4727 27.0121C25.1061 27.0121 25.7295 27.1555 26.2944 27.4288C26.5015 28.22 26.9621 28.9179 27.6043 29.6189C28.265 30.3401 29.1292 31.0764 30.1271 31.9266L30.1286 31.9279C30.5378 32.2765 30.9601 32.6364 31.4086 33.0287C31.5567 33.1583 31.7414 33.2231 31.9258 33.2231C32.1102 33.2231 32.2949 33.1583 32.443 33.0287C32.8914 32.6364 33.3138 32.2765 33.7231 31.9279L33.7336 31.9189C34.8991 30.9258 35.8832 30.0874 36.5738 29.2436C37.2712 28.3916 37.6801 27.5217 37.6801 26.465C37.6801 24.5557 36.3201 22.9566 34.4102 22.9566C33.2174 22.9566 32.4246 23.5808 31.9258 24.2267C31.427 23.5808 30.6342 22.9566 29.4414 22.9566C27.7932 22.9566 26.5454 24.151 26.2428 25.7193C25.9223 25.6159 25.5928 25.5407 25.2582 25.4947V25.486V25.4764V25.4665V25.4563V25.4459V25.4352V25.4242V25.413V25.4015V25.3898V25.3778V25.3656V25.3531V25.3403V25.3273V25.3141V25.3006V25.2869V25.2729V25.2586V25.2442V25.2294V25.2145V25.1993V25.1838V25.1681V25.1522V25.1361V25.1197V25.1031V25.0862V25.0691V25.0518V25.0342V25.0165V24.9985V24.9802V24.9618V24.9431V24.9242V24.9051V24.8858V24.8662V24.8464V24.8264V24.8062V24.7858V24.7652V24.7443V24.7233V24.702V24.6806V24.6589V24.637V24.6149V24.5926V24.5701V24.5474V24.5245V24.5014V24.4781V24.4546V24.431V24.4071V24.383V24.3587V24.3343V24.3096V24.2848V24.2598V24.2346V24.2092V24.1836V24.1578V24.1319V24.1058V24.0795V24.053V24.0263V23.9995V23.9725V23.9453V23.918V23.8904V23.8627V23.8349V23.8068V23.7786V23.7503V23.7218V23.6931V23.6642V23.6352V23.606V23.5767V23.5472V23.5176V23.4878V23.4578V23.4277V23.3974V23.367V23.3365V23.3058V23.2749V23.2439V23.2128V23.1815V23.15V23.1185V23.0868V23.0549V23.0229V22.9908V22.9585V22.9261V22.8936V22.861V22.8282V22.7953V22.7622V22.729V22.6957V22.6623V22.6288V22.5951V22.5613V22.5274V22.4933V22.4592V22.4249V22.3905V22.356V22.3214V22.2867V22.2519V22.2169V22.1819V22.1467V22.1114V22.0761V22.0406V22.005V21.9693V21.9336V21.8977V21.8617V21.8256V21.7894V21.7532V21.7168V21.6804V21.6438V21.6072V21.5704V21.5336V21.4967V21.4597V21.4227V21.3855V21.3483V21.311V21.2736V21.2361V21.1985V21.1609V21.1232V21.0854V21.0476V21.0096V20.9717V20.9336V20.8955V20.8573V20.819V20.7807V20.7423V20.7038V20.6653V20.6267V20.5881V20.5494V20.5106V20.4718V20.433V20.394V20.3551V20.3161V20.277V20.2379V20.1987V20.1595V20.1202V20.0809V20.0416V20.0022V19.9628V19.9233V19.8838V19.8443V19.8047V19.7651V19.7255V19.6858V19.6461V19.6063V19.5666V19.5268V19.487V19.4471V19.4072V19.3673V19.3274V19.2875V19.2475V19.2076V19.1676V19.1276V19.0875V19.0475V19.0074V18.9674V18.9273V18.8872V18.8471V18.807V18.7669V18.7268V18.6867V18.6466V18.6065V18.5664V18.5263V18.4862V18.446V18.4059V18.3658V18.3258V18.2857V18.2456V18.2055V18.1655V18.1254V18.0854V18.0454V18.0054V17.9654V17.9255V17.8855V17.8456V17.8057V17.7658V17.726V17.6862V17.6464V17.6066V17.5669V17.5272V17.4875V17.4478V17.4082V17.3686V17.3291V17.2896V17.2501V17.2107V17.1713V17.132V17.0926V17.0534V17.0142V16.975V16.9359V16.8968V16.8578V16.8188V16.7799V16.741V16.7022V16.6635V16.6247V16.5861V16.5475V16.509V16.4705V16.4321V16.3938V16.3555V16.3173V16.2792V16.2411V16.2031V16.1652V16.1273V16.0895V16.0518V16.0142V15.9766V15.9391V15.9017V15.8644V15.8271V15.79V15.7529V15.7159V15.679V15.6422V15.6054V15.5688V15.5322V15.4958V15.4594V15.4231V15.3869V15.3508V15.3148V15.279V15.2432V15.2075V15.1719V15.1364V15.101V15.0657V15.0305V14.9955V14.9605V14.9257V14.8909V14.8563V14.8218V14.7874V14.7531V14.719V14.6849V14.651V14.6172V14.5835V14.5499V14.5165V14.4832V14.45V14.4169V14.384V14.3512V14.3185V14.286V14.2536V14.2213V14.1892V14.1571V14.1253V14.0936V14.062V14.0305V13.9992V13.9681V13.937V13.9062V13.8755V13.8449V13.8145V13.7842V13.7541V13.7241V13.6943V13.6646V13.6351V13.6057V13.5766V13.5475V13.5186V13.4899V13.4614V13.433V13.4048V13.3767V13.3489V13.3211V13.2936V13.2662V13.239V13.212V13.1851V13.1585V13.132V13.1056V13.0795V13.0535V13.0278V13.0022V12.9767V12.9515V12.9265V12.9016V12.877V12.8525V12.8282V12.8041V12.7802V12.7565V12.733V12.7097V12.6865V12.6636V12.6409V12.6184V12.5961V12.5739V12.552V12.5303V12.5088V12.4876V12.4665V12.4456V12.425V12.4045V12.3843V12.3643V12.3445V12.3249V12.3055V12.2864V12.2675V12.2488V12.2303V12.212V12.194V12.1762V12.1586V12.1413V12.1242V12.1073V12.0906V12.0742V12.058V12.0421V12.0264V12.0109V11.9957V11.9807V11.966V11.9514V11.9372V11.9232V11.9094V11.8959V11.8826V11.8696V11.8568V11.8443V11.832V11.82V11.8082V11.7967V11.7855V11.7745V11.7638V11.7533V11.7431V11.7332V11.7235V11.7141V11.705V11.6961V11.6875V11.6791V11.6711V11.6633V11.6558V11.6485V11.6416V11.6349V11.6285V11.6224V11.6165V11.611V11.6057V11.6007V11.596V11.5916V11.5874V11.5836V11.58V11.5768V11.5738V11.5711V11.5687C25.2582 10.9746 25.7418 10.491 26.3359 10.491C26.93 10.491 27.4136 10.9746 27.4136 11.5687V20.0156C27.4136 20.4494 27.7654 20.8012 28.1992 20.8012C28.633 20.8012 28.9848 20.4494 28.9848 20.0156V9.08435C28.9848 8.49025 29.4684 8.00665 30.0625 8.00665C30.6566 8.00665 31.1402 8.49025 31.1402 9.08435V20.0156C31.1402 20.4494 31.492 20.8012 31.9258 20.8012C32.3596 20.8012 32.7114 20.4494 32.7114 20.0156V11.5687C32.7114 10.9746 33.195 10.491 33.7891 10.491C34.3832 10.491 34.8668 10.9746 34.8668 11.5687V20.0156C34.8668 20.4494 35.2185 20.8012 35.6523 20.8012C36.0862 20.8012 36.4379 20.4494 36.4379 20.0156V14.0531C36.4379 13.459 36.9215 12.9754 37.5156 12.9754C38.1097 12.9754 38.5933 13.459 38.5933 14.0531V28.7985C38.5933 30.1615 38.2063 31.4897 37.474 32.6397C36.7496 33.7775 36.2535 35.4236 36.1358 36.9933H34.0996C33.6658 36.9933 33.314 37.3451 33.314 37.7789C33.314 38.2127 33.6658 38.5645 34.0996 38.5645H36.8945C37.3283 38.5645 37.6801 38.2127 37.6801 37.7789V37.6975C37.6801 36.2021 38.1234 34.5452 38.7994 33.4836L38.6607 33.3952L38.7994 33.4835C39.6924 32.0811 40.1645 30.4609 40.1645 28.7985V14.0531C40.1645 12.5924 38.9764 11.4042 37.5156 11.4042ZM32.6834 26.1239L32.6834 26.1237L32.6835 26.1235C32.6849 26.1185 32.7139 26.0176 32.7764 25.8683C32.8411 25.7138 32.9404 25.5106 33.0801 25.309C33.3609 24.9038 33.7875 24.5277 34.4102 24.5277C35.3635 24.5277 36.109 25.3385 36.109 26.465C36.109 27.1301 35.8106 27.731 35.2275 28.4042C34.6418 29.0805 33.7874 29.809 32.7041 30.732L32.7041 30.732L32.6787 30.7536C32.4341 30.9621 32.1841 31.1751 31.9258 31.3975C31.6586 31.1674 31.4002 30.9473 31.1475 30.732C30.0641 29.809 29.2097 29.0805 28.624 28.4042C28.041 27.731 27.7426 27.1301 27.7426 26.465C27.7426 25.3385 28.4881 24.5277 29.4414 24.5277C30.058 24.5277 30.481 24.8926 30.7612 25.291C31.0409 25.6888 31.1605 26.097 31.1691 26.1271C31.2638 26.4665 31.5731 26.7016 31.9258 26.7016C32.2796 26.7016 32.5897 26.465 32.6834 26.1239Z" fill="#CD874B" stroke="#CD874B" stroke-width="0.328966"/>
</svg>
