<svg width="60" height="45" viewBox="0 0 60 45" fill="none" xmlns="http://www.w3.org/2000/svg">
<path d="M35.4224 25.3154H24.5776V27.5033H35.4224V25.3154Z" fill="#CD874B"/>
<path d="M40.4575 27.1386C41.7409 27.1386 42.7814 26.1591 42.7814 24.9507C42.7814 23.7424 41.7409 22.7628 40.4575 22.7628C39.174 22.7628 38.1336 23.7424 38.1336 24.9507C38.1336 26.1591 39.174 27.1386 40.4575 27.1386Z" fill="#CD874B"/>
<path d="M19.5425 27.1386C20.826 27.1386 21.8664 26.1591 21.8664 24.9507C21.8664 23.7424 20.826 22.7628 19.5425 22.7628C18.2591 22.7628 17.2186 23.7424 17.2186 24.9507C17.2186 26.1591 18.2591 27.1386 19.5425 27.1386Z" fill="#CD874B"/>
<path d="M49.8305 19.1163C49.8305 17.3067 48.2668 15.8344 46.3447 15.8344H44.0208C43.7174 15.8344 43.4231 15.8713 43.1424 15.9402L40.889 10H19.111L16.8576 15.9402C16.5769 15.8713 16.2826 15.8344 15.9792 15.8344H13.6553C11.7332 15.8344 10.1695 17.3067 10.1695 19.1163C10.1695 20.5891 11.2055 21.8384 12.6273 22.2524C12.5902 22.419 12.5708 22.5891 12.5708 22.7628V34.0671H19.9298V31.8792H40.0702V34.0671H47.4292V22.7628C47.4292 22.5891 47.4098 22.419 47.3727 22.2524C48.7945 21.8384 49.8305 20.5891 49.8305 19.1163ZM20.7487 12.1879H39.2513L41.1663 17.2361C40.9237 17.5615 40.7421 17.9298 40.6376 18.3267C37.6381 17.6574 33.9167 17.2931 30 17.2931C26.0833 17.2931 22.3619 17.6574 19.3624 18.3267C19.2579 17.9298 19.0763 17.5615 18.8337 17.2361L20.7487 12.1879ZM13.6553 20.2103C13.0146 20.2103 12.4934 19.7195 12.4934 19.1163C12.4934 18.5131 13.0146 18.0224 13.6553 18.0224H15.9792C16.5514 18.0224 17.0271 18.4141 17.1226 18.9275C15.9416 19.3072 14.989 19.7355 14.2661 20.2103H13.6553ZM45.1053 29.6912H14.8947V22.7628C14.8947 22.5067 15.6152 21.5817 18.8165 20.7205C21.7882 19.9212 25.7598 19.481 30 19.481C34.2402 19.481 38.2118 19.9212 41.1835 20.7205C44.3848 21.5817 45.1053 22.5067 45.1053 22.7628V29.6912ZM46.3447 20.2103H45.7339C45.011 19.7355 44.0584 19.3072 42.8774 18.9275C42.9729 18.4141 43.4487 18.0224 44.0208 18.0224H46.3447C46.9854 18.0224 47.5066 18.5131 47.5066 19.1163C47.5066 19.7195 46.9854 20.2103 46.3447 20.2103Z" fill="#CD874B"/>
</svg>
