<svg width="39" height="26" viewBox="0 0 39 26" fill="none" xmlns="http://www.w3.org/2000/svg">
<path d="M24.832 15.9961H14.168V18.2812H24.832V15.9961Z" fill="#E3BC9B"/>
<path d="M29.7832 17.9004C31.0453 17.9004 32.0684 16.8773 32.0684 15.6152C32.0684 14.3532 31.0453 13.3301 29.7832 13.3301C28.5211 13.3301 27.498 14.3532 27.498 15.6152C27.498 16.8773 28.5211 17.9004 29.7832 17.9004Z" fill="#E3BC9B"/>
<path d="M9.2168 17.9004C10.4789 17.9004 11.502 16.8773 11.502 15.6152C11.502 14.3532 10.4789 13.3301 9.2168 13.3301C7.95474 13.3301 6.93164 14.3532 6.93164 15.6152C6.93164 16.8773 7.95474 17.9004 9.2168 17.9004Z" fill="#E3BC9B"/>
<path d="M39 9.52148C39 7.63143 37.4623 6.09375 35.5723 6.09375H33.2871C32.9888 6.09375 32.6994 6.13222 32.4233 6.2042L30.2076 0H8.79244L6.57668 6.2042C6.30063 6.13222 6.01118 6.09375 5.71289 6.09375H3.42773C1.53768 6.09375 0 7.63143 0 9.52148C0 11.0598 1.01872 12.3645 2.41686 12.797C2.38037 12.971 2.36133 13.1486 2.36133 13.3301V25.1367H9.59766V22.8516H29.4023V25.1367H36.6387V13.3301C36.6387 13.1486 36.6196 12.971 36.5831 12.797C37.9813 12.3645 39 11.0598 39 9.52148ZM10.4029 2.28516H28.5971L30.4802 7.5577C30.2417 7.89758 30.0631 8.28224 29.9603 8.69677C27.0108 7.99774 23.3514 7.61719 19.5 7.61719C15.6486 7.61719 11.9892 7.99774 9.0397 8.69677C8.93694 8.28224 8.75832 7.89758 8.51982 7.5577L10.4029 2.28516ZM3.42773 10.6641C2.79772 10.6641 2.28516 10.1515 2.28516 9.52148C2.28516 8.89147 2.79772 8.37891 3.42773 8.37891H5.71289C6.2755 8.37891 6.74334 8.7881 6.83719 9.32428C5.67587 9.7209 4.73919 10.1682 4.02835 10.6641H3.42773ZM34.3535 20.5664H4.64648V13.3301C4.64648 13.0626 5.35496 12.0964 8.50291 11.197C11.425 10.3621 15.3305 9.90234 19.5 9.90234C23.6695 9.90234 27.575 10.3621 30.4971 11.197C33.645 12.0964 34.3535 13.0626 34.3535 13.3301V20.5664ZM35.5723 10.6641H34.9716C34.2608 10.1682 33.3241 9.7209 32.1628 9.32428C32.2567 8.7881 32.7245 8.37891 33.2871 8.37891H35.5723C36.2023 8.37891 36.7148 8.89147 36.7148 9.52148C36.7148 10.1515 36.2023 10.6641 35.5723 10.6641Z" fill="#E3BC9B"/>
</svg>
