<svg width="184" height="50" viewBox="0 0 184 50" fill="none" xmlns="http://www.w3.org/2000/svg">
<g clip-path="url(#clip0)">
<path d="M72.3539 35.1145C72.3539 35.6907 72.7501 36.0509 73.2903 36.0509H80.6013C90.8295 36.0509 99.329 32.8816 105.199 26.8671C111.142 20.7445 113.951 12.137 113.879 1.22449C113.879 0.576221 113.483 0.144043 112.763 0.144043H106.136C105.452 0.144043 105.055 0.576221 105.055 1.29652C105.055 9.18378 103.687 14.9822 99.5091 19.8802C95.1513 24.9583 88.5606 27.6234 80.4932 27.6234H73.3263C72.7861 27.6234 72.3899 27.9835 72.3899 28.5598L72.3539 35.1145Z" fill="#282270"/>
<path d="M59.0284 49.1963C58.3081 49.1963 57.9119 48.7281 57.9119 48.0798C58.3441 37.1313 55.4269 32.6295 44.2623 28.8479C26.4349 22.7614 24.5622 13.1814 24.9583 1.2605C24.9583 0.576221 25.3905 0.144043 26.0748 0.144043H32.7015C33.4578 0.144043 33.818 0.576221 33.818 1.2605C33.5659 12.3531 36.195 16.6028 47.2875 20.5645C64.5027 26.759 67.0597 34.7904 66.7716 48.0078C66.7716 48.7281 66.3394 49.1963 65.6551 49.1963H59.0284Z" fill="#FAAE31"/>
<path d="M124.539 6.08652C124.107 6.41065 123.531 6.59073 122.775 6.59073C121.91 6.59073 121.154 6.26659 120.614 5.65434C120.038 5.04209 119.749 4.24976 119.749 3.27736C119.749 2.34097 120.038 1.54864 120.614 0.900376C121.19 0.288123 121.91 -0.0360107 122.775 -0.0360107C123.531 -0.0360107 124.107 0.144064 124.539 0.468198V1.4406C124.035 0.972406 123.459 0.720302 122.775 0.720302C122.162 0.720302 121.658 0.972406 121.262 1.4406C120.866 1.90879 120.686 2.52105 120.686 3.24134C120.686 3.96164 120.866 4.57389 121.262 5.04209C121.658 5.5463 122.162 5.76238 122.775 5.76238C123.459 5.76238 124.071 5.51028 124.539 5.04209V6.08652ZM130.482 6.44667H129.654V3.60149H126.7V6.44667H125.872V1.54864C125.872 1.15248 125.836 0.864361 125.8 0.684287C125.764 0.468198 125.62 0.288123 125.476 0.216093V0.144064H126.7V2.88119H129.654V0.144064H130.518V6.44667H130.482ZM136.676 6.44667H135.812L135.092 4.53788H132.787L132.103 6.44667H131.346L133.651 0.144064H134.263L136.676 6.44667ZM134.768 3.81758L134.119 2.08887C133.975 1.72872 133.903 1.47661 133.867 1.33255C133.831 1.51263 133.759 1.76473 133.651 2.08887L133.039 3.81758H134.768ZM141.719 6.44667H140.782L140.062 5.15013C139.738 4.53788 139.45 4.14171 139.234 3.92563C139.053 3.74555 138.837 3.67352 138.621 3.67352H138.333V6.44667H137.469V1.54864C137.469 1.15248 137.433 0.864361 137.433 0.684287C137.397 0.432183 137.253 0.288123 137.109 0.216093V0.144064H138.981C139.522 0.144064 139.954 0.288123 140.278 0.612257C140.602 0.936391 140.746 1.36857 140.746 1.90879C140.746 2.26894 140.638 2.55706 140.458 2.84518C140.278 3.09728 140.026 3.27736 139.738 3.3854C139.954 3.52946 140.17 3.78157 140.386 4.1057C140.422 4.17773 140.638 4.53788 140.962 5.15013L141.719 6.44667V6.44667ZM139.918 1.87278C139.918 1.15248 139.558 0.792331 138.837 0.792331H138.333V2.95322H138.837C139.234 2.95322 139.486 2.84518 139.702 2.59308C139.846 2.44902 139.918 2.19691 139.918 1.87278ZM145.752 0.900376H143.987V6.44667H143.123V0.900376H141.394V0.144064H145.752V0.900376ZM149.93 6.44667H146.653V1.54864C146.653 1.15248 146.617 0.864361 146.581 0.684287C146.545 0.432183 146.436 0.288123 146.256 0.216093V0.144064H149.858V0.900376H147.481V2.88119H149.75V3.60149H147.481V5.69035H149.93V6.44667V6.44667ZM155.476 6.44667H154.54L153.82 5.15013C153.495 4.53788 153.207 4.14171 152.991 3.92563C152.811 3.74555 152.595 3.67352 152.343 3.67352H152.055V6.44667H151.262V1.54864C151.262 1.15248 151.262 0.864361 151.226 0.684287C151.19 0.432183 151.082 0.288123 150.902 0.216093V0.144064H152.775C153.315 0.144064 153.747 0.288123 154.072 0.612257C154.396 0.936391 154.54 1.36857 154.54 1.90879C154.54 2.26894 154.432 2.55706 154.252 2.84518C154.072 3.09728 153.82 3.27736 153.531 3.3854C153.747 3.52946 153.964 3.78157 154.18 4.1057C154.216 4.17773 154.432 4.53788 154.756 5.15013L155.476 6.44667V6.44667ZM153.675 1.87278C153.675 1.15248 153.315 0.792331 152.595 0.792331H152.091V2.95322H152.595C152.991 2.95322 153.243 2.84518 153.459 2.59308C153.603 2.44902 153.675 2.19691 153.675 1.87278ZM159.474 6.44667H156.197V1.54864C156.197 1.15248 156.197 0.864361 156.124 0.684287C156.088 0.432183 155.98 0.288123 155.8 0.216093V0.144064H159.402V0.900376H157.025V2.88119H159.294V3.60149H157.025V5.69035H159.438V6.44667H159.474ZM165.596 3.27736C165.596 4.1057 165.38 4.826 164.912 5.40224C164.372 6.08652 163.652 6.41065 162.715 6.41065H160.842V1.54864C160.842 1.15248 160.806 0.864361 160.77 0.684287C160.734 0.468198 160.626 0.324138 160.446 0.216093V0.144064H162.679C163.616 0.144064 164.336 0.468198 164.876 1.15248C165.344 1.76473 165.596 2.44902 165.596 3.27736V3.27736ZM164.696 3.27736C164.696 2.59308 164.516 2.05285 164.156 1.62067C163.76 1.11647 163.183 0.900376 162.463 0.900376H161.671V5.72637H162.463C163.183 5.72637 163.76 5.47427 164.156 5.00607C164.516 4.53788 164.696 3.96164 164.696 3.27736V3.27736ZM123.603 14.8021C123.603 15.4144 123.387 15.8826 123.027 16.2067C122.739 16.4588 122.343 16.6029 121.874 16.6029C121.298 16.6029 120.83 16.4588 120.434 16.1347V15.1263C120.866 15.5944 121.334 15.8105 121.874 15.8105C122.162 15.8105 122.415 15.7385 122.559 15.5584C122.703 15.4144 122.811 15.1983 122.811 14.9462V14.9102C122.811 14.622 122.703 14.3699 122.523 14.1538C122.379 14.0098 122.09 13.7937 121.658 13.5056C121.262 13.2535 120.974 13.0014 120.794 12.7493C120.578 12.4251 120.47 12.101 120.47 11.6688C120.47 11.1646 120.614 10.7324 120.938 10.4443C121.262 10.1202 121.658 9.97613 122.162 9.97613C122.667 9.97613 123.063 10.0842 123.423 10.3723V11.3087C123.099 10.9485 122.667 10.7685 122.162 10.7685C121.586 10.7685 121.298 11.0206 121.298 11.5248C121.298 11.7769 121.406 11.993 121.586 12.173C121.694 12.3171 121.91 12.4612 122.234 12.6772C122.739 13.0374 123.099 13.3255 123.315 13.5776C123.495 13.9738 123.603 14.3699 123.603 14.8021V14.8021ZM130.338 13.3255C130.338 14.2259 130.086 15.0182 129.546 15.6305C128.969 16.2787 128.249 16.6389 127.349 16.6389C126.484 16.6389 125.764 16.3147 125.188 15.6305C124.647 14.9822 124.395 14.2259 124.395 13.3255C124.395 12.4251 124.683 11.6328 125.224 11.0206C125.8 10.3723 126.52 10.0482 127.385 10.0482C128.285 10.0482 129.005 10.3723 129.546 11.0206C130.05 11.6328 130.338 12.3891 130.338 13.3255ZM129.437 13.3255C129.437 12.6052 129.257 11.993 128.861 11.5248C128.465 11.0566 127.961 10.8045 127.385 10.8045C126.772 10.8045 126.304 11.0566 125.908 11.5248C125.512 11.993 125.332 12.6052 125.332 13.3255C125.332 14.0458 125.548 14.6581 125.908 15.1263C126.304 15.5944 126.808 15.8465 127.385 15.8465C127.997 15.8465 128.465 15.5944 128.861 15.1263C129.221 14.6581 129.437 14.0458 129.437 13.3255ZM136.064 16.1347C135.632 16.4588 135.056 16.6389 134.299 16.6389C133.435 16.6389 132.679 16.3147 132.139 15.7025C131.562 15.0902 131.274 14.2979 131.274 13.3255C131.274 12.3891 131.562 11.5968 132.139 10.9485C132.715 10.3363 133.435 10.0121 134.299 10.0121C135.056 10.0121 135.632 10.1922 136.064 10.5163V11.4887C135.56 11.0206 134.984 10.7685 134.299 10.7685C133.687 10.7685 133.183 11.0206 132.787 11.4887C132.391 11.9569 132.211 12.5692 132.211 13.2895C132.211 14.0098 132.427 14.622 132.787 15.0902C133.183 15.5584 133.687 15.8105 134.299 15.8105C134.984 15.8105 135.596 15.5944 136.064 15.0902V16.1347V16.1347ZM138.261 16.4588H137.397V11.5608C137.397 11.1646 137.361 10.8765 137.325 10.6964C137.289 10.4803 137.145 10.3003 137.001 10.2282V10.1202H138.225V16.4588H138.261ZM143.231 16.4588H139.954V11.5608C139.954 11.1646 139.918 10.8765 139.882 10.6964C139.846 10.4803 139.738 10.3003 139.558 10.2282V10.1202H143.159V10.8765H140.782V12.8573H143.051V13.5776H140.782V15.6665H143.195V16.4588H143.231ZM148.057 10.9125H146.328V16.4588H145.464V10.9125H143.699V10.1562H148.057V10.9125ZM153.495 10.1562L151.515 13.2175V16.4588H150.686V13.2175L149.606 11.5608C149.318 11.1286 149.138 10.8405 148.994 10.6964C148.813 10.4443 148.633 10.3003 148.453 10.2642V10.1562H149.714L151.118 12.3531L152.523 10.1562H153.495V10.1562ZM125.944 23.0855C125.944 23.9859 125.692 24.7782 125.152 25.3905C124.575 26.0748 123.855 26.3989 122.955 26.3989C122.09 26.3989 121.37 26.0748 120.794 25.3905C120.254 24.7422 120.002 23.9859 120.002 23.0855C120.002 22.1852 120.29 21.3928 120.83 20.7806C121.406 20.1323 122.126 19.8082 122.991 19.8082C123.891 19.8082 124.611 20.1323 125.152 20.7806C125.692 21.3928 125.944 22.1492 125.944 23.0855ZM125.044 23.0495C125.044 22.3292 124.864 21.717 124.467 21.2488C124.071 20.7806 123.567 20.5285 122.991 20.5285C122.379 20.5285 121.91 20.7806 121.514 21.2488C121.118 21.717 120.938 22.3292 120.938 23.0495C120.938 23.7698 121.118 24.3821 121.514 24.8503C121.91 25.3185 122.415 25.5706 122.991 25.5706C123.567 25.5706 124.071 25.3185 124.467 24.8503C124.864 24.4181 125.044 23.8058 125.044 23.0495V23.0495ZM130.338 20.6725H128.033V22.6534H130.23V23.3737H128.033V26.2188H127.205V21.3208C127.205 20.9246 127.169 20.6365 127.133 20.4565C127.096 20.2043 126.988 20.0603 126.808 19.9883V19.8802H130.338V20.6725V20.6725ZM124.539 31.585C124.539 32.1253 124.395 32.5575 124.071 32.8816C123.711 33.2417 123.243 33.4218 122.667 33.4218H121.874V36.0509H121.01V31.1169C121.01 30.7207 121.01 30.4326 120.938 30.2525C120.902 30.0364 120.794 29.8563 120.614 29.7843V29.7123H122.739C123.315 29.7123 123.747 29.8924 124.071 30.2525C124.395 30.6126 124.539 31.0448 124.539 31.585ZM123.675 31.549C123.675 31.2609 123.603 31.0088 123.459 30.7927C123.279 30.5406 123.027 30.4326 122.703 30.4326H121.838V32.6655H122.667C122.955 32.6655 123.207 32.5575 123.387 32.3414C123.567 32.1613 123.675 31.8732 123.675 31.549ZM130.23 36.0509H129.401V33.2057H126.412V36.0509H125.548V31.1169C125.548 30.7207 125.548 30.4326 125.476 30.2525C125.44 30.0364 125.296 29.8563 125.152 29.7843V29.6763H126.376V32.4134H129.329V29.6763H130.158V36.0509H130.23ZM135.884 29.7123L133.903 32.7735V36.0149H133.039V32.7735L131.958 31.1169C131.67 30.6847 131.49 30.3966 131.346 30.2525C131.166 30.0004 130.986 29.8563 130.806 29.8203V29.7483H132.067L133.471 31.9452L134.876 29.7483H135.884V29.7123ZM139.414 34.3582C139.414 34.9704 139.234 35.4386 138.837 35.7628C138.549 36.0149 138.153 36.1589 137.685 36.1589C137.109 36.1589 136.64 36.0149 136.244 35.6907V34.6823C136.676 35.1505 137.145 35.3666 137.649 35.3666C137.937 35.3666 138.189 35.2946 138.333 35.1145C138.477 34.9704 138.585 34.7544 138.585 34.5023V34.4662C138.585 34.1781 138.477 33.926 138.297 33.7099C138.153 33.5659 137.865 33.3498 137.433 33.0617C137.037 32.8096 136.748 32.5575 136.568 32.3053C136.352 31.9812 136.244 31.6571 136.244 31.2249C136.244 30.7207 136.388 30.2885 136.712 30.0004C137.037 29.6763 137.433 29.5322 137.937 29.5322C138.441 29.5322 138.837 29.6763 139.197 29.9284V30.8648C138.873 30.5046 138.441 30.3245 137.937 30.3245C137.361 30.3245 137.073 30.5766 137.073 31.0808V31.1169C137.073 31.3329 137.181 31.585 137.361 31.7651C137.469 31.9092 137.685 32.0532 138.009 32.2693C138.513 32.6295 138.873 32.9176 139.089 33.1697C139.306 33.5299 139.414 33.926 139.414 34.3582ZM141.61 36.0509H140.746V31.1169C140.746 30.7207 140.71 30.4326 140.674 30.2525C140.638 30.0364 140.494 29.8563 140.35 29.7843V29.6763H141.574V36.0509H141.61ZM148.777 32.8816C148.777 33.782 148.525 34.5743 147.985 35.1865C147.409 35.8708 146.689 36.195 145.788 36.195C144.924 36.195 144.204 35.8708 143.627 35.1865C143.087 34.5383 142.835 33.782 142.835 32.8816C142.835 31.9812 143.123 31.1889 143.663 30.5766C144.24 29.9284 144.96 29.6042 145.824 29.6042C146.725 29.6042 147.445 29.9284 147.985 30.5766C148.525 31.1889 148.777 31.9452 148.777 32.8816ZM147.877 32.8816C147.877 32.1613 147.697 31.549 147.301 31.0808C146.905 30.6126 146.4 30.3605 145.824 30.3605C145.248 30.3605 144.744 30.6126 144.348 31.0808C143.951 31.549 143.771 32.1613 143.771 32.8816C143.771 33.6019 143.951 34.2141 144.348 34.7183C144.744 35.1865 145.248 35.4386 145.824 35.4386C146.436 35.4386 146.905 35.1865 147.301 34.7183C147.697 34.2141 147.877 33.6019 147.877 32.8816ZM153.243 30.4686H151.515V36.0509H150.65V30.4686H148.885V29.7123H153.243V30.4686ZM158.79 36.0509H157.925V33.2057H154.972V36.0509H154.144V31.1169C154.144 30.7207 154.108 30.4326 154.072 30.2525C154 30.0364 153.892 29.8563 153.747 29.7843V29.6763H154.972V32.4134H157.925V29.6763H158.79V36.0509V36.0509ZM163.76 36.0509H160.482V31.1169C160.482 30.7207 160.482 30.4326 160.41 30.2525C160.374 30.0004 160.266 29.8563 160.086 29.7843V29.6763H163.688V30.4326H161.311V32.4134H163.58V33.1337H161.311V35.2946H163.724V36.0509H163.76ZM169.306 36.0149H168.37L167.649 34.7183C167.325 34.1061 167.037 33.7099 166.821 33.4938C166.641 33.3138 166.425 33.2417 166.173 33.2417H165.885V36.0149H165.056V31.1169C165.056 30.7207 165.056 30.4326 164.984 30.2525C164.948 30.0004 164.84 29.8563 164.66 29.7843V29.6763H166.533C167.073 29.6763 167.505 29.8203 167.829 30.1445C168.153 30.4686 168.298 30.9008 168.298 31.441C168.298 31.8011 168.189 32.0893 168.009 32.3774C167.829 32.6295 167.577 32.8096 167.289 32.9176C167.505 33.0617 167.721 33.3138 167.937 33.6379C167.973 33.7099 168.189 34.0701 168.514 34.6823L169.306 36.0149ZM167.505 31.477C167.505 30.7567 167.145 30.3966 166.425 30.3966H165.921V32.5575H166.425C166.821 32.5575 167.073 32.4494 167.289 32.1973C167.433 32.0172 167.505 31.7651 167.505 31.477ZM174.816 36.0509H173.952L173.232 34.1421H170.927L170.242 36.0509H169.486L171.791 29.7483H172.403L174.816 36.0509ZM172.907 33.4218L172.259 31.6931C172.115 31.3329 172.043 31.0808 172.007 30.9368C171.971 31.1169 171.899 31.369 171.791 31.6931L171.179 33.4218H172.907ZM179.066 31.585C179.066 32.1253 178.922 32.5575 178.598 32.8816C178.238 33.2417 177.769 33.4218 177.193 33.4218H176.401V36.0509H175.536V31.1169C175.536 30.7207 175.536 30.4326 175.5 30.2525C175.464 30.0364 175.32 29.8563 175.176 29.7843V29.7123H177.301C177.877 29.7123 178.31 29.8924 178.634 30.2525C178.922 30.6126 179.066 31.0448 179.066 31.585ZM178.202 31.549C178.202 31.2609 178.13 31.0088 177.986 30.7927C177.805 30.5406 177.553 30.4326 177.229 30.4326H176.365V32.6655H177.193C177.481 32.6655 177.733 32.5575 177.913 32.3414C178.094 32.1613 178.202 31.8732 178.202 31.549ZM184 29.7123L182.019 32.7735V36.0149H181.155V32.7735L180.074 31.1169C179.786 30.6847 179.606 30.3966 179.462 30.2525C179.282 30.0004 179.102 29.8563 178.922 29.8203V29.7483H180.182L181.587 31.9452L182.992 29.7483H184V29.7123Z" fill="#282270"/>
<path d="M18.2956 47.5756C11.9569 40.1206 9.11176 32.8095 9.11176 24.6702C9.11176 16.4948 11.9569 9.21979 18.2595 1.76471C18.5116 1.47659 18.6917 1.18847 18.6917 0.900355C18.6917 0.396147 18.3316 0.144043 17.6833 0.144043H10.4083C9.50793 0.144043 8.85966 0.432162 8.35545 1.0084C3.13329 6.69875 0 15.5944 0 24.6702C0 33.7459 3.13329 42.6416 8.31944 48.3319C8.82364 48.9082 9.47191 49.1963 10.3723 49.1963H17.7193C18.3316 49.1963 18.7277 48.9442 18.7277 48.44C18.7277 48.1519 18.5477 47.8638 18.2956 47.5756Z" fill="#6D6CA0"/>
</g>
<defs>
<clipPath id="clip0">
<rect width="184" height="49.1963" fill="white"/>
</clipPath>
</defs>
</svg>
