<svg width="162" height="49" viewBox="0 0 162 49" fill="none" xmlns="http://www.w3.org/2000/svg">
<path d="M3.12537 2.10645H7.67537V17.2487H7.77476C9.42027 14.6349 12.2806 13.135 15.7152 13.135C22.1095 13.135 24.9698 17.1053 24.9698 23.7335V38.3905H20.4198V25.6194C20.4198 19.8625 19.1608 17.0612 15.1851 16.8186C10.0056 16.8186 7.67537 20.9764 7.67537 26.9759V38.3905H3.12537" fill="#00417B"/>
<path d="M45.2792 17.8773C43.5342 17.1494 41.7893 16.8075 40.3426 16.8075C35.2515 16.8075 32.4022 21.3513 32.4022 26.0495C32.4022 30.4499 34.7766 35.2914 40.6408 35.2914C42.1869 35.2914 44.1306 34.8062 45.5332 33.8908L45.8755 37.9493C43.987 38.8206 41.8114 38.964 40.1549 38.964C32.6893 38.964 27.554 33.1078 27.554 26.0495C27.554 18.55 32.5899 13.135 40.1549 13.135C41.9992 13.135 44.3736 13.5651 45.6767 14.1055" fill="#00417B"/>
<path d="M49.6414 13.7196H54.0037V17.2046H54.1031C55.3179 15.3629 58.123 13.1461 62.4852 13.1461C69.6526 13.1461 73.1424 19.0023 73.1424 25.6305C73.1424 32.402 69.9949 38.9861 62.5294 38.9861C58.1671 38.9861 55.6934 37.2877 54.2908 35.0158H54.1914V48.5589H49.6414V13.7196ZM61.5134 16.8076C56.5769 16.8076 54.2025 21.5058 54.2025 26.0937C54.1914 30.2184 56.3229 35.2915 61.4582 35.2915C66.3505 35.2915 68.3826 29.8213 68.2942 25.9503C68.3826 21.5058 66.4499 16.8076 61.5134 16.8076Z" fill="#00417B"/>
<path d="M93.4407 17.8773C91.6958 17.1494 89.9509 16.8075 88.5042 16.8075C83.413 16.8075 80.5638 21.3513 80.5638 26.0495C80.5638 30.4499 82.9382 35.2914 88.8024 35.2914C90.3485 35.2914 92.2922 34.8062 93.6947 33.8908L94.0371 37.9493C92.1486 38.8206 89.962 38.964 88.3164 38.964C80.8509 38.964 75.7156 33.1078 75.7156 26.0495C75.7156 18.55 80.7515 13.135 88.3164 13.135C90.1607 13.135 92.5351 13.5651 93.8383 14.1055" fill="#00417B"/>
<path d="M100.222 10.8191H101.193V14.0615H101.215C101.569 13.499 102.176 13.1792 102.916 13.1792C104.286 13.1792 104.893 14.0284 104.893 15.4401V18.5722H103.921V15.8371C103.921 14.6019 103.656 14.0064 102.806 13.9512C101.701 13.9512 101.204 14.8445 101.204 16.1238V18.5612H100.233" fill="#00417B"/>
<path d="M110.084 18.3626C109.708 18.495 109.288 18.7045 108.416 18.7045C106.539 18.7045 105.677 17.5686 105.677 15.8481C105.677 14.2821 106.66 13.1792 108.151 13.1792C109.907 13.1792 110.481 14.4585 110.481 16.1569H106.715C106.715 17.2046 107.532 17.9105 108.46 17.9105C109.101 17.9105 109.852 17.5796 110.084 17.3811V18.3626ZM109.454 15.4401C109.454 14.635 108.979 13.9733 108.14 13.9733C107.19 13.9733 106.793 14.7563 106.715 15.4401H109.454Z" fill="#00417B"/>
<path d="M111.729 13.6755C112.215 13.3887 112.8 13.1792 113.474 13.1792C114.987 13.1792 115.594 13.9291 115.594 15.3629V17.5465C115.594 18.1421 115.616 18.4288 115.639 18.5832H114.722V17.8994H114.7C114.468 18.2193 113.949 18.7045 113.065 18.7045C111.928 18.7045 111.133 18.2082 111.133 17.0613C111.133 15.7378 112.579 15.3187 113.584 15.3187C113.971 15.3187 114.236 15.3187 114.623 15.3408C114.623 14.4254 114.291 13.9622 113.319 13.9622C112.767 13.9622 112.182 14.1718 111.784 14.5026L111.729 13.6755ZM114.623 16.0687C114.413 16.0687 114.203 16.0466 114.004 16.0466C113.474 16.0466 112.171 16.1349 112.171 17.0613C112.171 17.6237 112.712 17.9215 113.154 17.9215C114.115 17.9215 114.623 17.3259 114.623 16.5319V16.0687Z" fill="#00417B"/>
<path d="M117.88 10.8191H116.909V18.5832H117.88V10.8191Z" fill="#00417B"/>
<path d="M122.364 14.0945H120.962V16.984C120.962 17.5905 121.337 17.9214 121.779 17.9214C122.077 17.9214 122.298 17.8332 122.441 17.7339V18.5611C122.221 18.6272 121.922 18.7044 121.613 18.7044C120.608 18.7044 119.99 18.2302 119.99 17.1715V14.0835H118.797V13.3004H119.99V12.0763L120.962 11.7675V13.3004H122.364" fill="#00417B"/>
<path d="M123.59 10.8191H124.562V14.0615H124.584C124.937 13.499 125.545 13.1792 126.285 13.1792C127.654 13.1792 128.262 14.0284 128.262 15.4401V18.5722H127.29V15.8371C127.29 14.6019 127.025 14.0064 126.174 13.9512C125.07 13.9512 124.573 14.8445 124.573 16.1238V18.5612H123.601" fill="#00417B"/>
<path d="M136.92 14.679C136.831 15.848 136.5 16.5208 136.091 17.1494L137.35 18.5721H136.058L135.473 17.8663C134.954 18.4618 134.324 18.6934 133.397 18.6934C131.972 18.6934 131.067 17.8883 131.067 16.6752C131.067 15.5833 131.707 14.9547 132.679 14.5687C132.292 14.1055 131.928 13.6203 131.928 12.9255C131.928 11.7675 132.778 11.2271 133.816 11.2271C134.755 11.2271 135.606 11.7233 135.606 12.8593C135.606 13.7857 134.788 14.4033 134.015 14.7452L135.484 16.4215C135.76 15.9804 135.882 15.5061 135.926 14.668L136.92 14.679ZM133.585 17.9214C134.258 17.9214 134.689 17.4913 134.921 17.2266L133.176 15.1863C132.624 15.5613 132.16 15.9032 132.16 16.609C132.16 17.4141 132.834 17.9214 133.585 17.9214ZM133.551 14.1717C133.982 13.9621 134.645 13.521 134.645 12.9144C134.645 12.2527 134.28 12.0211 133.783 12.0211C133.308 12.0211 132.911 12.3299 132.911 12.9475C132.911 13.4328 133.242 13.8298 133.551 14.1717Z" fill="#00417B"/>
<path d="M143.557 14.1938C143.182 14.0394 142.806 13.9622 142.497 13.9622C141.415 13.9622 140.796 14.9327 140.796 15.9363C140.796 16.8738 141.304 17.9105 142.552 17.9105C142.883 17.9105 143.303 17.8112 143.601 17.6127L143.679 18.4839C143.27 18.6714 142.806 18.7045 142.453 18.7045C140.851 18.7045 139.758 17.4473 139.758 15.9363C139.758 14.3372 140.84 13.1792 142.453 13.1792C142.85 13.1792 143.358 13.2674 143.634 13.3887" fill="#00417B"/>
<path d="M145.004 13.6755C145.49 13.3887 146.075 13.1792 146.749 13.1792C148.262 13.1792 148.869 13.9291 148.869 15.3629V17.5465C148.869 18.1421 148.891 18.4288 148.913 18.5832H147.997V17.8994H147.975C147.743 18.2193 147.224 18.7045 146.34 18.7045C145.203 18.7045 144.407 18.2082 144.407 17.0613C144.407 15.7378 145.854 15.3187 146.859 15.3187C147.246 15.3187 147.511 15.3187 147.897 15.3408C147.897 14.4254 147.566 13.9622 146.594 13.9622C146.042 13.9622 145.457 14.1718 145.059 14.5026L145.004 13.6755ZM147.886 16.0687C147.676 16.0687 147.466 16.0466 147.268 16.0466C146.738 16.0466 145.434 16.1349 145.434 17.0613C145.434 17.6237 145.976 17.9215 146.417 17.9215C147.378 17.9215 147.886 17.3259 147.886 16.5319V16.0687Z" fill="#00417B"/>
<path d="M150.04 13.3005H150.956V14.1166H150.978C151.232 13.5652 151.796 13.1792 152.359 13.1792C152.646 13.1792 152.79 13.2123 152.999 13.2564V14.1277C152.823 14.0505 152.624 14.0394 152.458 14.0394C151.586 14.0394 151.023 14.8666 151.023 16.19V18.5942H150.051" fill="#00417B"/>
<path d="M157.814 18.3626C157.439 18.495 157.019 18.7045 156.147 18.7045C154.269 18.7045 153.408 17.5686 153.408 15.8481C153.408 14.2821 154.391 13.1792 155.882 13.1792C157.649 13.1792 158.212 14.4585 158.212 16.1569H154.446C154.446 17.2046 155.263 17.9105 156.191 17.9105C156.832 17.9105 157.583 17.5796 157.814 17.3811V18.3626ZM157.185 15.4401C157.185 14.635 156.71 13.9733 155.871 13.9733C154.921 13.9733 154.523 14.7563 154.457 15.4401H157.185Z" fill="#00417B"/>
<path d="M100.222 24.4724H101.16V25.2223H101.182C101.436 24.8253 102.044 24.3511 102.971 24.3511C104.507 24.3511 105.246 25.6083 105.246 27.02C105.246 28.4647 104.573 29.8764 102.982 29.8764C102.055 29.8764 101.525 29.5125 101.227 29.0272H101.204V31.9277H100.233L100.222 24.4724ZM102.762 25.1341C101.701 25.1341 101.193 26.1377 101.193 27.1192C101.193 28.0015 101.646 29.0823 102.751 29.0823C103.8 29.0823 104.23 27.9133 104.208 27.0862C104.23 26.1377 103.822 25.1341 102.762 25.1341Z" fill="#00417B"/>
<path d="M106.141 24.4724H107.058V25.2885H107.08C107.334 24.7371 107.897 24.3511 108.46 24.3511C108.747 24.3511 108.891 24.3842 109.101 24.4283V25.2995C108.924 25.2223 108.725 25.2113 108.56 25.2113C107.687 25.2113 107.124 26.0384 107.124 27.3619V29.7661H106.152" fill="#00417B"/>
<path d="M112.204 24.3511C113.805 24.3511 114.888 25.5091 114.888 27.1192C114.888 28.6302 113.794 29.8874 112.204 29.8874C110.614 29.8874 109.509 28.6302 109.509 27.1192C109.509 25.5091 110.581 24.3511 112.204 24.3511ZM112.204 29.0934C113.341 29.0934 113.849 28.0567 113.849 27.1192C113.849 26.1156 113.242 25.1451 112.204 25.1451C111.155 25.1451 110.547 26.1156 110.547 27.1192C110.547 28.0567 111.055 29.0934 112.204 29.0934Z" fill="#00417B"/>
<path d="M116.566 25.2665H115.318V24.4835H116.566V23.9982C116.566 22.7189 116.898 21.8807 118.333 21.8807C118.587 21.8807 118.786 21.9138 118.985 21.9469L118.941 22.7299C118.83 22.6858 118.642 22.6638 118.477 22.6638C117.637 22.6638 117.538 23.2042 117.538 23.921V24.4945H118.941V25.2775H117.538V29.7662H116.566" fill="#00417B"/>
<path d="M123.855 29.5345C123.48 29.6669 123.06 29.8764 122.187 29.8764C120.31 29.8764 119.449 28.7405 119.449 27.02C119.449 25.4539 120.432 24.3511 121.922 24.3511C123.678 24.3511 124.253 25.6304 124.253 27.3288H120.476C120.476 28.3765 121.293 29.0823 122.221 29.0823C122.861 29.0823 123.612 28.7515 123.844 28.553L123.855 29.5345ZM123.226 26.6119C123.226 25.8068 122.751 25.1451 121.911 25.1451C120.962 25.1451 120.564 25.9282 120.498 26.6119H123.226V26.6119Z" fill="#00417B"/>
<path d="M125.28 28.7185C125.666 28.9721 126.207 29.0934 126.495 29.0934C126.936 29.0934 127.488 28.906 127.488 28.3435C127.488 27.384 125.202 27.4612 125.202 25.9834C125.202 24.8916 126.02 24.3622 127.069 24.3622C127.522 24.3622 127.897 24.4504 128.284 24.5717L128.195 25.4209C127.974 25.2886 127.4 25.1562 127.168 25.1562C126.671 25.1562 126.229 25.3658 126.229 25.7959C126.229 26.8767 128.516 26.5569 128.516 28.2442C128.516 29.3692 127.61 29.8875 126.671 29.8875C126.174 29.8875 125.666 29.8324 125.224 29.6008" fill="#00417B"/>
<path d="M129.565 28.7185C129.951 28.9721 130.492 29.0934 130.779 29.0934C131.221 29.0934 131.773 28.906 131.773 28.3435C131.773 27.384 129.487 27.4612 129.487 25.9834C129.487 24.8916 130.305 24.3622 131.354 24.3622C131.807 24.3622 132.182 24.4504 132.569 24.5717L132.491 25.4209C132.27 25.2886 131.696 25.1562 131.464 25.1562C130.967 25.1562 130.536 25.3658 130.536 25.7959C130.536 26.8767 132.823 26.5569 132.823 28.2442C132.823 29.3692 131.917 29.8875 130.978 29.8875C130.481 29.8875 129.973 29.8324 129.532 29.6008" fill="#00417B"/>
<path d="M135.042 23.2924H133.949V22.2006H135.042V23.2924ZM134.004 24.4725H134.976V29.7441H134.004V24.4725Z" fill="#00417B"/>
<path d="M138.587 24.3511C140.189 24.3511 141.271 25.5091 141.271 27.1192C141.271 28.6302 140.178 29.8874 138.587 29.8874C136.997 29.8874 135.893 28.6302 135.893 27.1192C135.893 25.5091 136.975 24.3511 138.587 24.3511ZM138.587 29.0934C139.725 29.0934 140.233 28.0567 140.233 27.1192C140.233 26.1156 139.625 25.1451 138.587 25.1451C137.538 25.1451 136.931 26.1156 136.931 27.1192C136.931 28.0567 137.439 29.0934 138.587 29.0934Z" fill="#00417B"/>
<path d="M142.21 24.4724H143.148V25.3106H143.17C143.458 24.715 144.164 24.3511 144.904 24.3511C146.274 24.3511 146.881 25.2003 146.881 26.6119V29.7441H145.909V27.02C145.909 25.7848 145.644 25.1892 144.794 25.1341C143.69 25.1341 143.193 26.0274 143.193 27.3067V29.7441H142.221" fill="#00417B"/>
<path d="M148.041 28.7185C148.427 28.9721 148.968 29.0934 149.256 29.0934C149.697 29.0934 150.25 28.906 150.25 28.3435C150.25 27.384 147.963 27.4612 147.963 25.9834C147.963 24.8916 148.781 24.3622 149.83 24.3622C150.283 24.3622 150.658 24.4504 151.045 24.5717L150.967 25.4209C150.746 25.2886 150.172 25.1562 149.94 25.1562C149.443 25.1562 149.013 25.3658 149.013 25.7959C149.013 26.8767 151.299 26.5569 151.299 28.2442C151.299 29.3692 150.393 29.8875 149.454 29.8875C148.957 29.8875 148.449 29.8324 148.008 29.6008" fill="#00417B"/>
<path d="M103.579 36.5377C103.203 36.3833 102.828 36.3061 102.519 36.3061C101.425 36.3061 100.818 37.2766 100.818 38.2802C100.818 39.2176 101.326 40.2543 102.574 40.2543C102.905 40.2543 103.325 40.155 103.623 39.9565L103.7 40.8278C103.292 41.0153 102.828 41.0483 102.474 41.0483C100.873 41.0483 99.7798 39.8021 99.7798 38.2912C99.7798 36.6921 100.851 35.5341 102.474 35.5341C102.872 35.5341 103.38 35.6223 103.656 35.7436" fill="#00417B"/>
<path d="M107.113 35.5231C108.714 35.5231 109.796 36.6811 109.796 38.2802C109.796 39.7911 108.692 41.0374 107.113 41.0374C105.523 41.0374 104.418 39.7911 104.418 38.2802C104.418 36.6811 105.5 35.5231 107.113 35.5231ZM107.113 40.2654C108.25 40.2654 108.758 39.2287 108.758 38.2912C108.758 37.2876 108.151 36.3171 107.113 36.3171C106.064 36.3171 105.456 37.2876 105.456 38.2912C105.456 39.2287 105.964 40.2654 107.113 40.2654Z" fill="#00417B"/>
<path d="M115.263 40.9271H114.324V40.0889H114.302C114.015 40.6844 113.308 41.0484 112.568 41.0484C111.199 41.0484 110.592 40.1992 110.592 38.7875V35.6554H111.563V38.3905C111.563 39.6257 111.828 40.2212 112.679 40.2764C113.783 40.2764 114.28 39.3831 114.28 38.1037V35.6664H115.252" fill="#00417B"/>
<path d="M116.445 35.6444H117.383V36.4826H117.406C117.693 35.887 118.399 35.5231 119.139 35.5231C120.509 35.5231 121.116 36.3723 121.116 37.7839V40.916H120.144V38.181C120.144 36.9458 119.879 36.3502 119.029 36.2951C117.925 36.2951 117.428 37.1884 117.428 38.4677V40.905H116.456" fill="#00417B"/>
<path d="M125.777 36.5377C125.401 36.3833 125.026 36.3061 124.716 36.3061C123.634 36.3061 123.016 37.2766 123.016 38.2802C123.016 39.2176 123.524 40.2543 124.783 40.2543C125.114 40.2543 125.534 40.155 125.832 39.9565L125.909 40.8278C125.501 41.0153 125.037 41.0483 124.683 41.0483C123.082 41.0483 121.989 39.8021 121.989 38.2912C121.989 36.6921 123.071 35.5341 124.683 35.5341C125.081 35.5341 125.589 35.6223 125.865 35.7436" fill="#00417B"/>
<path d="M128.173 34.4643H127.08V33.3724H128.173V34.4643ZM127.135 35.6443H128.107V40.916H127.135V35.6443Z" fill="#00417B"/>
<path d="M130.525 33.163H129.554V40.9271H130.525V33.163Z" fill="#00417B"/>
</svg>
