<svg width="60" height="45" viewBox="0 0 60 45" fill="none" xmlns="http://www.w3.org/2000/svg">
<path d="M38.9481 21.1211H31.1384V26.9135H38.9482V21.1211H38.9481ZM37.1903 25.1557H32.8962V22.8789H37.1903V25.1557Z" fill="#CD874B"/>
<path d="M42.6479 31.2076V20.3758L44.9999 21.7338V15.6602L30 7L24.827 9.98664V7H19.0346V13.3309L15.0001 15.6602V21.7338L17.3521 20.3758V31.2076H15V37H45V31.2076H42.6479ZM20.7924 8.75781H23.0692V11.0015L20.7924 12.316V8.75781ZM16.7579 16.6751L30 9.02975L43.2421 16.6751V18.6892L30 11.0438L16.7579 18.6892V16.6751ZM19.1099 19.361L30 13.0736L40.8901 19.361V31.2076H28.8616V21.1211H21.0519V31.2076H19.1099V19.361ZM27.1038 31.2076H22.8097V22.8789H27.1038V31.2076ZM43.2422 35.2422H16.7578V32.9654H43.2422V35.2422Z" fill="#CD874B"/>
</svg>
