<svg width="194" height="37" viewBox="0 0 194 37" fill="none" xmlns="http://www.w3.org/2000/svg">
<path d="M10.0065 24.3116C10.0065 24.8205 9.92486 25.2765 9.76163 25.6798C9.59841 26.0831 9.33916 26.4239 8.98391 26.7024C8.63825 26.9808 8.18218 27.1969 7.61569 27.3505C7.0588 27.5041 6.37709 27.5809 5.57056 27.5809H4.27435V30.3606C4.27435 30.7158 4.29355 31.0087 4.33195 31.2391C4.37996 31.4599 4.47118 31.6328 4.6056 31.7576C4.74962 31.8824 4.95125 31.9688 5.2105 32.0168C5.47934 32.0552 5.8298 32.0744 6.26187 32.0744V32.6217H1.17784V32.0744C1.5139 32.0648 1.78274 32.036 1.98437 31.988C2.19561 31.94 2.35884 31.8584 2.47405 31.7432C2.58927 31.628 2.66609 31.4647 2.70449 31.2535C2.7429 31.0423 2.7621 30.7686 2.7621 30.4326V23.7211C2.7621 23.385 2.7429 23.1162 2.70449 22.9146C2.67569 22.7033 2.60848 22.5401 2.50286 22.4249C2.40684 22.3001 2.26282 22.2185 2.07079 22.18C1.87876 22.132 1.62912 22.0984 1.32187 22.0792V21.5319H5.8442C7.16921 21.5319 8.19178 21.7768 8.9119 22.2665C9.64161 22.7561 10.0065 23.4378 10.0065 24.3116ZM4.27435 26.8608H5.29691C6.25707 26.8608 6.96758 26.6784 7.42846 26.3135C7.89893 25.9391 8.13417 25.3294 8.13417 24.4844C8.13417 23.6683 7.94694 23.0874 7.57248 22.7417C7.20762 22.3865 6.63153 22.2088 5.8442 22.2088H4.51919C4.35596 22.2088 4.27435 22.2905 4.27435 22.4537V26.8608ZM25.8566 30.3318C25.8566 30.6966 25.8758 30.9943 25.9142 31.2247C25.9526 31.4455 26.0246 31.6184 26.1302 31.7432C26.2454 31.8584 26.4039 31.94 26.6055 31.988C26.8167 32.036 27.0904 32.0648 27.4264 32.0744V32.6217H22.7601V32.0744C23.0961 32.0648 23.365 32.036 23.5666 31.988C23.7778 31.94 23.9411 31.8584 24.0563 31.7432C24.1715 31.628 24.2483 31.4647 24.2867 31.2535C24.3251 31.0423 24.3443 30.7686 24.3443 30.4326V27.3073H18.5114V30.3318C18.5114 30.6966 18.5306 30.9943 18.569 31.2247C18.6074 31.4455 18.6794 31.6184 18.785 31.7432C18.9002 31.8584 19.0587 31.94 19.2603 31.988C19.4715 32.036 19.7452 32.0648 20.0812 32.0744V32.6217H15.4149V32.0744C15.7509 32.0648 16.0198 32.036 16.2214 31.988C16.4327 31.94 16.5959 31.8584 16.7111 31.7432C16.8263 31.628 16.9031 31.4647 16.9415 31.2535C16.9799 31.0423 16.9991 30.7686 16.9991 30.4326V23.7211C16.9991 23.385 16.9799 23.1162 16.9415 22.9146C16.9127 22.7033 16.8455 22.5401 16.7399 22.4249C16.6439 22.3001 16.4999 22.2185 16.3078 22.18C16.1158 22.132 15.8662 22.0984 15.5589 22.0792V21.5319H19.9372V22.0792C19.63 22.0888 19.3803 22.1176 19.1883 22.1656C19.0059 22.2137 18.8618 22.3001 18.7562 22.4249C18.6602 22.5497 18.593 22.7225 18.5546 22.9434C18.5258 23.1642 18.5114 23.4571 18.5114 23.8219V26.5872H24.3443V23.7211C24.3443 23.385 24.3251 23.1162 24.2867 22.9146C24.2579 22.7033 24.1907 22.5401 24.0851 22.4249C23.9891 22.3001 23.8451 22.2185 23.653 22.18C23.461 22.132 23.2113 22.0984 22.9041 22.0792V21.5319H27.2824V22.0792C26.9752 22.0888 26.7255 22.1176 26.5335 22.1656C26.3511 22.2137 26.207 22.3001 26.1014 22.4249C26.0054 22.5497 25.9382 22.7225 25.8998 22.9434C25.871 23.1642 25.8566 23.4571 25.8566 23.8219V30.3318ZM34.0775 23.3178C33.9335 23.0682 33.799 22.8666 33.6742 22.7129C33.5494 22.5497 33.4198 22.4201 33.2854 22.3241C33.1605 22.2281 33.0261 22.1656 32.8821 22.1368C32.7381 22.0984 32.5652 22.0792 32.3636 22.0792V21.5319H36.9003V22.0792C36.4203 22.0792 36.0794 22.1176 35.8778 22.1944C35.6858 22.2617 35.5897 22.3865 35.5897 22.5689C35.5897 22.7705 35.7002 23.0586 35.921 23.433L38.1534 27.2497H38.211L39.8384 24.5132C40.1457 23.9947 40.3617 23.5867 40.4865 23.289C40.621 22.9914 40.6882 22.7513 40.6882 22.5689C40.6882 22.3865 40.6162 22.2617 40.4721 22.1944C40.3377 22.1176 40.0977 22.0792 39.752 22.0792V21.5319H43.0501V22.0792C42.8485 22.0792 42.6661 22.108 42.5029 22.1656C42.3492 22.2233 42.186 22.3385 42.0132 22.5113C41.8403 22.6841 41.6483 22.9242 41.4371 23.2314C41.2355 23.5387 40.9858 23.9419 40.6882 24.4412L38.4702 28.1858V29.8997C38.4702 30.3702 38.4846 30.7494 38.5134 31.0375C38.5518 31.3159 38.6238 31.532 38.7294 31.6856C38.8447 31.8392 39.0031 31.9448 39.2047 32.0024C39.416 32.0504 39.6944 32.0744 40.0401 32.0744V32.6217H35.3737V32.0744C35.7194 32.0744 35.993 32.0504 36.1946 32.0024C36.4059 31.9448 36.5643 31.844 36.6699 31.7C36.7851 31.5464 36.8619 31.3351 36.9003 31.0663C36.9388 30.7974 36.958 30.4422 36.958 30.0005V28.2434L34.0775 23.3178ZM48.0425 29.2372H48.5754C48.6426 29.6693 48.7674 30.0581 48.9498 30.4038C49.1418 30.7494 49.3771 31.0423 49.6555 31.2823C49.9436 31.5224 50.27 31.7096 50.6349 31.844C51.0093 31.9688 51.4126 32.0312 51.8447 32.0312C52.5552 32.0312 53.1169 31.8632 53.5298 31.5272C53.9426 31.1911 54.1491 30.735 54.1491 30.1589C54.1491 29.9189 54.1058 29.6981 54.0194 29.4964C53.9426 29.2948 53.8082 29.1028 53.6162 28.9203C53.4241 28.7283 53.1649 28.5411 52.8384 28.3586C52.5216 28.1762 52.1183 27.9794 51.6286 27.7681C51.0333 27.5089 50.5341 27.2593 50.1308 27.0192C49.7275 26.7792 49.4059 26.5295 49.1658 26.2703C48.9258 26.0111 48.753 25.7374 48.6474 25.4494C48.5513 25.1517 48.5033 24.8157 48.5033 24.4412C48.5033 23.9995 48.5802 23.5915 48.7338 23.217C48.897 22.8426 49.1226 22.5209 49.4107 22.2521C49.6987 21.9736 50.0396 21.7624 50.4333 21.6184C50.8269 21.4647 51.259 21.3879 51.7295 21.3879C52.1519 21.3879 52.5456 21.4551 52.9105 21.5895C53.2753 21.724 53.645 21.94 54.0194 22.2377L54.3939 21.5895H54.7251L54.8836 24.4556H54.3507C54.1202 23.6683 53.7842 23.0826 53.3425 22.6985C52.9105 22.3145 52.3872 22.1224 51.7727 22.1224C51.187 22.1224 50.7213 22.2665 50.3756 22.5545C50.03 22.8426 49.8572 23.2314 49.8572 23.7211C49.8572 23.9515 49.8956 24.1628 49.9724 24.3548C50.0492 24.5372 50.174 24.7149 50.3468 24.8877C50.5197 25.0509 50.7453 25.2189 51.0237 25.3918C51.3022 25.555 51.6478 25.7278 52.0607 25.9102C52.7712 26.2271 53.3617 26.5247 53.8322 26.8032C54.3027 27.072 54.6771 27.3457 54.9556 27.6241C55.234 27.893 55.4309 28.181 55.5461 28.4883C55.6613 28.7859 55.7189 29.122 55.7189 29.4964C55.7189 29.9765 55.6229 30.4182 55.4309 30.8214C55.2388 31.2247 54.97 31.5704 54.6243 31.8584C54.2787 32.1465 53.8658 32.3721 53.3857 32.5353C52.9057 32.6889 52.3776 32.7658 51.8015 32.7658C51.2542 32.7658 50.7597 32.6889 50.318 32.5353C49.886 32.3817 49.4443 32.1225 48.993 31.7576L48.5898 32.4633H48.2585L48.0425 29.2372ZM64.584 29.8997C64.584 30.3798 64.6032 30.759 64.6416 31.0375C64.68 31.3159 64.752 31.532 64.8576 31.6856C64.9729 31.8392 65.1313 31.94 65.3329 31.988C65.5441 32.036 65.8178 32.0648 66.1538 32.0744V32.6217H61.4875V32.0744C61.8235 32.0648 62.0924 32.036 62.294 31.988C62.5053 31.9304 62.6685 31.8296 62.7837 31.6856C62.8989 31.5416 62.9757 31.3399 63.0141 31.0807C63.0525 30.8118 63.0717 30.4518 63.0717 30.0005V24.1532C63.0717 23.7499 63.0525 23.4186 63.0141 23.1594C62.9853 22.8906 62.9181 22.6793 62.8125 22.5257C62.7165 22.3721 62.5725 22.2665 62.3804 22.2088C62.1884 22.1416 61.9388 22.0984 61.6315 22.0792V21.5319H66.0098V22.0792C65.7026 22.0888 65.4529 22.1272 65.2609 22.1944C65.0785 22.2617 64.9344 22.3769 64.8288 22.5401C64.7328 22.6937 64.6656 22.9098 64.6272 23.1882C64.5984 23.4667 64.584 23.8219 64.584 24.254V29.8997ZM77.7818 21.3879C78.6268 21.3879 79.4141 21.5367 80.1438 21.8344C80.8735 22.132 81.5072 22.5401 82.0449 23.0586C82.5826 23.5771 83.0051 24.1868 83.3123 24.8877C83.6196 25.5886 83.7732 26.3471 83.7732 27.1633C83.7732 27.941 83.6148 28.6707 83.2979 29.3524C82.9907 30.0341 82.5682 30.6294 82.0305 31.1383C81.4928 31.6376 80.8591 32.036 80.1294 32.3337C79.3997 32.6217 78.6172 32.7658 77.7818 32.7658C76.9465 32.7658 76.164 32.6217 75.4342 32.3337C74.7045 32.036 74.0708 31.6376 73.5331 31.1383C72.9954 30.6294 72.5682 30.0341 72.2513 29.3524C71.9441 28.6707 71.7904 27.941 71.7904 27.1633C71.7904 26.3471 71.9441 25.5886 72.2513 24.8877C72.5586 24.1868 72.981 23.5771 73.5187 23.0586C74.0564 22.5401 74.6901 22.132 75.4198 21.8344C76.1496 21.5367 76.9369 21.3879 77.7818 21.3879ZM77.7818 31.9736C78.4155 31.9736 78.982 31.8632 79.4813 31.6424C79.9902 31.4215 80.4222 31.1047 80.7775 30.6918C81.1424 30.279 81.4208 29.7797 81.6128 29.194C81.8049 28.5987 81.9009 27.9362 81.9009 27.2065C81.9009 26.4383 81.8049 25.747 81.6128 25.1325C81.4208 24.5084 81.1472 23.9803 80.7919 23.5483C80.4366 23.1066 80.0046 22.7705 79.4957 22.5401C78.9868 22.3001 78.4155 22.18 77.7818 22.18C77.1481 22.18 76.5768 22.3001 76.0679 22.5401C75.5591 22.7705 75.127 23.1066 74.7717 23.5483C74.4165 23.9803 74.1428 24.5084 73.9508 25.1325C73.7588 25.747 73.6627 26.4383 73.6627 27.2065C73.6627 27.9362 73.7588 28.5987 73.9508 29.194C74.1428 29.7797 74.4165 30.279 74.7717 30.6918C75.127 31.1047 75.5591 31.4215 76.0679 31.6424C76.5768 31.8632 77.1481 31.9736 77.7818 31.9736ZM100.127 24.2828H99.5369C99.5081 23.8699 99.4409 23.5243 99.3352 23.2458C99.2296 22.9674 99.076 22.7513 98.8744 22.5977C98.6823 22.4345 98.4375 22.3193 98.1398 22.2521C97.8422 22.1848 97.4869 22.1512 97.0741 22.1512C96.7188 22.1512 96.4308 22.1608 96.2099 22.18C95.9987 22.1896 95.8355 22.2137 95.7203 22.2521C95.605 22.2905 95.5282 22.3385 95.4898 22.3961C95.461 22.4441 95.4466 22.5113 95.4466 22.5977V30.303C95.4466 30.6102 95.4658 30.8743 95.5042 31.0951C95.5522 31.3159 95.6386 31.4984 95.7635 31.6424C95.8979 31.7768 96.0851 31.8824 96.3252 31.9592C96.5748 32.0264 96.9012 32.0648 97.3045 32.0744V32.6217H91.8604V32.0744C92.2637 32.0648 92.5901 32.0264 92.8398 31.9592C93.0894 31.8824 93.2767 31.7768 93.4015 31.6424C93.5359 31.4984 93.6223 31.3159 93.6607 31.0951C93.7087 30.8743 93.7327 30.6102 93.7327 30.303V22.5977C93.7327 22.5113 93.7135 22.4441 93.6751 22.3961C93.6463 22.3385 93.5791 22.2905 93.4735 22.2521C93.3775 22.2137 93.2383 22.1896 93.0558 22.18C92.8734 22.1608 92.6286 22.1512 92.3213 22.1512C91.9468 22.1512 91.5964 22.1656 91.2699 22.1944C90.9531 22.2233 90.6746 22.3097 90.4346 22.4537C90.2042 22.5881 90.0169 22.7993 89.8729 23.0874C89.7289 23.3754 89.6521 23.7739 89.6425 24.2828H89.1096V21.5319H99.9833L100.127 24.2828ZM115.808 30.3318C115.808 30.6966 115.827 30.9943 115.865 31.2247C115.904 31.4455 115.976 31.6184 116.081 31.7432C116.197 31.8584 116.355 31.94 116.557 31.988C116.768 32.036 117.041 32.0648 117.378 32.0744V32.6217H112.711V32.0744C113.047 32.0648 113.316 32.036 113.518 31.988C113.729 31.94 113.892 31.8584 114.007 31.7432C114.123 31.628 114.199 31.4647 114.238 31.2535C114.276 31.0423 114.295 30.7686 114.295 30.4326V27.3073H108.462V30.3318C108.462 30.6966 108.482 30.9943 108.52 31.2247C108.559 31.4455 108.631 31.6184 108.736 31.7432C108.851 31.8584 109.01 31.94 109.211 31.988C109.423 32.036 109.696 32.0648 110.032 32.0744V32.6217H105.366V32.0744C105.702 32.0648 105.971 32.036 106.173 31.988C106.384 31.94 106.547 31.8584 106.662 31.7432C106.777 31.628 106.854 31.4647 106.893 31.2535C106.931 31.0423 106.95 30.7686 106.95 30.4326V23.7211C106.95 23.385 106.931 23.1162 106.893 22.9146C106.864 22.7033 106.797 22.5401 106.691 22.4249C106.595 22.3001 106.451 22.2185 106.259 22.18C106.067 22.132 105.817 22.0984 105.51 22.0792V21.5319H109.888V22.0792C109.581 22.0888 109.331 22.1176 109.139 22.1656C108.957 22.2137 108.813 22.3001 108.707 22.4249C108.611 22.5497 108.544 22.7225 108.506 22.9434C108.477 23.1642 108.462 23.4571 108.462 23.8219V26.5872H114.295V23.7211C114.295 23.385 114.276 23.1162 114.238 22.9146C114.209 22.7033 114.142 22.5401 114.036 22.4249C113.94 22.3001 113.796 22.2185 113.604 22.18C113.412 22.132 113.162 22.0984 112.855 22.0792V21.5319H117.234V22.0792C116.926 22.0888 116.677 22.1176 116.485 22.1656C116.302 22.2137 116.158 22.3001 116.053 22.4249C115.957 22.5497 115.889 22.7225 115.851 22.9434C115.822 23.1642 115.808 23.4571 115.808 23.8219V30.3318ZM126.131 26.5295C126.65 26.5295 127.082 26.5007 127.428 26.4431C127.783 26.3759 128.061 26.2751 128.263 26.1407C128.474 26.0063 128.623 25.8334 128.709 25.6222C128.805 25.411 128.853 25.1613 128.853 24.8733H129.357V28.8051H128.853C128.853 28.5171 128.81 28.2674 128.724 28.0562C128.647 27.845 128.503 27.6721 128.292 27.5377C128.09 27.3937 127.812 27.2881 127.456 27.2209C127.111 27.144 126.669 27.1056 126.131 27.1056V30.3606C126.131 30.6774 126.17 30.9415 126.247 31.1527C126.323 31.3543 126.453 31.5224 126.635 31.6568C126.827 31.7816 127.077 31.8728 127.384 31.9304C127.692 31.9784 128.071 32.0024 128.522 32.0024C129.031 32.0024 129.463 31.9688 129.818 31.9016C130.174 31.8248 130.471 31.7 130.711 31.5272C130.951 31.3543 131.143 31.1287 131.287 30.8502C131.431 30.5622 131.551 30.2069 131.647 29.7845H132.195L131.979 32.6217H123.035V32.0744C123.371 32.0648 123.64 32.036 123.841 31.988C124.053 31.94 124.216 31.8584 124.331 31.7432C124.446 31.628 124.523 31.4647 124.561 31.2535C124.6 31.0423 124.619 30.7686 124.619 30.4326V23.7211C124.619 23.385 124.6 23.1162 124.561 22.9146C124.533 22.7033 124.465 22.5401 124.36 22.4249C124.264 22.3001 124.12 22.2185 123.928 22.18C123.736 22.132 123.486 22.0984 123.179 22.0792V21.5319H131.503L131.633 24.0667H131.129C131.071 23.6827 130.975 23.3706 130.841 23.1306C130.716 22.881 130.538 22.6841 130.308 22.5401C130.087 22.3961 129.804 22.2953 129.458 22.2377C129.113 22.18 128.695 22.1512 128.205 22.1512H126.376C126.213 22.1512 126.131 22.2329 126.131 22.3961V26.5295ZM146.663 24.3116C146.663 25.0797 146.433 25.7182 145.972 26.2271C145.511 26.736 144.776 27.0768 143.768 27.2497L146.951 31.0807C147.21 31.3975 147.494 31.628 147.801 31.772C148.118 31.9064 148.492 32.0072 148.924 32.0744V32.6217H146.145L142.616 28.0994C142.491 27.9362 142.371 27.8066 142.256 27.7105C142.15 27.6145 142.035 27.5425 141.91 27.4945C141.795 27.4369 141.656 27.4033 141.493 27.3937C141.339 27.3745 141.152 27.3649 140.931 27.3649V30.3606C140.931 30.7158 140.95 31.0087 140.989 31.2391C141.037 31.4599 141.128 31.6328 141.262 31.7576C141.406 31.8824 141.608 31.9688 141.867 32.0168C142.136 32.0552 142.486 32.0744 142.918 32.0744V32.6217H137.834V32.0744C138.171 32.0648 138.439 32.036 138.641 31.988C138.852 31.94 139.015 31.8584 139.131 31.7432C139.246 31.628 139.323 31.4647 139.361 31.2535C139.4 31.0423 139.419 30.7686 139.419 30.4326V23.7211C139.419 23.385 139.4 23.1162 139.361 22.9146C139.332 22.7033 139.265 22.5401 139.159 22.4249C139.063 22.3001 138.919 22.2185 138.727 22.18C138.535 22.132 138.286 22.0984 137.978 22.0792V21.5319H142.501C143.826 21.5319 144.848 21.7768 145.569 22.2665C146.298 22.7561 146.663 23.4378 146.663 24.3116ZM140.931 26.6448H141.954C142.914 26.6448 143.624 26.4719 144.085 26.1263C144.556 25.771 144.791 25.1901 144.791 24.3836C144.791 23.6059 144.604 23.049 144.229 22.7129C143.864 22.3769 143.288 22.2088 142.501 22.2088H141.176C141.013 22.2088 140.931 22.2905 140.931 22.4537V26.6448ZM159.914 28.6035H156.069C155.906 28.9971 155.767 29.3476 155.651 29.6549C155.536 29.9525 155.44 30.2117 155.363 30.4326C155.296 30.6534 155.248 30.8406 155.219 30.9943C155.191 31.1479 155.176 31.2727 155.176 31.3687C155.176 31.6376 155.263 31.8248 155.435 31.9304C155.608 32.0264 155.896 32.0744 156.299 32.0744V32.6217H152.8V32.0744C153.021 32.0456 153.208 32.0072 153.361 31.9592C153.525 31.9112 153.664 31.844 153.779 31.7576C153.904 31.6712 154.01 31.5608 154.096 31.4263C154.192 31.2823 154.283 31.1095 154.37 30.9079L158.114 21.5319H158.733L162.003 29.6549C162.224 30.1925 162.416 30.6246 162.579 30.9511C162.742 31.2679 162.901 31.508 163.054 31.6712C163.208 31.8344 163.371 31.94 163.544 31.988C163.726 32.036 163.942 32.06 164.192 32.06V32.6217H159.497V32.06C160.006 32.06 160.356 32.012 160.548 31.916C160.74 31.82 160.836 31.6616 160.836 31.4407C160.836 31.3447 160.831 31.2583 160.822 31.1815C160.812 31.0951 160.793 31.0039 160.764 30.9079C160.745 30.8118 160.711 30.7062 160.663 30.591C160.625 30.4662 160.572 30.3222 160.505 30.1589L159.914 28.6035ZM156.357 27.8834H159.641L158.042 23.6347L156.357 27.8834ZM177.838 24.3116C177.838 24.8205 177.756 25.2765 177.593 25.6798C177.43 26.0831 177.17 26.4239 176.815 26.7024C176.469 26.9808 176.013 27.1969 175.447 27.3505C174.89 27.5041 174.208 27.5809 173.402 27.5809H172.105V30.3606C172.105 30.7158 172.125 31.0087 172.163 31.2391C172.211 31.4599 172.302 31.6328 172.437 31.7576C172.581 31.8824 172.782 31.9688 173.042 32.0168C173.31 32.0552 173.661 32.0744 174.093 32.0744V32.6217H169.009V32.0744C169.345 32.0648 169.614 32.036 169.816 31.988C170.027 31.94 170.19 31.8584 170.305 31.7432C170.42 31.628 170.497 31.4647 170.536 31.2535C170.574 31.0423 170.593 30.7686 170.593 30.4326V23.7211C170.593 23.385 170.574 23.1162 170.536 22.9146C170.507 22.7033 170.44 22.5401 170.334 22.4249C170.238 22.3001 170.094 22.2185 169.902 22.18C169.71 22.132 169.46 22.0984 169.153 22.0792V21.5319H173.675C175 21.5319 176.023 21.7768 176.743 22.2665C177.473 22.7561 177.838 23.4378 177.838 24.3116ZM172.105 26.8608H173.128C174.088 26.8608 174.799 26.6784 175.26 26.3135C175.73 25.9391 175.965 25.3294 175.965 24.4844C175.965 23.6683 175.778 23.0874 175.404 22.7417C175.039 22.3865 174.463 22.2088 173.675 22.2088H172.35C172.187 22.2088 172.105 22.2905 172.105 22.4537V26.8608ZM184.24 23.3178C184.096 23.0682 183.961 22.8666 183.837 22.7129C183.712 22.5497 183.582 22.4201 183.448 22.3241C183.323 22.2281 183.188 22.1656 183.044 22.1368C182.9 22.0984 182.728 22.0792 182.526 22.0792V21.5319H187.063V22.0792C186.583 22.0792 186.242 22.1176 186.04 22.1944C185.848 22.2617 185.752 22.3865 185.752 22.5689C185.752 22.7705 185.862 23.0586 186.083 23.433L188.316 27.2497H188.373L190.001 24.5132C190.308 23.9947 190.524 23.5867 190.649 23.289C190.783 22.9914 190.85 22.7513 190.85 22.5689C190.85 22.3865 190.778 22.2617 190.634 22.1944C190.5 22.1176 190.26 22.0792 189.914 22.0792V21.5319H193.212V22.0792C193.011 22.0792 192.828 22.108 192.665 22.1656C192.512 22.2233 192.348 22.3385 192.175 22.5113C192.003 22.6841 191.811 22.9242 191.599 23.2314C191.398 23.5387 191.148 23.9419 190.85 24.4412L188.633 28.1858V29.8997C188.633 30.3702 188.647 30.7494 188.676 31.0375C188.714 31.3159 188.786 31.532 188.892 31.6856C189.007 31.8392 189.165 31.9448 189.367 32.0024C189.578 32.0504 189.857 32.0744 190.202 32.0744V32.6217H185.536V32.0744C185.882 32.0744 186.155 32.0504 186.357 32.0024C186.568 31.9448 186.727 31.844 186.832 31.7C186.947 31.5464 187.024 31.3351 187.063 31.0663C187.101 30.7974 187.12 30.4422 187.12 30.0005V28.2434L184.24 23.3178Z" fill="#353535"/>
<path d="M8.89385 11.6443H4.81799C4.36672 12.662 4.14108 13.3677 4.14108 13.7614C4.14108 14.0494 4.2467 14.2319 4.45793 14.3087C4.67877 14.3855 5.00522 14.4239 5.43729 14.4239V15H1.49105V14.4239C1.72149 14.3951 1.91832 14.3567 2.08155 14.3087C2.25438 14.2607 2.4032 14.1935 2.52802 14.1071C2.66244 14.0206 2.77766 13.9102 2.87368 13.7758C2.96969 13.6318 3.06091 13.459 3.14732 13.2573L6.93513 3.76618H8.00091L11.4431 12.1771C11.6447 12.6668 11.8127 13.0509 11.9471 13.3293C12.0912 13.6078 12.24 13.8238 12.3936 13.9774C12.5568 14.1215 12.7393 14.2223 12.9409 14.2799C13.1521 14.3375 13.421 14.3807 13.7474 14.4095V15H8.30336V14.4095C8.76423 14.3903 9.09548 14.3423 9.29712 14.2655C9.49875 14.1887 9.59957 14.035 9.59957 13.8046C9.59957 13.6702 9.56596 13.4974 9.49875 13.2861C9.43154 13.0749 9.34032 12.8156 9.22511 12.5084L8.89385 11.6443ZM5.14925 10.7801H8.577L6.92073 6.41621H6.86312L5.14925 10.7801ZM28.2879 15H18.3647V14.4239C18.6816 14.4143 18.9408 14.3855 19.1425 14.3375C19.3441 14.2895 19.4977 14.2079 19.6033 14.0927C19.709 13.9774 19.781 13.8142 19.8194 13.603C19.8578 13.3917 19.877 13.1181 19.877 12.782V6.12816C19.877 5.79211 19.8578 5.52327 19.8194 5.32163C19.7906 5.1104 19.7282 4.94717 19.6321 4.83195C19.5361 4.70713 19.3969 4.62552 19.2145 4.58711C19.0416 4.53911 18.8112 4.5055 18.5232 4.4863V3.91021H23.492V4.4863C23.1655 4.4959 22.9015 4.5247 22.6998 4.57271C22.5078 4.62072 22.359 4.70713 22.2534 4.83195C22.1477 4.95677 22.0757 5.1296 22.0373 5.35044C22.0085 5.57127 21.9941 5.86412 21.9941 6.22898V12.2636C21.9941 12.6668 22.0325 12.9981 22.1093 13.2573C22.1958 13.507 22.3398 13.7038 22.5414 13.8478C22.743 13.9822 23.0119 14.0783 23.3479 14.1359C23.684 14.1839 24.1017 14.2079 24.6009 14.2079C25.1578 14.2079 25.6235 14.1743 25.998 14.1071C26.3724 14.0398 26.6845 13.915 26.9341 13.7326C27.1934 13.5406 27.3998 13.2861 27.5534 12.9693C27.707 12.6524 27.8367 12.2396 27.9423 11.7307H28.5184L28.2879 15ZM38.9296 15H33.7879V14.4239C34.1144 14.4143 34.3736 14.3855 34.5657 14.3375C34.7673 14.2799 34.9209 14.1791 35.0265 14.035C35.1322 13.891 35.2042 13.6894 35.2426 13.4301C35.281 13.1613 35.3002 12.8012 35.3002 12.35V6.56023C35.3002 6.15697 35.281 5.82572 35.2426 5.56647C35.2138 5.29763 35.1514 5.0864 35.0553 4.93277C34.9593 4.77915 34.8201 4.67353 34.6377 4.61592C34.4649 4.54871 34.2296 4.5055 33.932 4.4863V3.91021H38.7856V4.4863C38.4879 4.5055 38.2479 4.54871 38.0654 4.61592C37.8926 4.67353 37.7582 4.77915 37.6622 4.93277C37.5662 5.0864 37.4989 5.29763 37.4605 5.56647C37.4317 5.82572 37.4173 6.15697 37.4173 6.56023V12.35C37.4173 12.8012 37.4317 13.1613 37.4605 13.4301C37.4989 13.6894 37.571 13.891 37.6766 14.035C37.7918 14.1791 37.9454 14.2799 38.1374 14.3375C38.3391 14.3855 38.6031 14.4143 38.9296 14.4239V15ZM44.7584 11.3274H45.32C45.4545 12.2396 45.8193 12.9597 46.4146 13.4878C47.0099 14.0062 47.7444 14.2655 48.6182 14.2655C48.9734 14.2655 49.2999 14.2223 49.5975 14.1359C49.8952 14.0494 50.1496 13.9294 50.3609 13.7758C50.5721 13.6126 50.7353 13.4253 50.8505 13.2141C50.9658 12.9933 51.0234 12.7484 51.0234 12.4796C51.0234 12.2492 50.985 12.0523 50.9082 11.8891C50.8409 11.7163 50.7065 11.553 50.5049 11.3994C50.3033 11.2362 50.0248 11.073 49.6695 10.9097C49.3239 10.7465 48.8726 10.5593 48.3157 10.348C47.1923 9.91598 46.3618 9.4167 45.8241 8.8502C45.2864 8.27411 45.0176 7.5972 45.0176 6.81948C45.0176 6.3682 45.104 5.95534 45.2768 5.58088C45.4497 5.20641 45.6897 4.88476 45.997 4.61592C46.3138 4.34708 46.6883 4.14064 47.1203 3.99662C47.562 3.84299 48.0469 3.76618 48.575 3.76618C49.0647 3.76618 49.5255 3.84299 49.9576 3.99662C50.3897 4.15024 50.8169 4.38068 51.2394 4.68793L51.4986 3.96781H51.8443L52.0027 7.07872H51.441C51.2106 6.29139 50.8505 5.69129 50.3609 5.27843C49.8712 4.85596 49.3047 4.64472 48.6614 4.64472C48.0661 4.64472 47.5812 4.79355 47.2068 5.0912C46.8419 5.37924 46.6595 5.7537 46.6595 6.21458C46.6595 6.41621 46.6931 6.59864 46.7603 6.76187C46.8275 6.91549 46.9523 7.06432 47.1347 7.20834C47.3172 7.35236 47.5668 7.50119 47.8837 7.65481C48.2005 7.79883 48.6086 7.96206 49.1079 8.14449C49.78 8.40373 50.3513 8.66777 50.8217 8.93662C51.3018 9.19586 51.6907 9.47911 51.9883 9.78636C52.2956 10.084 52.5212 10.4009 52.6652 10.7369C52.8093 11.073 52.8813 11.4426 52.8813 11.8459C52.8813 12.3356 52.7757 12.782 52.5644 13.1853C52.3532 13.5886 52.0555 13.9342 51.6715 14.2223C51.297 14.5103 50.8457 14.736 50.3177 14.8992C49.7992 15.0624 49.2231 15.144 48.5894 15.144C48.0133 15.144 47.4948 15.0672 47.0339 14.9136C46.573 14.7504 46.0978 14.4911 45.6081 14.1359L45.32 15H44.9744L44.7584 11.3274ZM64.8652 3.76618C65.7294 3.76618 66.5359 3.91501 67.2848 4.21265C68.0338 4.5103 68.6819 4.91837 69.2292 5.43685C69.786 5.95534 70.2229 6.56504 70.5398 7.26595C70.8566 7.96686 71.015 8.72538 71.015 9.54152C71.015 10.3192 70.8518 11.049 70.5254 11.7307C70.2085 12.4124 69.7716 13.0077 69.2147 13.5166C68.6675 14.0158 68.0194 14.4143 67.2704 14.712C66.5215 15 65.7198 15.144 64.8652 15.144C64.0107 15.144 63.209 15 62.4601 14.712C61.7111 14.4143 61.0582 14.0158 60.5013 13.5166C59.9444 13.0077 59.5076 12.4124 59.1907 11.7307C58.8739 11.049 58.7154 10.3192 58.7154 9.54152C58.7154 8.72538 58.8739 7.96686 59.1907 7.26595C59.5076 6.56504 59.9396 5.95534 60.4869 5.43685C61.0438 4.91837 61.6967 4.5103 62.4457 4.21265C63.1946 3.91501 64.0011 3.76618 64.8652 3.76618ZM64.8652 14.2079C65.4221 14.2079 65.9262 14.1023 66.3775 13.891C66.8288 13.6702 67.2128 13.3629 67.5297 12.9693C67.8465 12.566 68.0866 12.0811 68.2498 11.5146C68.4226 10.9385 68.509 10.2952 68.509 9.58472C68.509 8.8358 68.4226 8.16369 68.2498 7.5684C68.0866 6.9635 67.8465 6.44982 67.5297 6.02735C67.2128 5.59528 66.8288 5.26882 66.3775 5.04799C65.9262 4.81755 65.4221 4.70233 64.8652 4.70233C64.2988 4.70233 63.7899 4.81755 63.3386 5.04799C62.8969 5.26882 62.5177 5.59528 62.2008 6.02735C61.884 6.44982 61.6391 6.9635 61.4663 7.5684C61.3031 8.16369 61.2215 8.8358 61.2215 9.58472C61.2215 10.2952 61.3031 10.9385 61.4663 11.5146C61.6391 12.0811 61.884 12.566 62.2008 12.9693C62.5177 13.3629 62.8969 13.6702 63.3386 13.891C63.7899 14.1023 64.2988 14.2079 64.8652 14.2079ZM85.6574 15.144L79.2771 6.05615H79.2195V12.2492C79.2195 12.7292 79.2339 13.1085 79.2627 13.3869C79.3011 13.6654 79.3732 13.8814 79.4788 14.035C79.594 14.1887 79.7476 14.2895 79.9396 14.3375C80.1413 14.3855 80.4005 14.4143 80.7174 14.4239V15H76.4399V14.4239C76.7951 14.4143 77.0784 14.3855 77.2896 14.3375C77.5105 14.2799 77.6785 14.1791 77.7937 14.035C77.9185 13.891 78.0001 13.6894 78.0385 13.4301C78.0769 13.1613 78.0962 12.8012 78.0962 12.35V6.56023C78.0962 6.15697 78.0769 5.82572 78.0385 5.56647C78.0001 5.29763 77.9281 5.0864 77.8225 4.93277C77.7169 4.77915 77.5633 4.67353 77.3616 4.61592C77.1696 4.54871 76.9104 4.5055 76.5839 4.4863V3.91021H80.6022L86.4063 12.2348H86.4639V6.66105C86.4639 6.19057 86.4447 5.81611 86.4063 5.53767C86.3775 5.24962 86.3055 5.02879 86.1903 4.87516C86.0846 4.72154 85.931 4.62072 85.7294 4.57271C85.5374 4.5247 85.2829 4.4959 84.9661 4.4863V3.91021H89.2436V4.4863C88.8883 4.4959 88.6003 4.52951 88.3794 4.58711C88.1682 4.63512 88.0002 4.73114 87.8753 4.87516C87.7601 5.01918 87.6833 5.22562 87.6449 5.49446C87.6065 5.76331 87.5873 6.11856 87.5873 6.56023V15.144H85.6574ZM103.229 11.3274H103.791C103.925 12.2396 104.29 12.9597 104.885 13.4878C105.481 14.0062 106.215 14.2655 107.089 14.2655C107.444 14.2655 107.771 14.2223 108.068 14.1359C108.366 14.0494 108.62 13.9294 108.832 13.7758C109.043 13.6126 109.206 13.4253 109.321 13.2141C109.436 12.9933 109.494 12.7484 109.494 12.4796C109.494 12.2492 109.456 12.0523 109.379 11.8891C109.312 11.7163 109.177 11.553 108.976 11.3994C108.774 11.2362 108.495 11.073 108.14 10.9097C107.795 10.7465 107.343 10.5593 106.786 10.348C105.663 9.91598 104.832 9.4167 104.295 8.8502C103.757 8.27411 103.488 7.5972 103.488 6.81948C103.488 6.3682 103.575 5.95534 103.747 5.58088C103.92 5.20641 104.16 4.88476 104.468 4.61592C104.784 4.34708 105.159 4.14064 105.591 3.99662C106.033 3.84299 106.518 3.76618 107.046 3.76618C107.535 3.76618 107.996 3.84299 108.428 3.99662C108.86 4.15024 109.288 4.38068 109.71 4.68793L109.969 3.96781H110.315L110.473 7.07872H109.912C109.681 6.29139 109.321 5.69129 108.832 5.27843C108.342 4.85596 107.775 4.64472 107.132 4.64472C106.537 4.64472 106.052 4.79355 105.677 5.0912C105.313 5.37924 105.13 5.7537 105.13 6.21458C105.13 6.41621 105.164 6.59864 105.231 6.76187C105.298 6.91549 105.423 7.06432 105.605 7.20834C105.788 7.35236 106.037 7.50119 106.354 7.65481C106.671 7.79883 107.079 7.96206 107.579 8.14449C108.251 8.40373 108.822 8.66777 109.292 8.93662C109.772 9.19586 110.161 9.47911 110.459 9.78636C110.766 10.084 110.992 10.4009 111.136 10.7369C111.28 11.073 111.352 11.4426 111.352 11.8459C111.352 12.3356 111.246 12.782 111.035 13.1853C110.824 13.5886 110.526 13.9342 110.142 14.2223C109.768 14.5103 109.316 14.736 108.788 14.8992C108.27 15.0624 107.694 15.144 107.06 15.144C106.484 15.144 105.965 15.0672 105.505 14.9136C105.044 14.7504 104.568 14.4911 104.079 14.1359L103.791 15H103.445L103.229 11.3274ZM128.163 7.07872H127.544C127.515 6.60824 127.443 6.21938 127.328 5.91213C127.222 5.59528 127.069 5.34564 126.867 5.16321C126.666 4.97118 126.421 4.84156 126.133 4.77434C125.845 4.69753 125.509 4.65913 125.124 4.65913C124.75 4.65913 124.448 4.66873 124.217 4.68793C123.996 4.69753 123.823 4.72154 123.699 4.75994C123.583 4.78875 123.507 4.83195 123.468 4.88956C123.43 4.94717 123.411 5.01918 123.411 5.1056V12.6524C123.411 12.9597 123.43 13.2237 123.468 13.4445C123.516 13.6654 123.607 13.8478 123.742 13.9918C123.876 14.1263 124.073 14.2319 124.332 14.3087C124.592 14.3759 124.932 14.4143 125.355 14.4239V15H119.32V14.4239C119.752 14.4143 120.098 14.3759 120.357 14.3087C120.617 14.2319 120.813 14.1263 120.948 13.9918C121.092 13.8478 121.183 13.6654 121.221 13.4445C121.269 13.2237 121.293 12.9597 121.293 12.6524V5.1056C121.293 5.01918 121.274 4.94717 121.236 4.88956C121.207 4.83195 121.14 4.78875 121.034 4.75994C120.929 4.72154 120.775 4.69753 120.573 4.68793C120.381 4.66873 120.127 4.65913 119.81 4.65913C119.464 4.65913 119.133 4.67833 118.816 4.71674C118.499 4.74554 118.221 4.84156 117.981 5.00478C117.741 5.15841 117.544 5.39845 117.39 5.7249C117.246 6.04175 117.17 6.49302 117.16 7.07872H116.598L116.742 3.91021H128.019L128.163 7.07872ZM143.778 10.5353C143.778 11.3514 143.686 12.0523 143.504 12.638C143.331 13.2141 143.058 13.6894 142.683 14.0638C142.309 14.4383 141.824 14.712 141.228 14.8848C140.643 15.0576 139.937 15.144 139.111 15.144C137.565 15.144 136.432 14.8224 135.712 14.1791C135.002 13.5262 134.647 12.4892 134.647 11.0682V7.12192C134.647 6.74746 134.642 6.43541 134.632 6.18577C134.623 5.92653 134.608 5.7105 134.589 5.53767C134.57 5.36484 134.541 5.22562 134.503 5.12C134.474 5.00478 134.435 4.90877 134.387 4.83195C134.301 4.69753 134.176 4.60632 134.013 4.55831C133.85 4.5103 133.6 4.4863 133.264 4.4863V3.91021H138.434V4.4863C138.031 4.4863 137.733 4.5103 137.541 4.55831C137.349 4.59672 137.201 4.67833 137.095 4.80315C137.028 4.87996 136.97 4.97598 136.922 5.0912C136.884 5.19681 136.85 5.34084 136.821 5.52327C136.802 5.69609 136.788 5.91213 136.778 6.17137C136.769 6.43061 136.764 6.74746 136.764 7.12192V10.8953C136.764 11.9899 136.994 12.8012 137.455 13.3293C137.925 13.8478 138.646 14.1071 139.615 14.1071C141.593 14.1071 142.582 13.0077 142.582 10.8089V7.48198C142.582 7.07872 142.573 6.73306 142.553 6.44502C142.544 6.15697 142.52 5.91213 142.481 5.7105C142.453 5.50886 142.409 5.34084 142.352 5.20642C142.304 5.07199 142.241 4.96158 142.165 4.87516C142.03 4.74074 141.857 4.64472 141.646 4.58711C141.435 4.5199 141.142 4.4863 140.768 4.4863V3.91021H145.434V4.4863C145.079 4.4863 144.805 4.5151 144.613 4.57271C144.421 4.62072 144.272 4.71193 144.167 4.84636C144.09 4.93277 144.027 5.04799 143.979 5.19201C143.931 5.32643 143.893 5.49926 143.864 5.7105C143.835 5.91213 143.811 6.15697 143.792 6.44502C143.782 6.73306 143.778 7.07872 143.778 7.48198V10.5353ZM156.681 11.6443H152.605C152.154 12.662 151.928 13.3677 151.928 13.7614C151.928 14.0494 152.034 14.2319 152.245 14.3087C152.466 14.3855 152.792 14.4239 153.224 14.4239V15H149.278V14.4239C149.509 14.3951 149.705 14.3567 149.869 14.3087C150.041 14.2607 150.19 14.1935 150.315 14.1071C150.449 14.0206 150.565 13.9102 150.661 13.7758C150.757 13.6318 150.848 13.459 150.934 13.2573L154.722 3.76618H155.788L159.23 12.1771C159.432 12.6668 159.6 13.0509 159.734 13.3293C159.878 13.6078 160.027 13.8238 160.181 13.9774C160.344 14.1215 160.526 14.2223 160.728 14.2799C160.939 14.3375 161.208 14.3807 161.534 14.4095V15H156.09V14.4095C156.551 14.3903 156.883 14.3423 157.084 14.2655C157.286 14.1887 157.387 14.035 157.387 13.8046C157.387 13.6702 157.353 13.4974 157.286 13.2861C157.219 13.0749 157.127 12.8156 157.012 12.5084L156.681 11.6443ZM152.936 10.7801H156.364L154.708 6.41621H154.65L152.936 10.7801ZM175.657 6.68986C175.657 7.48678 175.427 8.15409 174.966 8.69178C174.505 9.22947 173.771 9.58952 172.762 9.77195L176.104 13.603C176.334 13.8718 176.608 14.0783 176.925 14.2223C177.242 14.3567 177.563 14.4239 177.89 14.4239V15H174.476L170.905 10.6217C170.665 10.3336 170.453 10.1416 170.271 10.0456C170.098 9.93998 169.935 9.88717 169.781 9.88717V12.71C169.781 13.0653 169.805 13.3581 169.853 13.5886C169.901 13.8094 169.997 13.9822 170.141 14.1071C170.285 14.2319 170.492 14.3183 170.761 14.3663C171.039 14.4047 171.409 14.4239 171.869 14.4239V15H166.152V14.4239C166.469 14.4239 166.723 14.4047 166.915 14.3663C167.117 14.3183 167.27 14.2367 167.376 14.1215C167.491 13.9966 167.568 13.8286 167.606 13.6174C167.645 13.3965 167.664 13.1181 167.664 12.782V6.12816C167.664 5.79211 167.65 5.52327 167.621 5.32163C167.592 5.1104 167.53 4.94717 167.434 4.83195C167.338 4.70713 167.198 4.62552 167.016 4.58711C166.843 4.53911 166.608 4.5055 166.31 4.4863V3.91021H171.293C172.686 3.91021 173.761 4.15504 174.52 4.64472C175.278 5.1344 175.657 5.81611 175.657 6.68986ZM169.781 9.02303H170.717C171.62 9.02303 172.292 8.8502 172.734 8.50455C173.185 8.14929 173.411 7.5684 173.411 6.76187C173.411 6.14737 173.223 5.65289 172.849 5.27843C172.474 4.90397 171.956 4.71674 171.293 4.71674H170.04C169.868 4.71674 169.781 4.79835 169.781 4.96158V9.02303ZM193.315 7.07872H192.695C192.667 6.60824 192.595 6.21938 192.479 5.91213C192.374 5.59528 192.22 5.34564 192.019 5.16321C191.817 4.97118 191.572 4.84156 191.284 4.77434C190.996 4.69753 190.66 4.65913 190.276 4.65913C189.901 4.65913 189.599 4.66873 189.369 4.68793C189.148 4.69753 188.975 4.72154 188.85 4.75994C188.735 4.78875 188.658 4.83195 188.62 4.88956C188.581 4.94717 188.562 5.01918 188.562 5.1056V12.6524C188.562 12.9597 188.581 13.2237 188.62 13.4445C188.668 13.6654 188.759 13.8478 188.893 13.9918C189.028 14.1263 189.225 14.2319 189.484 14.3087C189.743 14.3759 190.084 14.4143 190.506 14.4239V15H184.472V14.4239C184.904 14.4143 185.249 14.3759 185.509 14.3087C185.768 14.2319 185.965 14.1263 186.099 13.9918C186.243 13.8478 186.334 13.6654 186.373 13.4445C186.421 13.2237 186.445 12.9597 186.445 12.6524V5.1056C186.445 5.01918 186.426 4.94717 186.387 4.88956C186.358 4.83195 186.291 4.78875 186.186 4.75994C186.08 4.72154 185.926 4.69753 185.725 4.68793C185.533 4.66873 185.278 4.65913 184.961 4.65913C184.616 4.65913 184.285 4.67833 183.968 4.71674C183.651 4.74554 183.372 4.84156 183.132 5.00478C182.892 5.15841 182.695 5.39845 182.542 5.7249C182.398 6.04175 182.321 6.49302 182.311 7.07872H181.75L181.894 3.91021H193.171L193.315 7.07872Z" fill="#353535"/>
</svg>
