<svg width="138" height="26" viewBox="0 0 138 26" fill="none" xmlns="http://www.w3.org/2000/svg">
<path d="M11.9482 7.89359L13.5682 3.26159C13.7602 2.72559 13.8562 2.32559 13.8562 2.06159C13.8562 1.81359 13.7682 1.65359 13.5922 1.58159C13.4242 1.50159 13.1602 1.46159 12.8002 1.46159V0.981588H16.2082V1.46159C15.9042 1.46159 15.6282 1.53759 15.3802 1.68959C15.1402 1.83359 14.9562 2.08159 14.8282 2.43359L11.9362 10.3416H10.8682L8.7802 4.00559L6.4042 10.3416H5.4082L2.8642 3.33359C2.7122 2.92559 2.5722 2.59759 2.4442 2.34959C2.3162 2.10159 2.1802 1.91359 2.0362 1.78559C1.8922 1.65759 1.7362 1.57359 1.5682 1.53359C1.4002 1.49359 1.2002 1.47359 0.968199 1.47359V0.981588H5.5042V1.47359C5.0962 1.47359 4.8162 1.51359 4.6642 1.59359C4.5122 1.66559 4.4362 1.78959 4.4362 1.96559C4.4362 2.02959 4.4402 2.09359 4.4482 2.15759C4.4562 2.21359 4.4722 2.28159 4.4962 2.36159C4.5202 2.43359 4.5482 2.52559 4.5802 2.63759C4.6202 2.74959 4.6722 2.88959 4.7362 3.05759L6.4162 7.89359L8.3602 2.58959C8.2802 2.37359 8.2002 2.19759 8.1202 2.06159C8.0402 1.92559 7.9442 1.81759 7.8322 1.73759C7.7282 1.65759 7.6082 1.60159 7.4722 1.56959C7.3362 1.52959 7.1722 1.49759 6.9802 1.47359V0.981588H11.2162V1.47359C10.8802 1.47359 10.6322 1.51759 10.4722 1.60559C10.3122 1.68559 10.2322 1.84559 10.2322 2.08559C10.2322 2.20559 10.2482 2.34559 10.2802 2.50559C10.3202 2.66559 10.3722 2.84959 10.4362 3.05759L11.9482 7.89359ZM23.0669 5.10959C23.5789 5.10959 23.9909 5.09359 24.3029 5.06159C24.6149 5.02959 24.8549 4.96559 25.0229 4.86959C25.1989 4.76559 25.323 4.61759 25.395 4.42559C25.4669 4.23359 25.5229 3.97359 25.563 3.64559H26.0069V7.16159H25.563C25.5149 6.84159 25.4509 6.58559 25.3709 6.39359C25.2909 6.20159 25.1629 6.05759 24.9869 5.96159C24.8109 5.85759 24.5709 5.79359 24.2669 5.76959C23.9709 5.73759 23.5709 5.72159 23.0669 5.72159V8.19359C23.0669 8.44959 23.0989 8.66559 23.1629 8.84159C23.2349 9.01759 23.3509 9.16159 23.5109 9.27359C23.6709 9.37759 23.8829 9.45359 24.1469 9.50159C24.4109 9.54159 24.7349 9.56159 25.119 9.56159C25.575 9.56159 25.959 9.52959 26.2709 9.46559C26.591 9.40159 26.8549 9.28959 27.0629 9.12959C27.2709 8.96959 27.439 8.75759 27.567 8.49359C27.695 8.22159 27.8029 7.88159 27.8909 7.47359H28.3709L28.179 10.2216H20.0429V9.74159C20.3069 9.73359 20.5229 9.70959 20.6909 9.66959C20.8589 9.62959 20.9869 9.56159 21.0749 9.46559C21.1629 9.36959 21.2229 9.23359 21.2549 9.05759C21.2869 8.88159 21.3029 8.65359 21.3029 8.37359V2.82959C21.3029 2.54959 21.2869 2.32559 21.2549 2.15759C21.2309 1.98159 21.1789 1.84559 21.0989 1.74959C21.0189 1.64559 20.9029 1.57759 20.7509 1.54559C20.6069 1.50559 20.4149 1.47759 20.1749 1.46159V0.981588H27.7589L27.843 3.33359H27.3269C27.2789 2.99759 27.203 2.72159 27.0989 2.50559C26.9949 2.28159 26.8509 2.10559 26.6669 1.97759C26.4829 1.84159 26.2429 1.74959 25.9469 1.70159C25.6589 1.64559 25.3029 1.61759 24.8789 1.61759H23.5229C23.3149 1.61759 23.1869 1.64559 23.1389 1.70159C23.0909 1.74959 23.0669 1.86959 23.0669 2.06159V5.10959ZM41.075 10.2216H32.807V9.74159C33.071 9.73359 33.287 9.70959 33.455 9.66959C33.623 9.62959 33.751 9.56159 33.839 9.46559C33.927 9.36959 33.987 9.23359 34.019 9.05759C34.051 8.88159 34.067 8.65359 34.067 8.37359V2.82959C34.067 2.54959 34.051 2.32559 34.019 2.15759C33.995 1.98159 33.943 1.84559 33.863 1.74959C33.783 1.64559 33.667 1.57759 33.515 1.54559C33.371 1.50559 33.179 1.47759 32.939 1.46159V0.981588H37.079V1.46159C36.807 1.46959 36.587 1.49359 36.419 1.53359C36.259 1.57359 36.135 1.64559 36.047 1.74959C35.959 1.85359 35.899 1.99759 35.867 2.18159C35.843 2.36559 35.831 2.60959 35.831 2.91359V7.94159C35.831 8.27759 35.863 8.55359 35.927 8.76959C35.999 8.97759 36.119 9.14159 36.287 9.26159C36.455 9.37359 36.679 9.45359 36.959 9.50159C37.239 9.54159 37.587 9.56159 38.003 9.56159C38.467 9.56159 38.855 9.53359 39.167 9.47759C39.479 9.42159 39.739 9.31759 39.947 9.16559C40.163 9.00559 40.335 8.79359 40.463 8.52959C40.591 8.26559 40.699 7.92159 40.787 7.49759H41.267L41.075 10.2216ZM53.7336 10.2216H45.4656V9.74159C45.7296 9.73359 45.9456 9.70959 46.1136 9.66959C46.2816 9.62959 46.4096 9.56159 46.4976 9.46559C46.5856 9.36959 46.6456 9.23359 46.6776 9.05759C46.7096 8.88159 46.7256 8.65359 46.7256 8.37359V2.82959C46.7256 2.54959 46.7096 2.32559 46.6776 2.15759C46.6536 1.98159 46.6016 1.84559 46.5216 1.74959C46.4416 1.64559 46.3256 1.57759 46.1736 1.54559C46.0296 1.50559 45.8376 1.47759 45.5976 1.46159V0.981588H49.7376V1.46159C49.4656 1.46959 49.2456 1.49359 49.0776 1.53359C48.9176 1.57359 48.7936 1.64559 48.7056 1.74959C48.6176 1.85359 48.5576 1.99759 48.5256 2.18159C48.5016 2.36559 48.4896 2.60959 48.4896 2.91359V7.94159C48.4896 8.27759 48.5216 8.55359 48.5856 8.76959C48.6576 8.97759 48.7776 9.14159 48.9456 9.26159C49.1136 9.37359 49.3376 9.45359 49.6176 9.50159C49.8976 9.54159 50.2456 9.56159 50.6616 9.56159C51.1256 9.56159 51.5136 9.53359 51.8256 9.47759C52.1376 9.42159 52.3976 9.31759 52.6056 9.16559C52.8216 9.00559 52.9936 8.79359 53.1216 8.52959C53.2496 8.26559 53.3576 7.92159 53.4456 7.49759H53.9256L53.7336 10.2216ZM64.6762 7.97759L67.4482 0.981588H70.9522V1.46159C70.6882 1.46159 70.4722 1.48959 70.3042 1.54559C70.1442 1.59359 70.0202 1.68559 69.9322 1.82159C69.8442 1.95759 69.7842 2.14559 69.7522 2.38559C69.7282 2.61759 69.7162 2.91359 69.7162 3.27359V7.92959C69.7162 8.32959 69.7322 8.64559 69.7642 8.87759C69.7962 9.10959 69.8602 9.28959 69.9562 9.41759C70.0522 9.54559 70.1882 9.62959 70.3642 9.66959C70.5482 9.70959 70.7882 9.73359 71.0842 9.74159V10.2216H66.5722V9.74159C66.8682 9.73359 67.1042 9.70959 67.2802 9.66959C67.4642 9.62159 67.6042 9.53759 67.7002 9.41759C67.8042 9.29759 67.8722 9.12959 67.9042 8.91359C67.9362 8.68959 67.9522 8.38959 67.9522 8.01359V2.39759H67.8922L64.6642 10.3416H63.7762L60.4402 2.39759H60.3922V7.92959C60.3922 8.32959 60.4082 8.64559 60.4402 8.87759C60.4722 9.10959 60.5362 9.28959 60.6322 9.41759C60.7282 9.54559 60.8642 9.62959 61.0402 9.66959C61.2242 9.70959 61.4642 9.73359 61.7602 9.74159V10.2216H58.0642V9.74159C58.3602 9.73359 58.6002 9.70959 58.7842 9.66959C58.9682 9.62159 59.1082 9.53759 59.2042 9.41759C59.3082 9.29759 59.3762 9.12959 59.4082 8.91359C59.4402 8.68959 59.4562 8.38959 59.4562 8.01359V3.18959C59.4562 2.85359 59.4402 2.57359 59.4082 2.34959C59.3762 2.12559 59.3162 1.94959 59.2282 1.82159C59.1402 1.68559 59.0122 1.59359 58.8442 1.54559C58.6842 1.48959 58.4682 1.46159 58.1962 1.46159V0.981588H61.8322L64.6282 7.97759H64.6762ZM80.5619 0.861588C81.2819 0.861588 81.9539 0.985588 82.5779 1.23359C83.2019 1.48159 83.7419 1.82159 84.1979 2.25359C84.6619 2.68559 85.0259 3.19359 85.2899 3.77759C85.5539 4.36159 85.6859 4.99359 85.6859 5.67359C85.6859 6.32159 85.5499 6.92959 85.278 7.49759C85.0139 8.06559 84.6499 8.56159 84.1859 8.98559C83.7299 9.40159 83.1899 9.73359 82.5659 9.98159C81.9419 10.2216 81.2739 10.3416 80.5619 10.3416C79.8499 10.3416 79.1819 10.2216 78.5579 9.98159C77.9339 9.73359 77.3899 9.40159 76.9259 8.98559C76.4619 8.56159 76.0979 8.06559 75.8339 7.49759C75.5699 6.92959 75.4379 6.32159 75.4379 5.67359C75.4379 4.99359 75.5699 4.36159 75.8339 3.77759C76.0979 3.19359 76.4579 2.68559 76.9139 2.25359C77.3779 1.82159 77.9219 1.48159 78.5459 1.23359C79.1699 0.985588 79.8419 0.861588 80.5619 0.861588ZM80.5619 9.56159C81.0259 9.56159 81.4459 9.47359 81.8219 9.29759C82.1979 9.11359 82.5179 8.85759 82.7819 8.52959C83.0459 8.19359 83.2459 7.78959 83.3819 7.31759C83.5259 6.83759 83.5979 6.30159 83.5979 5.70959C83.5979 5.08559 83.5259 4.52559 83.3819 4.02959C83.2459 3.52559 83.0459 3.09759 82.7819 2.74559C82.5179 2.38559 82.1979 2.11359 81.8219 1.92959C81.4459 1.73759 81.0259 1.64159 80.5619 1.64159C80.0899 1.64159 79.6659 1.73759 79.2899 1.92959C78.9219 2.11359 78.6059 2.38559 78.3419 2.74559C78.0779 3.09759 77.8739 3.52559 77.7299 4.02959C77.5939 4.52559 77.5259 5.08559 77.5259 5.70959C77.5259 6.30159 77.5939 6.83759 77.7299 7.31759C77.8739 7.78959 78.0779 8.19359 78.3419 8.52959C78.6059 8.85759 78.9219 9.11359 79.2899 9.29759C79.6659 9.47359 80.0899 9.56159 80.5619 9.56159ZM99.5397 3.62159H99.0237C98.9997 3.22959 98.9397 2.90559 98.8437 2.64959C98.7557 2.38559 98.6277 2.17759 98.4597 2.02559C98.2917 1.86559 98.0877 1.75759 97.8477 1.70159C97.6077 1.63759 97.3277 1.60559 97.0077 1.60559C96.6957 1.60559 96.4437 1.61359 96.2517 1.62959C96.0677 1.63759 95.9237 1.65759 95.8197 1.68959C95.7237 1.71359 95.6597 1.74959 95.6277 1.79759C95.5957 1.84559 95.5797 1.90559 95.5797 1.97759V8.26559C95.5797 8.52159 95.5957 8.74159 95.6277 8.92559C95.6677 9.10959 95.7437 9.26159 95.8557 9.38159C95.9677 9.49359 96.1317 9.58159 96.3477 9.64559C96.5637 9.70159 96.8477 9.73359 97.1997 9.74159V10.2216H92.1717V9.74159C92.5317 9.73359 92.8197 9.70159 93.0357 9.64559C93.2517 9.58159 93.4157 9.49359 93.5277 9.38159C93.6477 9.26159 93.7237 9.10959 93.7557 8.92559C93.7957 8.74159 93.8157 8.52159 93.8157 8.26559V1.97759C93.8157 1.90559 93.7997 1.84559 93.7677 1.79759C93.7437 1.74959 93.6877 1.71359 93.5997 1.68959C93.5117 1.65759 93.3837 1.63759 93.2157 1.62959C93.0557 1.61359 92.8437 1.60559 92.5797 1.60559C92.2917 1.60559 92.0157 1.62159 91.7517 1.65359C91.4877 1.67759 91.2557 1.75759 91.0557 1.89359C90.8557 2.02159 90.6917 2.22159 90.5637 2.49359C90.4437 2.75759 90.3797 3.13359 90.3717 3.62159H89.9037L90.0237 0.981588H99.4197L99.5397 3.62159ZM108.001 10.2216H103.717V9.74159C103.989 9.73359 104.205 9.70959 104.365 9.66959C104.533 9.62159 104.661 9.53759 104.749 9.41759C104.837 9.29759 104.897 9.12959 104.929 8.91359C104.961 8.68959 104.977 8.38959 104.977 8.01359V3.18959C104.977 2.85359 104.961 2.57759 104.929 2.36159C104.905 2.13759 104.853 1.96159 104.773 1.83359C104.693 1.70559 104.577 1.61759 104.425 1.56959C104.281 1.51359 104.085 1.47759 103.837 1.46159V0.981588H107.881V1.46159C107.633 1.47759 107.433 1.51359 107.281 1.56959C107.137 1.61759 107.025 1.70559 106.945 1.83359C106.865 1.96159 106.809 2.13759 106.777 2.36159C106.753 2.57759 106.741 2.85359 106.741 3.18959V8.01359C106.741 8.38959 106.753 8.68959 106.777 8.91359C106.809 9.12959 106.869 9.29759 106.957 9.41759C107.053 9.53759 107.181 9.62159 107.341 9.66959C107.509 9.70959 107.729 9.73359 108.001 9.74159V10.2216ZM117.553 0.861588C118.273 0.861588 118.945 0.985588 119.569 1.23359C120.193 1.48159 120.733 1.82159 121.189 2.25359C121.653 2.68559 122.017 3.19359 122.281 3.77759C122.545 4.36159 122.677 4.99359 122.677 5.67359C122.677 6.32159 122.541 6.92959 122.269 7.49759C122.005 8.06559 121.641 8.56159 121.177 8.98559C120.721 9.40159 120.181 9.73359 119.557 9.98159C118.933 10.2216 118.265 10.3416 117.553 10.3416C116.841 10.3416 116.173 10.2216 115.549 9.98159C114.925 9.73359 114.381 9.40159 113.917 8.98559C113.453 8.56159 113.089 8.06559 112.825 7.49759C112.561 6.92959 112.429 6.32159 112.429 5.67359C112.429 4.99359 112.561 4.36159 112.825 3.77759C113.089 3.19359 113.449 2.68559 113.905 2.25359C114.369 1.82159 114.913 1.48159 115.537 1.23359C116.161 0.985588 116.833 0.861588 117.553 0.861588ZM117.553 9.56159C118.017 9.56159 118.437 9.47359 118.813 9.29759C119.189 9.11359 119.509 8.85759 119.773 8.52959C120.037 8.19359 120.237 7.78959 120.373 7.31759C120.517 6.83759 120.589 6.30159 120.589 5.70959C120.589 5.08559 120.517 4.52559 120.373 4.02959C120.237 3.52559 120.037 3.09759 119.773 2.74559C119.509 2.38559 119.189 2.11359 118.813 1.92959C118.437 1.73759 118.017 1.64159 117.553 1.64159C117.081 1.64159 116.657 1.73759 116.281 1.92959C115.913 2.11359 115.597 2.38559 115.333 2.74559C115.069 3.09759 114.865 3.52559 114.721 4.02959C114.585 4.52559 114.517 5.08559 114.517 5.70959C114.517 6.30159 114.585 6.83759 114.721 7.31759C114.865 7.78959 115.069 8.19359 115.333 8.52959C115.597 8.85759 115.913 9.11359 116.281 9.29759C116.657 9.47359 117.081 9.56159 117.553 9.56159ZM134.697 10.3416L129.381 2.76959H129.333V7.92959C129.333 8.32959 129.345 8.64559 129.369 8.87759C129.401 9.10959 129.461 9.28959 129.549 9.41759C129.645 9.54559 129.773 9.62959 129.933 9.66959C130.101 9.70959 130.317 9.73359 130.581 9.74159V10.2216H127.017V9.74159C127.313 9.73359 127.549 9.70959 127.725 9.66959C127.909 9.62159 128.049 9.53759 128.145 9.41759C128.249 9.29759 128.317 9.12959 128.349 8.91359C128.381 8.68959 128.397 8.38959 128.397 8.01359V3.18959C128.397 2.85359 128.381 2.57759 128.349 2.36159C128.317 2.13759 128.257 1.96159 128.169 1.83359C128.081 1.70559 127.953 1.61759 127.785 1.56959C127.625 1.51359 127.409 1.47759 127.137 1.46159V0.981588H130.485L135.321 7.91759H135.369V3.27359C135.369 2.88159 135.353 2.56959 135.321 2.33759C135.297 2.09759 135.237 1.91359 135.141 1.78559C135.053 1.65759 134.925 1.57359 134.757 1.53359C134.597 1.49359 134.385 1.46959 134.121 1.46159V0.981588H137.685V1.46159C137.389 1.46959 137.149 1.49759 136.965 1.54559C136.789 1.58559 136.649 1.66559 136.545 1.78559C136.449 1.90559 136.385 2.07759 136.353 2.30159C136.321 2.52559 136.305 2.82159 136.305 3.18959V10.3416H134.697ZM38.1768 18.6216H37.6608C37.6368 18.2296 37.5768 17.9056 37.4808 17.6496C37.3928 17.3856 37.2648 17.1776 37.0968 17.0256C36.9288 16.8656 36.7248 16.7576 36.4848 16.7016C36.2448 16.6376 35.9648 16.6056 35.6448 16.6056C35.3328 16.6056 35.0808 16.6136 34.8888 16.6296C34.7048 16.6376 34.5608 16.6576 34.4568 16.6896C34.3608 16.7136 34.2968 16.7496 34.2648 16.7976C34.2328 16.8456 34.2168 16.9056 34.2168 16.9776V23.2656C34.2168 23.5216 34.2328 23.7416 34.2648 23.9256C34.3048 24.1096 34.3808 24.2616 34.4928 24.3816C34.6048 24.4936 34.7688 24.5816 34.9848 24.6456C35.2008 24.7016 35.4848 24.7336 35.8368 24.7416V25.2216H30.8088V24.7416C31.1688 24.7336 31.4568 24.7016 31.6728 24.6456C31.8888 24.5816 32.0528 24.4936 32.1648 24.3816C32.2848 24.2616 32.3608 24.1096 32.3928 23.9256C32.4328 23.7416 32.4528 23.5216 32.4528 23.2656V16.9776C32.4528 16.9056 32.4368 16.8456 32.4048 16.7976C32.3808 16.7496 32.3248 16.7136 32.2368 16.6896C32.1488 16.6576 32.0208 16.6376 31.8528 16.6296C31.6928 16.6136 31.4808 16.6056 31.2168 16.6056C30.9288 16.6056 30.6528 16.6216 30.3888 16.6536C30.1248 16.6776 29.8928 16.7576 29.6928 16.8936C29.4928 17.0216 29.3288 17.2216 29.2008 17.4936C29.0808 17.7576 29.0168 18.1336 29.0088 18.6216H28.5408L28.6608 15.9816H38.0568L38.1768 18.6216ZM51.5826 23.2896C51.5826 23.5936 51.5946 23.8416 51.6186 24.0336C51.6506 24.2176 51.7106 24.3616 51.7986 24.4656C51.8946 24.5616 52.0226 24.6296 52.1826 24.6696C52.3506 24.7096 52.5706 24.7336 52.8426 24.7416V25.2216H48.4386V24.7416C48.7346 24.7336 48.9706 24.7096 49.1466 24.6696C49.3306 24.6296 49.4706 24.5616 49.5666 24.4656C49.6706 24.3696 49.7386 24.2336 49.7706 24.0576C49.8026 23.8816 49.8186 23.6536 49.8186 23.3736V20.8656H45.3666V23.2896C45.3666 23.5936 45.3826 23.8416 45.4146 24.0336C45.4466 24.2176 45.5106 24.3616 45.6066 24.4656C45.7026 24.5616 45.8386 24.6296 46.0146 24.6696C46.1986 24.7096 46.4386 24.7336 46.7346 24.7416V25.2216H42.3426V24.7416C42.6146 24.7336 42.8306 24.7096 42.9906 24.6696C43.1586 24.6296 43.2866 24.5616 43.3746 24.4656C43.4626 24.3696 43.5226 24.2336 43.5546 24.0576C43.5866 23.8816 43.6026 23.6536 43.6026 23.3736V17.8296C43.6026 17.5496 43.5866 17.3256 43.5546 17.1576C43.5306 16.9816 43.4786 16.8456 43.3986 16.7496C43.3186 16.6456 43.2026 16.5776 43.0506 16.5456C42.9066 16.5056 42.7146 16.4776 42.4746 16.4616V15.9816H46.6146V16.4616C46.3426 16.4696 46.1226 16.4936 45.9546 16.5336C45.7946 16.5736 45.6706 16.6456 45.5826 16.7496C45.4946 16.8536 45.4346 16.9976 45.4026 17.1816C45.3786 17.3656 45.3666 17.6096 45.3666 17.9136V20.1216H49.8186V17.8296C49.8186 17.5496 49.8026 17.3256 49.7706 17.1576C49.7386 16.9816 49.6786 16.8456 49.5906 16.7496C49.5026 16.6456 49.3746 16.5776 49.2066 16.5456C49.0466 16.5056 48.8306 16.4776 48.5586 16.4616V15.9816H52.7106V16.4616C52.4706 16.4696 52.2746 16.4936 52.1226 16.5336C51.9786 16.5736 51.8666 16.6456 51.7866 16.7496C51.7066 16.8536 51.6506 16.9976 51.6186 17.1816C51.5946 17.3656 51.5826 17.6096 51.5826 17.9136V23.2896ZM60.3103 20.1096C60.8223 20.1096 61.2343 20.0936 61.5463 20.0616C61.8583 20.0296 62.0983 19.9656 62.2663 19.8696C62.4423 19.7656 62.5663 19.6176 62.6383 19.4256C62.7103 19.2336 62.7663 18.9736 62.8063 18.6456H63.2503V22.1616H62.8063C62.7583 21.8416 62.6943 21.5856 62.6143 21.3936C62.5343 21.2016 62.4063 21.0576 62.2303 20.9616C62.0543 20.8576 61.8143 20.7936 61.5103 20.7696C61.2143 20.7376 60.8143 20.7216 60.3103 20.7216V23.1936C60.3103 23.4496 60.3423 23.6656 60.4063 23.8416C60.4783 24.0176 60.5943 24.1616 60.7543 24.2736C60.9143 24.3776 61.1263 24.4536 61.3903 24.5016C61.6543 24.5416 61.9783 24.5616 62.3623 24.5616C62.8183 24.5616 63.2023 24.5296 63.5143 24.4656C63.8343 24.4016 64.0983 24.2896 64.3063 24.1296C64.5143 23.9696 64.6823 23.7576 64.8103 23.4936C64.9383 23.2216 65.0463 22.8816 65.1343 22.4736H65.6143L65.4223 25.2216H57.2863V24.7416C57.5503 24.7336 57.7663 24.7096 57.9343 24.6696C58.1023 24.6296 58.2303 24.5616 58.3183 24.4656C58.4063 24.3696 58.4663 24.2336 58.4983 24.0576C58.5303 23.8816 58.5463 23.6536 58.5463 23.3736V17.8296C58.5463 17.5496 58.5303 17.3256 58.4983 17.1576C58.4743 16.9816 58.4223 16.8456 58.3423 16.7496C58.2623 16.6456 58.1463 16.5776 57.9943 16.5456C57.8503 16.5056 57.6583 16.4776 57.4183 16.4616V15.9816H65.0023L65.0863 18.3336H64.5703C64.5223 17.9976 64.4463 17.7216 64.3423 17.5056C64.2383 17.2816 64.0943 17.1056 63.9103 16.9776C63.7263 16.8416 63.4863 16.7496 63.1903 16.7016C62.9023 16.6456 62.5463 16.6176 62.1223 16.6176H60.7663C60.5583 16.6176 60.4303 16.6456 60.3823 16.7016C60.3343 16.7496 60.3103 16.8696 60.3103 17.0616V20.1096ZM77.9704 18.2976C77.9704 18.9616 77.7784 19.5176 77.3944 19.9656C77.0104 20.4136 76.3984 20.7136 75.5584 20.8656L78.3424 24.0576C78.5344 24.2816 78.7624 24.4536 79.0264 24.5736C79.2904 24.6856 79.5584 24.7416 79.8304 24.7416V25.2216H76.9864L74.0104 21.5736C73.8104 21.3336 73.6344 21.1736 73.4824 21.0936C73.3384 21.0056 73.2024 20.9616 73.0744 20.9616V23.3136C73.0744 23.6096 73.0944 23.8536 73.1344 24.0456C73.1744 24.2296 73.2544 24.3736 73.3744 24.4776C73.4944 24.5816 73.6664 24.6536 73.8904 24.6936C74.1224 24.7256 74.4304 24.7416 74.8144 24.7416V25.2216H70.0504V24.7416C70.3144 24.7416 70.5264 24.7256 70.6864 24.6936C70.8544 24.6536 70.9824 24.5856 71.0704 24.4896C71.1664 24.3856 71.2304 24.2456 71.2624 24.0696C71.2944 23.8856 71.3104 23.6536 71.3104 23.3736V17.8296C71.3104 17.5496 71.2984 17.3256 71.2744 17.1576C71.2504 16.9816 71.1984 16.8456 71.1184 16.7496C71.0384 16.6456 70.9224 16.5776 70.7704 16.5456C70.6264 16.5056 70.4304 16.4776 70.1824 16.4616V15.9816H74.3344C75.4944 15.9816 76.3904 16.1856 77.0224 16.5936C77.6544 17.0016 77.9704 17.5696 77.9704 18.2976ZM73.0744 20.2416H73.8544C74.6064 20.2416 75.1664 20.0976 75.5344 19.8096C75.9104 19.5136 76.0984 19.0296 76.0984 18.3576C76.0984 17.8456 75.9424 17.4336 75.6304 17.1216C75.3184 16.8096 74.8864 16.6536 74.3344 16.6536H73.2904C73.1464 16.6536 73.0744 16.7216 73.0744 16.8576V20.2416ZM89.0275 22.4256H85.6315C85.2555 23.2736 85.0675 23.8616 85.0675 24.1896C85.0675 24.4296 85.1555 24.5816 85.3315 24.6456C85.5155 24.7096 85.7875 24.7416 86.1475 24.7416V25.2216H82.8595V24.7416C83.0515 24.7176 83.2155 24.6856 83.3515 24.6456C83.4955 24.6056 83.6195 24.5496 83.7235 24.4776C83.8355 24.4056 83.9315 24.3136 84.0115 24.2016C84.0915 24.0816 84.1675 23.9376 84.2395 23.7696L87.3955 15.8616H88.2835L91.1515 22.8696C91.3195 23.2776 91.4595 23.5976 91.5715 23.8296C91.6915 24.0616 91.8155 24.2416 91.9435 24.3696C92.0795 24.4896 92.2315 24.5736 92.3995 24.6216C92.5755 24.6696 92.7995 24.7056 93.0715 24.7296V25.2216H88.5355V24.7296C88.9195 24.7136 89.1955 24.6736 89.3635 24.6096C89.5315 24.5456 89.6155 24.4176 89.6155 24.2256C89.6155 24.1136 89.5875 23.9696 89.5315 23.7936C89.4755 23.6176 89.3995 23.4016 89.3035 23.1456L89.0275 22.4256ZM85.9075 21.7056H88.7635L87.3835 18.0696H87.3355L85.9075 21.7056ZM104.719 18.5496C104.719 19.4136 104.383 20.0736 103.711 20.5296C103.039 20.9776 102.063 21.2016 100.783 21.2016H99.7626V23.3136C99.7626 23.6176 99.7826 23.8656 99.8226 24.0576C99.8626 24.2416 99.9466 24.3856 100.075 24.4896C100.203 24.5936 100.379 24.6616 100.603 24.6936C100.827 24.7256 101.127 24.7416 101.503 24.7416V25.2216H96.7386V24.7416C97.0026 24.7336 97.2186 24.7096 97.3866 24.6696C97.5546 24.6296 97.6826 24.5616 97.7706 24.4656C97.8586 24.3696 97.9186 24.2336 97.9506 24.0576C97.9826 23.8816 97.9986 23.6536 97.9986 23.3736V17.8296C97.9986 17.5496 97.9826 17.3256 97.9506 17.1576C97.9266 16.9816 97.8746 16.8456 97.7946 16.7496C97.7146 16.6456 97.5986 16.5776 97.4466 16.5456C97.3026 16.5056 97.1106 16.4776 96.8706 16.4616V15.9816H101.023C102.239 15.9816 103.159 16.1976 103.783 16.6296C104.407 17.0616 104.719 17.7016 104.719 18.5496ZM99.7626 20.4816H100.543C101.319 20.4816 101.887 20.3256 102.247 20.0136C102.607 19.7016 102.787 19.2096 102.787 18.5376C102.787 17.9376 102.635 17.4736 102.331 17.1456C102.027 16.8176 101.551 16.6536 100.903 16.6536H99.9786C99.8346 16.6536 99.7626 16.7216 99.7626 16.8576V20.4816ZM109.732 17.4936C109.612 17.2856 109.5 17.1136 109.396 16.9776C109.3 16.8416 109.2 16.7376 109.096 16.6656C108.992 16.5856 108.88 16.5336 108.76 16.5096C108.64 16.4776 108.504 16.4616 108.352 16.4616V15.9816H112.384V16.4616C112.048 16.4616 111.812 16.4936 111.676 16.5576C111.54 16.6216 111.472 16.7176 111.472 16.8456C111.472 16.9256 111.496 17.0216 111.544 17.1336C111.592 17.2456 111.668 17.3976 111.772 17.5896L113.488 20.8656H113.536L115.048 18.3456C115.312 17.8976 115.496 17.5656 115.6 17.3496C115.704 17.1256 115.756 16.9496 115.756 16.8216C115.756 16.6856 115.692 16.5936 115.564 16.5456C115.444 16.4896 115.216 16.4616 114.88 16.4616V15.9816H117.892V16.4616C117.716 16.4616 117.556 16.4896 117.412 16.5456C117.268 16.6016 117.116 16.7136 116.956 16.8816C116.804 17.0416 116.628 17.2696 116.428 17.5656C116.236 17.8536 116.004 18.2336 115.732 18.7056L113.98 21.7056V22.9296C113.98 23.3296 113.996 23.6496 114.028 23.8896C114.068 24.1296 114.132 24.3136 114.22 24.4416C114.316 24.5616 114.444 24.6416 114.604 24.6816C114.764 24.7216 114.972 24.7416 115.228 24.7416V25.2216H110.956V24.7416C111.204 24.7416 111.408 24.7216 111.568 24.6816C111.736 24.6416 111.868 24.5616 111.964 24.4416C112.06 24.3216 112.124 24.1496 112.156 23.9256C112.196 23.6936 112.216 23.3896 112.216 23.0136V21.9096L109.732 17.4936Z" fill="#353535"/>
</svg>
