<svg width="96" height="59" viewBox="0 0 96 59" fill="none" xmlns="http://www.w3.org/2000/svg">
<g clip-path="url(#clip0)">
<path d="M32.1481 54.7965H34.797V55.4462H32.9121V56.1174H34.5685V56.7671H32.9121V57.4668H34.8255V58.1166H32.1481V54.7965Z" fill="#951B81"/>
<path d="M35.3682 57.6311L35.8251 57.117C36.1393 57.3669 36.4749 57.524 36.8747 57.524C37.1888 57.524 37.3816 57.4026 37.3816 57.2098V57.2027C37.3816 57.0171 37.2602 56.9242 36.6748 56.7814C35.9679 56.6101 35.511 56.4245 35.511 55.7676V55.7604C35.511 55.1607 36.025 54.7609 36.739 54.7609C37.2531 54.7609 37.6886 54.9108 38.0456 55.1821L37.6458 55.7319C37.3316 55.5248 37.0246 55.4034 36.7319 55.4034C36.432 55.4034 36.2821 55.532 36.2821 55.689V55.6962C36.2821 55.9175 36.432 55.9889 37.0389 56.1317C37.7529 56.3102 38.1527 56.5458 38.1527 57.1242V57.1313C38.1527 57.7882 37.6172 58.1594 36.8604 58.1594C36.3249 58.1594 35.7894 57.9881 35.3682 57.6311Z" fill="#951B81"/>
<path d="M39.5807 55.4677H38.5097V54.7965H41.4228V55.4677H40.3518V58.1166H39.5807V55.4677Z" fill="#951B81"/>
<path d="M42.3795 57.3098H41.5656V58.1095H42.3795V57.3098Z" fill="#951B81"/>
<path d="M84.0621 55.996L83.5909 56.1103L83.4624 55.6248L84.2406 55.3892H84.6476V58.1166H84.0621V55.996Z" fill="#951B81"/>
<path d="M86.8038 56.2745V56.2674C86.8038 56.0246 86.6253 55.8532 86.3255 55.8532C86.0327 55.8532 85.8614 56.0246 85.8614 56.2602V56.2674C85.8614 56.5101 86.0399 56.6743 86.3326 56.6743C86.6325 56.6815 86.8038 56.5101 86.8038 56.2745ZM85.3402 57.8238L85.6543 57.374C85.8542 57.5311 86.0185 57.6025 86.2469 57.6025C86.5825 57.6025 86.7539 57.3526 86.7967 56.9885C86.6682 57.1027 86.4825 57.1741 86.2469 57.1741C85.6615 57.1741 85.2831 56.8528 85.2831 56.3031V56.2959C85.2831 55.7533 85.7043 55.3463 86.3183 55.3463C86.6825 55.3463 86.8967 55.432 87.0966 55.639C87.2894 55.8318 87.4179 56.1246 87.4179 56.66V56.6672C87.4179 57.5454 87.0038 58.1451 86.2327 58.1451C85.8328 58.1451 85.5615 58.0095 85.3402 57.8238Z" fill="#951B81"/>
<path d="M87.7892 57.7382L88.1461 57.3098C88.3532 57.4955 88.5531 57.6026 88.7887 57.6026C89.0672 57.6026 89.2385 57.4669 89.2385 57.2313V57.2242C89.2385 56.9957 89.0386 56.86 88.7602 56.86C88.5888 56.86 88.4317 56.9029 88.3104 56.96L87.9677 56.7315L88.0462 55.3964H89.7098V55.9176H88.5603L88.5317 56.3817C88.6388 56.3531 88.7388 56.3317 88.8887 56.3317C89.4099 56.3317 89.8383 56.5887 89.8383 57.1956V57.2028C89.8383 57.7739 89.4313 58.1381 88.8102 58.1381C88.3675 58.1452 88.0462 57.9881 87.7892 57.7382Z" fill="#951B81"/>
<path d="M90.2024 57.6454L91.102 56.91C91.4376 56.6316 91.5661 56.4816 91.5661 56.2603C91.5661 56.0318 91.4162 55.9104 91.202 55.9104C90.995 55.9104 90.8522 56.0247 90.6522 56.2746L90.231 55.939C90.4952 55.5749 90.7593 55.3821 91.2377 55.3821C91.7946 55.3821 92.1659 55.7105 92.1659 56.2174V56.2246C92.1659 56.6744 91.9374 56.9029 91.459 57.2741L91.0164 57.6169H92.1944V58.1309H90.1953V57.6454H90.2024Z" fill="#951B81"/>
<path d="M54.1532 50.1413L53.9604 51.2123C53.889 51.5907 53.7319 51.7264 53.3607 51.7264H50.1906L49.9407 53.1115H52.4753C52.8609 53.1115 52.9537 53.24 52.8966 53.6113L52.7038 54.6823C52.6467 55.0607 52.4896 55.1964 52.104 55.1964H49.5837L49.1481 57.6025C49.0767 57.9738 48.9339 58.1023 48.5484 58.1023H47.1918C46.8063 58.1023 46.6992 57.9738 46.7706 57.6025L48.0914 50.1342C48.1628 49.7629 48.3056 49.6344 48.6912 49.6344H53.7248C54.1104 49.6415 54.2175 49.7701 54.1532 50.1413Z" fill="#6C6DA2"/>
<path d="M55.8096 49.6416H57.2233C57.5875 49.6416 57.6946 49.763 57.616 50.12L56.2809 57.6311C56.2238 57.9881 56.0738 58.1095 55.7168 58.1095H54.3103C53.9461 58.1095 53.8533 57.9881 53.9104 57.6311L55.2456 50.12C55.317 49.7558 55.4526 49.6416 55.8096 49.6416Z" fill="#6C6DA2"/>
<path d="M62.2998 51.7264H61.0146L60.729 53.2972H62.0285C62.5354 53.2972 62.871 52.9902 62.9567 52.4976C63.0423 52.0263 62.8138 51.7264 62.2998 51.7264ZM65.4056 52.6047C65.1986 53.7613 64.5774 54.511 63.6849 54.9679C63.7706 55.125 63.842 55.2892 63.9134 55.482L64.6345 57.524C64.7416 57.8453 64.6131 58.1095 64.2133 58.1095H62.9138C62.2784 58.1095 62.0285 57.9524 61.9071 57.5383L61.4287 55.9033C61.3002 55.4963 61.2145 55.2964 60.6862 55.2964H60.3792L59.9722 57.6097C59.9008 57.981 59.758 58.1095 59.3724 58.1095H58.0159C57.6303 58.1095 57.5232 57.981 57.5946 57.6097L58.9155 50.1414C58.9869 49.7701 59.1297 49.6416 59.5152 49.6416H62.9424C64.7488 49.6416 65.7483 50.7626 65.4056 52.6047Z" fill="#6C6DA2"/>
<path d="M70.3464 49.4559C72.1243 49.4559 72.9525 50.1128 73.3166 51.2195C73.438 51.5693 73.338 51.6836 72.9525 51.8406L71.7601 52.3047C71.4103 52.4475 71.2889 52.3976 71.1604 52.0548C71.0033 51.5979 70.6106 51.4337 70.0537 51.4337C69.2397 51.4337 68.8756 51.6336 68.8042 52.0548C68.7185 52.5689 69.3897 52.676 70.2607 52.7831C71.603 52.9759 73.3238 53.5971 72.9239 55.7747C72.6026 57.5311 71.0961 58.2808 68.8756 58.2808C67.0835 58.2808 65.8126 57.6525 65.5699 56.4316C65.5056 56.0746 65.6413 55.9032 66.0125 55.7747L67.212 55.3677C67.5976 55.2464 67.7547 55.2821 67.876 55.6319C68.0188 56.046 68.4401 56.2674 69.1112 56.2674C69.9252 56.2674 70.4321 56.1032 70.5321 55.5891C70.6177 55.125 70.018 54.9965 69.2469 54.8822C67.876 54.6895 66.0125 54.2468 66.4124 51.9263C66.7051 50.3556 68.0545 49.4559 70.3464 49.4559Z" fill="#6C6DA2"/>
<path d="M81.3561 50.1414L81.1633 51.2124C81.0991 51.5908 80.9491 51.7264 80.5636 51.7264H78.7858L77.7433 57.6097C77.6719 57.981 77.5291 58.1095 77.1436 58.1095H75.787C75.4015 58.1095 75.2944 57.981 75.3658 57.6097L76.4082 51.7264H74.6161C74.2305 51.7264 74.1377 51.5979 74.1948 51.2124L74.3876 50.1414C74.459 49.7701 74.6018 49.6416 74.9873 49.6416H80.9349C81.3204 49.6416 81.4346 49.7701 81.3561 50.1414Z" fill="#6C6DA2"/>
<path d="M32.0695 16.4982C32.0695 7.69475 24.9297 0.562012 16.1262 0.562012C7.32988 0.562012 0.190002 7.69475 0.190002 16.4982C0.190002 25.3017 7.32988 32.4416 16.1262 32.4416C24.9297 32.4416 32.0695 25.3017 32.0695 16.4982Z" fill="#72A4D0"/>
<path d="M19.3463 14.2635C19.025 14.5205 18.5466 14.8846 17.9255 15.2916C18.1254 14.5348 18.2682 13.8279 18.361 13.1711C18.7537 13.5423 19.1107 13.8708 19.4677 14.1635C19.4248 14.1992 19.382 14.2278 19.3463 14.2635ZM17.5328 11.4932C17.3257 11.2861 17.1401 11.0934 16.9687 10.922L16.6831 10.6293C16.6688 10.6221 16.6617 10.6079 16.6474 10.6007L17.6684 9.73679C17.6541 10.2794 17.6042 10.8649 17.5328 11.4932ZM16.576 16.1056C15.1909 16.8695 13.9343 17.3265 12.8347 17.4764C12.2278 17.5835 11.6138 17.5407 11.0498 17.355C12.2207 15.2916 14.0913 12.9783 16.1119 11.0791C16.5617 11.4646 17.0044 11.8788 17.4257 12.2786C17.2257 13.5923 16.933 14.9418 16.576 16.1056ZM15.3908 19.14C13.3417 23.531 10.7999 25.9729 9.77886 25.4945C8.97919 25.1232 8.86496 22.8242 10.2001 19.1614C10.3215 18.8259 10.4786 18.4617 10.6642 18.0904C11.1997 18.2904 11.7637 18.3975 12.3421 18.3975C12.4206 18.3975 12.4992 18.3975 12.592 18.3903C13.6558 18.2904 14.8767 17.912 16.1619 17.3051C15.9192 17.9405 15.6621 18.5545 15.3908 19.14ZM9.84312 16.691C8.25807 15.363 8.17953 12.9426 9.66462 11.1719C10.5214 10.1509 11.7209 9.57257 12.9561 9.57257C13.6201 9.57257 14.2556 9.75107 14.7911 10.0795C14.891 10.1366 14.9838 10.208 15.0838 10.2723C13.2988 12.1358 11.6138 14.5848 10.4143 17.0766C10.2001 16.9623 10.0145 16.8338 9.84312 16.691ZM18.4824 9.11562C20.7743 7.46631 22.6378 6.81658 23.4731 7.40205C23.7088 7.56627 23.8301 7.80903 23.8444 8.13746C23.9015 9.4155 22.3236 11.6931 19.996 13.7137C19.5176 13.3353 18.9893 12.8855 18.4395 12.3643C18.5038 11.3076 18.5181 10.1866 18.4824 9.11562ZM30.6844 14.7347C30.5987 13.9993 30.4774 13.4424 30.3845 13.0711C30.2917 12.6998 30.2417 12.5142 30.2417 12.5142C30.1703 12.25 29.4492 12.7427 29.6991 14.8561C29.8633 16.2198 29.9133 18.3118 29.1136 20.7679C28.3283 23.2026 26.5718 26.0228 23.5374 27.9863C22.0309 28.9645 20.2245 29.6999 18.2325 30.0069C16.2404 30.3068 14.0628 30.1925 11.9637 29.5214C7.75113 28.2291 3.84562 24.4521 2.78178 19.4399C2.23915 16.9623 2.37481 14.2563 3.30299 11.7645C4.2169 9.26556 5.91619 6.99508 8.16525 5.38861C10.4072 3.775 13.1917 2.84681 16.0405 2.83253C18.8893 2.78969 21.8024 3.61792 24.1229 5.36005C25.2795 6.22397 26.2934 7.30923 27.0288 8.55871C27.6 9.55116 28.0212 10.6793 28.0212 11.7859C28.0212 15.4344 23.7016 16.0627 20.6814 14.2064C22.5878 12.5713 24.6369 10.3365 24.6369 8.30882C24.6369 7.68051 24.3442 7.18786 23.8373 6.83086C22.5235 5.90268 20.6243 6.15971 18.3681 7.56627C18.2396 6.42389 17.9326 5.06017 17.1829 4.33191C17.0044 4.16055 16.7902 4.02489 16.5546 3.93921C15.8049 3.6679 14.9124 3.93921 14.227 4.63178C14.1627 4.69604 14.1199 4.76744 14.0913 4.84598C14.0342 4.99591 14.0414 5.16013 14.1128 5.30293C14.1842 5.44573 14.2984 5.55282 14.4483 5.60994C14.6697 5.68848 14.9124 5.63136 15.0981 5.44573C15.5693 4.91024 16.1476 4.66034 16.5903 4.82456C16.7902 4.89596 16.9616 5.04589 17.083 5.26009C17.4042 5.80272 17.597 6.73804 17.647 8.0375C16.7402 8.67295 16.0191 9.32268 15.605 9.72251C15.4336 9.60113 15.2766 9.49404 15.1266 9.40836C14.3769 8.93713 13.513 8.68723 12.6134 8.68723C11.1497 8.68723 9.77172 9.33696 8.81498 10.4722C7.07285 12.5428 7.30132 15.6058 9.31477 17.2979C9.5361 17.4836 9.786 17.6549 10.0573 17.8049C9.55752 18.933 9.07201 20.3395 8.74358 21.5747C7.97961 24.5449 8.16525 26.6155 9.25051 27.1224C9.41472 27.2009 9.60036 27.2366 9.79314 27.2366C11.5138 27.2366 14.2484 24.0522 16.2904 19.6684C16.7688 18.6474 17.1829 17.5978 17.5256 16.5554C17.6541 16.484 18.7608 15.7628 20.0674 14.7061C23.923 17.9191 28.8066 16.4768 28.8066 11.7431C28.8066 10.4365 28.3854 9.18702 27.7785 8.11604C26.986 6.74518 25.9078 5.57424 24.6655 4.63178C22.1808 2.73257 19.0536 1.81867 16.0262 1.84009C12.9775 1.84723 9.97878 2.85395 7.57978 4.58894C5.1665 6.31679 3.34583 8.74435 2.36053 11.4289C1.36808 14.1135 1.21815 17.0123 1.80362 19.6541C2.37481 22.3173 3.70996 24.7091 5.45923 26.5655C7.2085 28.429 9.3933 29.7427 11.6495 30.471C16.2262 31.9347 20.8599 30.9422 24.0657 28.8217C27.3215 26.7154 29.2065 23.6881 30.049 21.0749C30.4845 19.754 30.6701 18.5403 30.7487 17.4479C30.8201 16.4126 30.7772 15.4558 30.6844 14.7347Z" fill="white"/>
<path d="M96 20.9107V22.3387C96 22.4529 95.9857 22.4815 95.8572 22.51L95.7144 22.5386C95.5859 22.56 95.5645 22.5386 95.5645 22.4244V21.996C95.5645 21.9174 95.5787 21.7746 95.593 21.639C95.5573 21.7032 95.5288 21.7675 95.5002 21.8103L95.3217 22.1102C95.2646 22.1959 95.236 22.2316 95.1432 22.253L95.0789 22.2673C95.0004 22.2816 94.9719 22.2673 94.9147 22.2173L94.7291 21.9888C94.6934 21.946 94.6648 21.9103 94.6363 21.8674C94.6506 21.9817 94.6506 22.0888 94.6506 22.1673V22.5957C94.6506 22.7099 94.6434 22.7385 94.5149 22.7671L94.3721 22.7956C94.2436 22.817 94.2222 22.7956 94.2222 22.6814V21.2534C94.2222 21.1249 94.2579 21.0963 94.3864 21.0749L94.4649 21.0606C94.5577 21.0464 94.5863 21.0606 94.6434 21.132L95.1146 21.7746L95.5859 20.975C95.6287 20.9036 95.6644 20.8536 95.7572 20.8393L95.8429 20.825C95.9643 20.7679 96 20.7822 96 20.9107ZM94.0651 21.2534V21.3891C94.0651 21.5176 94.0437 21.539 93.9223 21.5604L93.4868 21.639V22.7885C93.4868 22.9027 93.4511 22.9384 93.3225 22.9598L93.194 22.9813C93.0798 23.0027 93.0369 22.9813 93.0369 22.867V21.7175L92.5871 21.796C92.4515 21.8175 92.4515 21.8032 92.4515 21.6747V21.539C92.4515 21.4105 92.4515 21.3891 92.5871 21.3677L93.9294 21.132C94.0437 21.1106 94.0651 21.1249 94.0651 21.2534Z" fill="#72A4D0"/>
<path d="M9.80028 42.4302C9.80028 41.295 9.07915 40.6453 7.86537 40.8595L5.30929 41.3093V45.1077L7.86537 44.6579C9.07915 44.4437 9.80028 43.5655 9.80028 42.4302ZM15.0981 41.5163C15.0981 45.6003 12.492 48.3563 8.48654 49.0703L5.30929 49.6344V54.0539C5.30929 54.8536 5.05226 55.182 4.22403 55.332L1.30382 55.8461C0.475597 55.9889 0.190002 55.7532 0.190002 54.9536V38.7818C0.190002 37.9821 0.475597 37.6465 1.30382 37.4966L8.43656 36.2328C12.4634 35.526 15.0981 37.4109 15.0981 41.5163Z" fill="#72A4D0"/>
<path d="M32.1481 33.127V49.2988C32.1481 50.0985 31.8625 50.4341 31.0628 50.5769L28.1212 51.0981C27.3215 51.2409 27.0359 51.0052 27.0359 50.2056V44.2581L22.0237 45.1434V51.0838C22.0237 51.8835 21.7667 52.2119 20.9385 52.3618L18.0183 52.8759C17.1901 53.0187 16.9045 52.7902 16.9045 51.9834V35.8259C16.9045 34.9976 17.1901 34.6621 18.0183 34.5193L20.9385 34.0052C21.7667 33.8553 22.0237 34.098 22.0237 34.9262V40.6381L27.0359 39.7528V34.0409C27.0359 33.2127 27.3215 32.8771 28.1212 32.7343L31.0628 32.2131C31.8625 32.0632 32.1481 32.2988 32.1481 33.127Z" fill="#72A4D0"/>
<path d="M50.8831 29.8855L44.9142 41.0951V47.114C44.9142 47.9137 44.6571 48.2421 43.8289 48.3921L40.9087 48.9061C40.0805 49.0489 39.7949 48.8205 39.7949 48.0208V42.0019L33.8545 32.8985C33.4904 32.3702 33.5975 31.8561 34.3971 31.7205L37.4958 31.1707C38.7882 30.9422 39.1523 30.9279 39.6378 31.749L42.4009 36.5327L45.2426 30.7566C45.7353 29.7641 46.0923 29.6499 47.3632 29.4286L50.3333 28.9002C51.1116 28.7646 51.2187 29.2358 50.8831 29.8855Z" fill="#72A4D0"/>
<path d="M59.3653 26.9581C63.2779 26.2798 65.5056 27.0367 66.7479 29.3C67.1192 29.9854 66.905 30.4067 66.1125 30.8565L63.4707 32.4273C62.7567 32.8628 62.464 32.8057 62.0428 32.1345C61.543 31.2421 60.5862 31.0421 59.3724 31.2563C57.5732 31.5634 56.8592 32.1274 56.8592 33.0342C56.8592 34.148 58.4228 34.1051 60.322 34.0123C63.3922 33.8981 67.362 33.9338 67.362 38.8175C67.362 42.6159 63.842 45.3148 59.1582 46.1287C55.217 46.8141 52.461 45.9716 51.4615 43.4584C51.1687 42.7301 51.4115 42.3303 52.1754 41.9162L54.6601 40.6096C55.4526 40.2169 55.8239 40.224 56.2238 40.9094C56.7021 41.7305 57.7303 42.0161 59.2154 41.7591C60.986 41.4521 62.0428 40.9095 62.0428 39.7956C62.0428 38.7889 60.6933 38.7389 58.944 38.8032C55.8453 38.9031 51.5114 39.1173 51.5114 34.1051C51.5114 30.6923 54.3174 27.8292 59.3653 26.9581Z" fill="#72A4D0"/>
<path d="M70.2179 25.416L73.2666 24.8734C74.0449 24.7377 74.3019 24.9519 74.3019 25.723V41.9948C74.3019 42.7659 74.0449 43.0729 73.2666 43.2086L70.2179 43.7512C69.4397 43.8869 69.1826 43.6727 69.1826 42.9016V26.6369C69.1898 25.8587 69.4468 25.5588 70.2179 25.416Z" fill="#72A4D0"/>
<path d="M84.3049 27.0867C82.4985 27.408 81.4632 28.4433 81.4632 30.0712V35.1833C81.4632 36.8112 82.4985 37.4824 84.3049 37.1611C86.0898 36.8469 87.118 35.8117 87.118 34.1838V29.0716C87.118 27.4437 86.0827 26.7726 84.3049 27.0867ZM84.3049 22.5672C89.3956 21.6676 92.2373 23.9309 92.2373 28.4005V33.0485C92.2373 37.5181 89.3956 40.781 84.3049 41.6878C79.1927 42.5945 76.3511 40.3312 76.3511 35.8616V31.2136C76.3439 26.744 79.1856 23.474 84.3049 22.5672Z" fill="#72A4D0"/>
</g>
<defs>
<clipPath id="clip0">
<rect width="95.81" height="57.7259" fill="white" transform="translate(0.190002 0.562012)"/>
</clipPath>
</defs>
</svg>
