<svg width="153" height="48" viewBox="0 0 153 48" fill="none" xmlns="http://www.w3.org/2000/svg">
<path d="M12.8457 10.838C12.5097 11.2487 12.0757 11.5707 11.5437 11.804C11.0117 12.028 10.4377 12.14 9.82172 12.14C9.32705 12.14 8.86972 12.0513 8.44972 11.874C8.03905 11.6873 7.68439 11.4307 7.38572 11.104C7.08705 10.768 6.85372 10.3667 6.68572 9.9C6.52705 9.43333 6.44772 8.91533 6.44772 8.346C6.44772 7.74867 6.54105 7.212 6.72772 6.736C6.91439 6.25067 7.17572 5.84 7.51172 5.504C7.85705 5.15867 8.26772 4.89733 8.74372 4.72C9.22905 4.53333 9.76105 4.44 10.3397 4.44C10.7037 4.44 11.0351 4.47267 11.3337 4.538C11.6324 4.594 11.8891 4.678 12.1037 4.79C12.3277 4.89267 12.5004 5.02333 12.6217 5.182C12.7431 5.33133 12.8037 5.49467 12.8037 5.672C12.8037 5.85867 12.7431 6.00333 12.6217 6.106C12.5004 6.20867 12.3324 6.26 12.1177 6.26C11.9497 6.26 11.8097 6.22733 11.6977 6.162C11.5857 6.08733 11.4411 5.92867 11.2637 5.686C11.0771 5.47133 10.8951 5.322 10.7177 5.238C10.5497 5.14467 10.3304 5.098 10.0597 5.098C9.39705 5.098 8.89305 5.35467 8.54772 5.868C8.21172 6.38133 8.04372 7.13733 8.04372 8.136C8.04372 9.20933 8.23039 10.026 8.60372 10.586C8.98639 11.1367 9.54172 11.412 10.2697 11.412C10.6617 11.412 11.0304 11.3373 11.3757 11.188C11.7211 11.0293 12.0711 10.7773 12.4257 10.432L12.8457 10.838ZM16.1796 9.774C16.1796 10.1567 16.1889 10.46 16.2076 10.684C16.2262 10.908 16.2729 11.0807 16.3476 11.202C16.4316 11.314 16.5482 11.3887 16.6976 11.426C16.8469 11.4633 17.0569 11.4913 17.3276 11.51V12H13.6036V11.51C13.8742 11.4913 14.0889 11.4633 14.2476 11.426C14.4062 11.3887 14.5276 11.314 14.6116 11.202C14.6956 11.09 14.7469 10.9313 14.7656 10.726C14.7936 10.5113 14.8076 10.2267 14.8076 9.872V4.006C14.8076 3.45533 14.7982 3.01667 14.7796 2.69C14.7702 2.36333 14.7469 2.116 14.7096 1.948C14.6909 1.836 14.6582 1.74733 14.6116 1.682C14.5742 1.60733 14.5136 1.55133 14.4296 1.514C14.3456 1.46733 14.2336 1.43467 14.0936 1.416C13.9536 1.39733 13.7809 1.388 13.5756 1.388V0.911999L16.1516 0.379999V5.714H16.2076C16.3476 5.52733 16.5202 5.35933 16.7256 5.21C16.9402 5.05133 17.1689 4.916 17.4116 4.804C17.6542 4.692 17.9062 4.60333 18.1676 4.538C18.4382 4.47267 18.6996 4.44 18.9516 4.44C19.3809 4.44 19.7729 4.51467 20.1276 4.664C20.4916 4.81333 20.7716 5.014 20.9676 5.266C21.1262 5.48067 21.2429 5.76533 21.3176 6.12C21.3922 6.46533 21.4296 6.93667 21.4296 7.534V9.774C21.4296 10.1567 21.4389 10.46 21.4576 10.684C21.4762 10.8987 21.5229 11.0667 21.5976 11.188C21.6816 11.3093 21.7982 11.3887 21.9476 11.426C22.0969 11.4633 22.3069 11.4913 22.5776 11.51V12H18.8676V11.51C19.1289 11.5007 19.3389 11.4773 19.4976 11.44C19.6562 11.3933 19.7729 11.314 19.8476 11.202C19.9316 11.09 19.9829 10.9313 20.0016 10.726C20.0296 10.5113 20.0436 10.2267 20.0436 9.872V8.108C20.0436 7.06267 19.9222 6.32067 19.6796 5.882C19.4369 5.434 19.0309 5.21 18.4616 5.21C18.0229 5.21 17.6216 5.322 17.2576 5.546C16.9029 5.77 16.6229 6.078 16.4176 6.47C16.3709 6.57267 16.3289 6.67067 16.2916 6.764C16.2636 6.848 16.2402 6.946 16.2216 7.058C16.2029 7.17 16.1889 7.30067 16.1796 7.45C16.1796 7.59 16.1796 7.76733 16.1796 7.982V9.774ZM27.7923 7.856C27.2603 8.06133 26.8076 8.262 26.4343 8.458C26.0703 8.654 25.7763 8.85 25.5523 9.046C25.3283 9.242 25.1649 9.438 25.0623 9.634C24.9689 9.83 24.9223 10.0307 24.9223 10.236C24.9223 10.544 25.0249 10.796 25.2303 10.992C25.4356 11.188 25.7063 11.286 26.0423 11.286C26.2849 11.286 26.5089 11.2253 26.7143 11.104C26.9289 10.9827 27.1156 10.8193 27.2743 10.614C27.4329 10.3993 27.5589 10.152 27.6523 9.872C27.7456 9.58267 27.7923 9.27933 27.7923 8.962V7.856ZM27.7923 7.254V6.68C27.7923 5.54133 27.3069 4.972 26.3363 4.972C26.1776 4.972 26.0423 4.986 25.9303 5.014C25.8183 5.042 25.7249 5.08867 25.6503 5.154C25.5756 5.21933 25.5056 5.31267 25.4403 5.434C25.3843 5.55533 25.3283 5.70467 25.2723 5.882C25.1696 6.15267 25.0669 6.33467 24.9642 6.428C24.8709 6.512 24.7309 6.554 24.5443 6.554C24.0776 6.554 23.8443 6.32067 23.8443 5.854C23.8443 5.406 24.0823 5.06067 24.5583 4.818C25.0343 4.566 25.7109 4.44 26.5883 4.44C27.5216 4.44 28.1843 4.608 28.5763 4.944C28.9683 5.27067 29.1643 5.83067 29.1643 6.624V9.76C29.1643 10.824 29.3743 11.356 29.7943 11.356C29.9249 11.356 30.0509 11.342 30.1723 11.314C30.2936 11.2767 30.3963 11.188 30.4803 11.048L30.6763 11.384C30.5643 11.5987 30.3589 11.7807 30.0603 11.93C29.7616 12.07 29.4489 12.14 29.1223 12.14C28.7116 12.14 28.4036 12.0093 28.1983 11.748C28.0023 11.4867 27.9043 11.118 27.9043 10.642H27.8343C27.5916 11.0993 27.2556 11.4633 26.8263 11.734C26.3969 11.9953 25.9209 12.126 25.3983 12.126C24.8103 12.126 24.3483 11.9767 24.0123 11.678C23.6763 11.3793 23.5083 10.978 23.5083 10.474C23.5083 10.25 23.5456 10.0353 23.6203 9.83C23.7043 9.62467 23.8349 9.42867 24.0123 9.242C24.1896 9.05533 24.4229 8.87333 24.7123 8.696C25.0016 8.50933 25.3563 8.32267 25.7763 8.136L27.7923 7.254ZM33.7662 9.774C33.7662 10.1567 33.7755 10.46 33.7942 10.684C33.8129 10.908 33.8595 11.0807 33.9342 11.202C34.0182 11.314 34.1349 11.3887 34.2842 11.426C34.4335 11.4633 34.6435 11.4913 34.9142 11.51V12H31.1902V11.51C31.4609 11.5007 31.6755 11.4773 31.8342 11.44C31.9929 11.3933 32.1142 11.314 32.1982 11.202C32.2822 11.09 32.3335 10.9313 32.3522 10.726C32.3802 10.5113 32.3942 10.2267 32.3942 9.872V8.234C32.3942 7.59933 32.3849 7.10467 32.3662 6.75C32.3569 6.39533 32.3102 6.134 32.2262 5.966C32.1515 5.798 32.0302 5.7 31.8622 5.672C31.6942 5.63467 31.4609 5.616 31.1622 5.616V5.126L33.6122 4.594L33.8082 6.33H33.8642C33.9855 6.05 34.1349 5.79333 34.3122 5.56C34.4989 5.32667 34.6995 5.13067 34.9142 4.972C35.1289 4.804 35.3529 4.67333 35.5862 4.58C35.8195 4.48667 36.0575 4.44 36.3002 4.44C36.5989 4.44 36.8322 4.51467 37.0002 4.664C37.1775 4.804 37.2662 4.99533 37.2662 5.238C37.2662 5.462 37.1962 5.63933 37.0562 5.77C36.9162 5.89133 36.7155 5.952 36.4542 5.952C36.3049 5.952 36.1789 5.93333 36.0762 5.896C35.9735 5.85867 35.8802 5.82133 35.7962 5.784C35.7215 5.73733 35.6469 5.69533 35.5722 5.658C35.5069 5.62067 35.4322 5.602 35.3482 5.602C35.0962 5.602 34.8442 5.76533 34.5922 6.092C34.3402 6.40933 34.1442 6.81533 34.0042 7.31C33.9295 7.58067 33.8689 7.88867 33.8222 8.234C33.7849 8.57 33.7662 8.92467 33.7662 9.298V9.774ZM37.8901 5.462V4.944C38.3847 4.65467 38.7721 4.36533 39.0521 4.076C39.3321 3.78667 39.5467 3.44133 39.6961 3.04H40.1021V4.804H41.9781V5.462H40.1021V9.718C40.1021 10.0447 40.1161 10.32 40.1441 10.544C40.1814 10.768 40.2374 10.95 40.3121 11.09C40.3867 11.2207 40.4847 11.314 40.6061 11.37C40.7274 11.426 40.8814 11.454 41.0681 11.454C41.3014 11.454 41.4974 11.4073 41.6561 11.314C41.8241 11.2113 41.9874 11.0433 42.1461 10.81L42.4961 11.076C42.3654 11.4213 42.1367 11.6873 41.8101 11.874C41.4927 12.0513 41.0961 12.14 40.6201 12.14C40.0041 12.14 39.5327 11.9953 39.2061 11.706C38.8887 11.4073 38.7301 10.9827 38.7301 10.432V5.462H37.8901ZM49.9291 10.698C49.1358 11.6593 48.1511 12.14 46.9751 12.14C46.4244 12.14 45.9251 12.0513 45.4771 11.874C45.0291 11.6873 44.6418 11.4307 44.3151 11.104C43.9978 10.768 43.7504 10.3713 43.5731 9.914C43.3958 9.44733 43.3071 8.934 43.3071 8.374C43.3071 7.80467 43.4004 7.27733 43.5871 6.792C43.7738 6.30667 44.0351 5.89133 44.3711 5.546C44.7164 5.20067 45.1224 4.93 45.5891 4.734C46.0651 4.538 46.5831 4.44 47.1431 4.44C48.0484 4.44 48.7484 4.68733 49.2431 5.182C49.7378 5.66733 49.9851 6.36733 49.9851 7.282C49.9851 7.41267 49.9571 7.492 49.9011 7.52C49.8544 7.548 49.7378 7.562 49.5511 7.562H44.9451C44.9264 7.63667 44.9124 7.73 44.9031 7.842C44.8938 7.94467 44.8891 8.06133 44.8891 8.192C44.8891 8.67733 44.9451 9.12067 45.0571 9.522C45.1784 9.914 45.3464 10.25 45.5611 10.53C45.7851 10.81 46.0464 11.0293 46.3451 11.188C46.6531 11.3373 46.9938 11.412 47.3671 11.412C47.7591 11.412 48.1231 11.328 48.4591 11.16C48.7951 10.9827 49.1404 10.698 49.4951 10.306L49.9291 10.698ZM47.6191 6.918C47.8058 6.918 47.9551 6.91333 48.0671 6.904C48.1791 6.89467 48.2631 6.876 48.3191 6.848C48.3751 6.82 48.4124 6.78267 48.4311 6.736C48.4498 6.68 48.4591 6.61 48.4591 6.526C48.4591 6.09667 48.3191 5.756 48.0391 5.504C47.7684 5.24267 47.3951 5.112 46.9191 5.112C45.9111 5.112 45.2858 5.714 45.0431 6.918H47.6191ZM53.7545 9.774C53.7545 10.1567 53.7638 10.46 53.7825 10.684C53.8012 10.908 53.8478 11.0807 53.9225 11.202C54.0065 11.314 54.1232 11.3887 54.2725 11.426C54.4218 11.4633 54.6318 11.4913 54.9025 11.51V12H51.1785V11.51C51.4492 11.5007 51.6638 11.4773 51.8225 11.44C51.9812 11.3933 52.1025 11.314 52.1865 11.202C52.2705 11.09 52.3218 10.9313 52.3405 10.726C52.3685 10.5113 52.3825 10.2267 52.3825 9.872V8.234C52.3825 7.59933 52.3732 7.10467 52.3545 6.75C52.3452 6.39533 52.2985 6.134 52.2145 5.966C52.1398 5.798 52.0185 5.7 51.8505 5.672C51.6825 5.63467 51.4492 5.616 51.1505 5.616V5.126L53.6005 4.594L53.7965 6.33H53.8525C53.9738 6.05 54.1232 5.79333 54.3005 5.56C54.4872 5.32667 54.6878 5.13067 54.9025 4.972C55.1172 4.804 55.3412 4.67333 55.5745 4.58C55.8078 4.48667 56.0458 4.44 56.2885 4.44C56.5872 4.44 56.8205 4.51467 56.9885 4.664C57.1658 4.804 57.2545 4.99533 57.2545 5.238C57.2545 5.462 57.1845 5.63933 57.0445 5.77C56.9045 5.89133 56.7038 5.952 56.4425 5.952C56.2932 5.952 56.1672 5.93333 56.0645 5.896C55.9618 5.85867 55.8685 5.82133 55.7845 5.784C55.7098 5.73733 55.6352 5.69533 55.5605 5.658C55.4952 5.62067 55.4205 5.602 55.3365 5.602C55.0845 5.602 54.8325 5.76533 54.5805 6.092C54.3285 6.40933 54.1325 6.81533 53.9925 7.31C53.9178 7.58067 53.8572 7.88867 53.8105 8.234C53.7732 8.57 53.7545 8.92467 53.7545 9.298V9.774ZM64.476 10.698C63.6826 11.6593 62.698 12.14 61.522 12.14C60.9713 12.14 60.472 12.0513 60.024 11.874C59.576 11.6873 59.1886 11.4307 58.862 11.104C58.5446 10.768 58.2973 10.3713 58.12 9.914C57.9426 9.44733 57.854 8.934 57.854 8.374C57.854 7.80467 57.9473 7.27733 58.134 6.792C58.3206 6.30667 58.582 5.89133 58.918 5.546C59.2633 5.20067 59.6693 4.93 60.136 4.734C60.612 4.538 61.13 4.44 61.69 4.44C62.5953 4.44 63.2953 4.68733 63.79 5.182C64.2846 5.66733 64.532 6.36733 64.532 7.282C64.532 7.41267 64.504 7.492 64.448 7.52C64.4013 7.548 64.2846 7.562 64.098 7.562H59.492C59.4733 7.63667 59.4593 7.73 59.45 7.842C59.4406 7.94467 59.436 8.06133 59.436 8.192C59.436 8.67733 59.492 9.12067 59.604 9.522C59.7253 9.914 59.8933 10.25 60.108 10.53C60.332 10.81 60.5933 11.0293 60.892 11.188C61.2 11.3373 61.5406 11.412 61.914 11.412C62.306 11.412 62.67 11.328 63.006 11.16C63.342 10.9827 63.6873 10.698 64.042 10.306L64.476 10.698ZM62.166 6.918C62.3526 6.918 62.502 6.91333 62.614 6.904C62.726 6.89467 62.81 6.876 62.866 6.848C62.922 6.82 62.9593 6.78267 62.978 6.736C62.9966 6.68 63.006 6.61 63.006 6.526C63.006 6.09667 62.866 5.756 62.586 5.504C62.3153 5.24267 61.942 5.112 61.466 5.112C60.458 5.112 59.8326 5.714 59.59 6.918H62.166ZM71.9694 10.824H71.9134C71.5774 11.3 71.218 11.6407 70.8354 11.846C70.462 12.042 70.0187 12.14 69.5054 12.14C68.9734 12.14 68.4834 12.0467 68.0354 11.86C67.5967 11.664 67.214 11.398 66.8874 11.062C66.57 10.7167 66.318 10.306 66.1314 9.83C65.954 9.354 65.8654 8.836 65.8654 8.276C65.8654 7.72533 65.954 7.21667 66.1314 6.75C66.318 6.274 66.57 5.868 66.8874 5.532C67.214 5.18667 67.6014 4.92067 68.0494 4.734C68.4974 4.538 68.9827 4.44 69.5054 4.44C69.9534 4.44 70.35 4.51467 70.6954 4.664C71.05 4.81333 71.3907 5.05133 71.7174 5.378V3.95C71.7174 3.418 71.708 2.97467 71.6894 2.62C71.68 2.26533 71.6614 2.02267 71.6334 1.892C71.5867 1.68667 71.456 1.542 71.2414 1.458C71.0267 1.374 70.6767 1.332 70.1914 1.332V0.911999L73.0614 0.379999V8.458C73.0614 9.102 73.066 9.634 73.0754 10.054C73.0847 10.4647 73.1127 10.7587 73.1594 10.936C73.1874 11.048 73.22 11.1413 73.2574 11.216C73.304 11.2907 73.3647 11.3513 73.4394 11.398C73.5234 11.4353 73.6307 11.4633 73.7614 11.482C73.9014 11.5007 74.0787 11.51 74.2934 11.51V11.986L71.9694 12.14V10.824ZM71.6894 7.73C71.6894 7.24467 71.6614 6.876 71.6054 6.624C71.5587 6.372 71.4607 6.15267 71.3114 5.966C71.0967 5.686 70.8214 5.476 70.4854 5.336C70.1587 5.18667 69.832 5.112 69.5054 5.112C68.8334 5.112 68.32 5.392 67.9654 5.952C67.62 6.50267 67.4474 7.254 67.4474 8.206C67.4474 8.70067 67.4894 9.14867 67.5734 9.55C67.6667 9.95133 67.7974 10.2967 67.9654 10.586C68.1427 10.866 68.3574 11.0853 68.6094 11.244C68.8707 11.3933 69.1694 11.468 69.5054 11.468C69.6734 11.468 69.8414 11.4493 70.0094 11.412C70.1867 11.3747 70.3547 11.3187 70.5134 11.244C70.6814 11.16 70.8354 11.0667 70.9754 10.964C71.1154 10.852 71.232 10.726 71.3254 10.586C71.456 10.3807 71.5494 10.1333 71.6054 9.844C71.6614 9.55467 71.6894 9.158 71.6894 8.654V7.73ZM79.8642 12H79.5562V9.592H79.9062C80.2702 10.908 80.9328 11.566 81.8942 11.566C82.2675 11.566 82.5615 11.4773 82.7762 11.3C83.0002 11.1133 83.1122 10.8333 83.1122 10.46C83.1122 10.32 83.0888 10.2033 83.0422 10.11C83.0048 10.0073 82.9255 9.90467 82.8042 9.802C82.6922 9.69 82.5288 9.564 82.3142 9.424C82.1088 9.284 81.8335 9.10667 81.4882 8.892C81.1708 8.696 80.8955 8.514 80.6622 8.346C80.4288 8.178 80.2328 8.01 80.0742 7.842C79.9155 7.66467 79.7942 7.478 79.7102 7.282C79.6355 7.086 79.5982 6.85733 79.5982 6.596C79.5982 6.27867 79.6495 5.98933 79.7522 5.728C79.8642 5.45733 80.0135 5.22867 80.2002 5.042C80.3868 4.85533 80.6062 4.71067 80.8582 4.608C81.1102 4.496 81.3855 4.44 81.6842 4.44C81.9362 4.44 82.1975 4.482 82.4682 4.566C82.7388 4.64067 82.9768 4.74333 83.1822 4.874L83.4622 4.58H83.7282V6.596H83.3642C83.1588 6.02667 82.9348 5.62067 82.6922 5.378C82.4495 5.13533 82.1508 5.014 81.7962 5.014C81.4788 5.014 81.2222 5.098 81.0262 5.266C80.8395 5.434 80.7462 5.66733 80.7462 5.966C80.7462 6.12467 80.7695 6.26467 80.8162 6.386C80.8722 6.498 80.9562 6.61 81.0682 6.722C81.1802 6.834 81.3202 6.95067 81.4882 7.072C81.6655 7.184 81.8755 7.31467 82.1182 7.464C82.5195 7.716 82.8602 7.94 83.1402 8.136C83.4295 8.332 83.6628 8.528 83.8402 8.724C84.0175 8.91067 84.1482 9.10667 84.2322 9.312C84.3162 9.51733 84.3582 9.75067 84.3582 10.012C84.3582 10.6747 84.1435 11.1973 83.7142 11.58C83.2848 11.9533 82.7202 12.14 82.0202 12.14C81.2922 12.14 80.6668 11.93 80.1442 11.51L79.8642 12ZM89.5676 4.44C90.0996 4.44 90.6036 4.538 91.0796 4.734C91.5556 4.92067 91.9709 5.182 92.3256 5.518C92.6896 5.854 92.9742 6.25533 93.1796 6.722C93.3942 7.17933 93.5016 7.68333 93.5016 8.234C93.5016 8.80333 93.3942 9.326 93.1796 9.802C92.9742 10.278 92.6896 10.6887 92.3256 11.034C91.9709 11.3793 91.5556 11.65 91.0796 11.846C90.6036 12.042 90.0996 12.14 89.5676 12.14C89.0449 12.14 88.5456 12.0467 88.0696 11.86C87.6029 11.664 87.1922 11.3933 86.8376 11.048C86.4829 10.7027 86.2029 10.292 85.9976 9.816C85.7922 9.33067 85.6896 8.80333 85.6896 8.234C85.6896 7.68333 85.7922 7.17467 85.9976 6.708C86.2029 6.24133 86.4829 5.84 86.8376 5.504C87.1922 5.168 87.6029 4.90667 88.0696 4.72C88.5456 4.53333 89.0449 4.44 89.5676 4.44ZM89.5676 5.112C89.2222 5.112 88.9049 5.18667 88.6156 5.336C88.3356 5.48533 88.0929 5.7 87.8876 5.98C87.6916 6.25067 87.5376 6.582 87.4256 6.974C87.3229 7.35667 87.2716 7.78133 87.2716 8.248C87.2716 8.73333 87.3229 9.172 87.4256 9.564C87.5376 9.956 87.6916 10.292 87.8876 10.572C88.0929 10.8427 88.3356 11.0527 88.6156 11.202C88.8956 11.3513 89.2129 11.426 89.5676 11.426C89.9222 11.426 90.2442 11.3513 90.5336 11.202C90.8229 11.0527 91.0702 10.838 91.2756 10.558C91.4809 10.278 91.6396 9.942 91.7516 9.55C91.8636 9.158 91.9196 8.724 91.9196 8.248C91.9196 7.78133 91.8636 7.35667 91.7516 6.974C91.6396 6.59133 91.4809 6.26467 91.2756 5.994C91.0702 5.714 90.8229 5.49933 90.5336 5.35C90.2442 5.19133 89.9222 5.112 89.5676 5.112ZM101.262 10.838C100.926 11.2487 100.492 11.5707 99.9597 11.804C99.4277 12.028 98.8537 12.14 98.2377 12.14C97.7431 12.14 97.2857 12.0513 96.8657 11.874C96.4551 11.6873 96.1004 11.4307 95.8017 11.104C95.5031 10.768 95.2697 10.3667 95.1017 9.9C94.9431 9.43333 94.8637 8.91533 94.8637 8.346C94.8637 7.74867 94.9571 7.212 95.1437 6.736C95.3304 6.25067 95.5917 5.84 95.9277 5.504C96.2731 5.15867 96.6837 4.89733 97.1597 4.72C97.6451 4.53333 98.1771 4.44 98.7557 4.44C99.1197 4.44 99.4511 4.47267 99.7497 4.538C100.048 4.594 100.305 4.678 100.52 4.79C100.744 4.89267 100.916 5.02333 101.038 5.182C101.159 5.33133 101.22 5.49467 101.22 5.672C101.22 5.85867 101.159 6.00333 101.038 6.106C100.916 6.20867 100.748 6.26 100.534 6.26C100.366 6.26 100.226 6.22733 100.114 6.162C100.002 6.08733 99.8571 5.92867 99.6797 5.686C99.4931 5.47133 99.3111 5.322 99.1337 5.238C98.9657 5.14467 98.7464 5.098 98.4757 5.098C97.8131 5.098 97.3091 5.35467 96.9637 5.868C96.6277 6.38133 96.4597 7.13733 96.4597 8.136C96.4597 9.20933 96.6464 10.026 97.0197 10.586C97.4024 11.1367 97.9577 11.412 98.6857 11.412C99.0777 11.412 99.4464 11.3373 99.7917 11.188C100.137 11.0293 100.487 10.7773 100.842 10.432L101.262 10.838ZM104.876 9.774C104.876 10.138 104.89 10.432 104.918 10.656C104.955 10.8707 105.02 11.0433 105.114 11.174C105.207 11.2953 105.338 11.3793 105.506 11.426C105.674 11.4727 105.898 11.5007 106.178 11.51V12H102.16V11.51C102.44 11.5007 102.668 11.4727 102.846 11.426C103.023 11.37 103.158 11.286 103.252 11.174C103.354 11.0527 103.42 10.8893 103.448 10.684C103.485 10.4693 103.504 10.1987 103.504 9.872V8.08C103.504 7.53867 103.494 7.09533 103.476 6.75C103.466 6.39533 103.443 6.15267 103.406 6.022C103.359 5.80733 103.252 5.66267 103.084 5.588C102.916 5.504 102.598 5.462 102.132 5.462V4.972L104.876 4.44V9.774ZM103.266 1.598C103.266 1.35533 103.35 1.15 103.518 0.981999C103.686 0.813999 103.891 0.729999 104.134 0.729999C104.376 0.729999 104.582 0.813999 104.75 0.981999C104.918 1.15 105.002 1.35533 105.002 1.598C105.002 1.84067 104.918 2.046 104.75 2.214C104.582 2.382 104.376 2.466 104.134 2.466C103.891 2.466 103.686 2.382 103.518 2.214C103.35 2.046 103.266 1.84067 103.266 1.598ZM113.763 10.698C112.97 11.6593 111.985 12.14 110.809 12.14C110.258 12.14 109.759 12.0513 109.311 11.874C108.863 11.6873 108.476 11.4307 108.149 11.104C107.832 10.768 107.584 10.3713 107.407 9.914C107.23 9.44733 107.141 8.934 107.141 8.374C107.141 7.80467 107.234 7.27733 107.421 6.792C107.608 6.30667 107.869 5.89133 108.205 5.546C108.55 5.20067 108.956 4.93 109.423 4.734C109.899 4.538 110.417 4.44 110.977 4.44C111.882 4.44 112.582 4.68733 113.077 5.182C113.572 5.66733 113.819 6.36733 113.819 7.282C113.819 7.41267 113.791 7.492 113.735 7.52C113.688 7.548 113.572 7.562 113.385 7.562H108.779C108.76 7.63667 108.746 7.73 108.737 7.842C108.728 7.94467 108.723 8.06133 108.723 8.192C108.723 8.67733 108.779 9.12067 108.891 9.522C109.012 9.914 109.18 10.25 109.395 10.53C109.619 10.81 109.88 11.0293 110.179 11.188C110.487 11.3373 110.828 11.412 111.201 11.412C111.593 11.412 111.957 11.328 112.293 11.16C112.629 10.9827 112.974 10.698 113.329 10.306L113.763 10.698ZM111.453 6.918C111.64 6.918 111.789 6.91333 111.901 6.904C112.013 6.89467 112.097 6.876 112.153 6.848C112.209 6.82 112.246 6.78267 112.265 6.736C112.284 6.68 112.293 6.61 112.293 6.526C112.293 6.09667 112.153 5.756 111.873 5.504C111.602 5.24267 111.229 5.112 110.753 5.112C109.745 5.112 109.12 5.714 108.877 6.918H111.453ZM115.04 5.462V4.944C115.535 4.65467 115.922 4.36533 116.202 4.076C116.482 3.78667 116.697 3.44133 116.846 3.04H117.252V4.804H119.128V5.462H117.252V9.718C117.252 10.0447 117.266 10.32 117.294 10.544C117.332 10.768 117.388 10.95 117.462 11.09C117.537 11.2207 117.635 11.314 117.756 11.37C117.878 11.426 118.032 11.454 118.218 11.454C118.452 11.454 118.648 11.4073 118.806 11.314C118.974 11.2113 119.138 11.0433 119.296 10.81L119.646 11.076C119.516 11.4213 119.287 11.6873 118.96 11.874C118.643 12.0513 118.246 12.14 117.77 12.14C117.154 12.14 116.683 11.9953 116.356 11.706C116.039 11.4073 115.88 10.9827 115.88 10.432V5.462H115.04ZM123.705 14.198C123.276 15.1593 122.609 15.64 121.703 15.64C121.115 15.64 120.821 15.4207 120.821 14.982C120.821 14.7487 120.901 14.576 121.059 14.464C121.227 14.3613 121.531 14.2727 121.969 14.198C122.165 14.17 122.333 14.128 122.473 14.072C122.613 14.0253 122.739 13.96 122.851 13.876C122.963 13.8013 123.061 13.7033 123.145 13.582C123.239 13.4607 123.327 13.3113 123.411 13.134L123.901 12.154L121.213 6.316C121.092 6.05467 120.985 5.84933 120.891 5.7C120.807 5.54133 120.714 5.42 120.611 5.336C120.518 5.24267 120.411 5.182 120.289 5.154C120.168 5.11667 120.014 5.08867 119.827 5.07V4.58H123.537V5.07C122.912 5.07 122.599 5.224 122.599 5.532C122.599 5.65333 122.637 5.84467 122.711 6.106C122.786 6.36733 122.879 6.63333 122.991 6.904L124.531 10.628H124.601L125.875 7.478C125.997 7.17 126.095 6.918 126.169 6.722C126.253 6.526 126.314 6.36733 126.351 6.246C126.398 6.11533 126.426 6.008 126.435 5.924C126.454 5.84 126.463 5.76067 126.463 5.686C126.463 5.44333 126.393 5.28 126.253 5.196C126.123 5.112 125.866 5.07 125.483 5.07V4.58H128.563V5.07C128.386 5.07 128.237 5.09333 128.115 5.14C127.994 5.18667 127.868 5.294 127.737 5.462C127.616 5.62067 127.476 5.854 127.317 6.162C127.168 6.47 126.981 6.88533 126.757 7.408L123.705 14.198ZM136.859 4.44C137.391 4.44 137.895 4.538 138.371 4.734C138.847 4.92067 139.262 5.182 139.617 5.518C139.981 5.854 140.265 6.25533 140.471 6.722C140.685 7.17933 140.793 7.68333 140.793 8.234C140.793 8.80333 140.685 9.326 140.471 9.802C140.265 10.278 139.981 10.6887 139.617 11.034C139.262 11.3793 138.847 11.65 138.371 11.846C137.895 12.042 137.391 12.14 136.859 12.14C136.336 12.14 135.837 12.0467 135.361 11.86C134.894 11.664 134.483 11.3933 134.129 11.048C133.774 10.7027 133.494 10.292 133.289 9.816C133.083 9.33067 132.981 8.80333 132.981 8.234C132.981 7.68333 133.083 7.17467 133.289 6.708C133.494 6.24133 133.774 5.84 134.129 5.504C134.483 5.168 134.894 4.90667 135.361 4.72C135.837 4.53333 136.336 4.44 136.859 4.44ZM136.859 5.112C136.513 5.112 136.196 5.18667 135.907 5.336C135.627 5.48533 135.384 5.7 135.179 5.98C134.983 6.25067 134.829 6.582 134.717 6.974C134.614 7.35667 134.563 7.78133 134.563 8.248C134.563 8.73333 134.614 9.172 134.717 9.564C134.829 9.956 134.983 10.292 135.179 10.572C135.384 10.8427 135.627 11.0527 135.907 11.202C136.187 11.3513 136.504 11.426 136.859 11.426C137.213 11.426 137.535 11.3513 137.825 11.202C138.114 11.0527 138.361 10.838 138.567 10.558C138.772 10.278 138.931 9.942 139.043 9.55C139.155 9.158 139.211 8.724 139.211 8.248C139.211 7.78133 139.155 7.35667 139.043 6.974C138.931 6.59133 138.772 6.26467 138.567 5.994C138.361 5.714 138.114 5.49933 137.825 5.35C137.535 5.19133 137.213 5.112 136.859 5.112ZM141.777 4.804H143.359V3.796C143.359 2.72267 143.639 1.88733 144.199 1.29C144.768 0.683333 145.575 0.379999 146.621 0.379999C147.199 0.379999 147.671 0.468666 148.035 0.645999C148.399 0.823333 148.581 1.052 148.581 1.332C148.581 1.51867 148.52 1.67733 148.399 1.808C148.287 1.92933 148.142 1.99 147.965 1.99C147.853 1.99 147.731 1.95733 147.601 1.892C147.479 1.81733 147.316 1.696 147.111 1.528C146.877 1.332 146.695 1.206 146.565 1.15C146.434 1.08467 146.28 1.052 146.103 1.052C145.543 1.052 145.141 1.33667 144.899 1.906C144.815 2.09267 144.754 2.32133 144.717 2.592C144.689 2.86267 144.675 3.236 144.675 3.712V4.804H146.929V5.462H144.675V9.746C144.675 10.0913 144.693 10.376 144.731 10.6C144.777 10.824 144.852 11.006 144.955 11.146C145.067 11.2767 145.216 11.37 145.403 11.426C145.589 11.4727 145.832 11.5007 146.131 11.51V12H142.155V11.51C142.416 11.5007 142.626 11.4773 142.785 11.44C142.943 11.3933 143.065 11.314 143.149 11.202C143.233 11.0807 143.289 10.9173 143.317 10.712C143.345 10.4973 143.359 10.2127 143.359 9.858V5.462H141.777V4.804ZM2.92535 21.588H2.98135C3.28002 21.2333 3.60202 20.9533 3.94735 20.748C4.29269 20.5427 4.69402 20.44 5.15135 20.44C5.68335 20.44 6.16869 20.538 6.60735 20.734C7.05535 20.9207 7.44269 21.1867 7.76935 21.532C8.09602 21.8773 8.34802 22.288 8.52535 22.764C8.71202 23.2307 8.80535 23.744 8.80535 24.304C8.80535 24.8733 8.71202 25.396 8.52535 25.872C8.33869 26.3387 8.08202 26.74 7.75535 27.076C7.42869 27.412 7.04135 27.6733 6.59335 27.86C6.14535 28.0467 5.66002 28.14 5.13735 28.14C4.70802 28.14 4.31602 28.07 3.96135 27.93C3.61602 27.7807 3.28935 27.5427 2.98135 27.216V29.26C2.98135 29.6333 3.00002 29.932 3.03735 30.156C3.07469 30.38 3.14935 30.5527 3.26135 30.674C3.37335 30.7953 3.53202 30.8793 3.73735 30.926C3.95202 30.9727 4.23202 31.0007 4.57735 31.01V31.5H0.265352V31.01C0.545352 31.0007 0.769352 30.9727 0.937352 30.926C1.11468 30.8793 1.25002 30.7953 1.34335 30.674C1.44602 30.5527 1.51602 30.3847 1.55335 30.17C1.59068 29.9647 1.60935 29.694 1.60935 29.358V24.122C1.60935 23.5807 1.60002 23.1373 1.58135 22.792C1.57202 22.4467 1.54868 22.2087 1.51135 22.078C1.46468 21.854 1.35735 21.7047 1.18935 21.63C1.02135 21.546 0.704018 21.504 0.237352 21.504V21.028L2.92535 20.496V21.588ZM3.34535 21.994C3.22402 22.1807 3.13069 22.4047 3.06535 22.666C3.00935 22.918 2.98135 23.2493 2.98135 23.66V24.752C2.98135 25.004 2.98602 25.2233 2.99535 25.41C3.01402 25.5873 3.03735 25.7413 3.06535 25.872C3.09335 26.0027 3.13069 26.1193 3.17735 26.222C3.22402 26.3247 3.28469 26.4227 3.35935 26.516C3.57402 26.8147 3.83068 27.048 4.12935 27.216C4.42802 27.3747 4.74069 27.454 5.06735 27.454C5.71135 27.454 6.22935 27.1833 6.62135 26.642C7.02269 26.1007 7.22335 25.34 7.22335 24.36C7.22335 23.8747 7.16735 23.436 7.05535 23.044C6.95269 22.6427 6.80335 22.302 6.60735 22.022C6.41135 21.7327 6.17335 21.5087 5.89335 21.35C5.62269 21.1913 5.31935 21.112 4.98335 21.112C4.64735 21.112 4.33469 21.1913 4.04535 21.35C3.76535 21.4993 3.53202 21.714 3.34535 21.994ZM12.3993 25.774C12.3993 26.1567 12.4086 26.46 12.4273 26.684C12.446 26.908 12.4926 27.0807 12.5673 27.202C12.6513 27.314 12.768 27.3887 12.9173 27.426C13.0666 27.4633 13.2766 27.4913 13.5473 27.51V28H9.8233V27.51C10.094 27.4913 10.3086 27.4633 10.4673 27.426C10.626 27.3887 10.7473 27.314 10.8313 27.202C10.9153 27.09 10.9666 26.9313 10.9853 26.726C11.0133 26.5113 11.0273 26.2267 11.0273 25.872V20.006C11.0273 19.4553 11.018 19.0167 10.9993 18.69C10.99 18.3633 10.9666 18.116 10.9293 17.948C10.9106 17.836 10.878 17.7473 10.8313 17.682C10.794 17.6073 10.7333 17.5513 10.6493 17.514C10.5653 17.4673 10.4533 17.4347 10.3133 17.416C10.1733 17.3973 10.0006 17.388 9.7953 17.388V16.912L12.3713 16.38V21.714H12.4273C12.5673 21.5273 12.74 21.3593 12.9453 21.21C13.16 21.0513 13.3886 20.916 13.6313 20.804C13.874 20.692 14.126 20.6033 14.3873 20.538C14.658 20.4727 14.9193 20.44 15.1713 20.44C15.6006 20.44 15.9926 20.5147 16.3473 20.664C16.7113 20.8133 16.9913 21.014 17.1873 21.266C17.346 21.4807 17.4626 21.7653 17.5373 22.12C17.612 22.4653 17.6493 22.9367 17.6493 23.534V25.774C17.6493 26.1567 17.6586 26.46 17.6773 26.684C17.696 26.8987 17.7426 27.0667 17.8173 27.188C17.9013 27.3093 18.018 27.3887 18.1673 27.426C18.3166 27.4633 18.5266 27.4913 18.7973 27.51V28H15.0873V27.51C15.3486 27.5007 15.5586 27.4773 15.7173 27.44C15.876 27.3933 15.9926 27.314 16.0673 27.202C16.1513 27.09 16.2026 26.9313 16.2213 26.726C16.2493 26.5113 16.2633 26.2267 16.2633 25.872V24.108C16.2633 23.0627 16.142 22.3207 15.8993 21.882C15.6566 21.434 15.2506 21.21 14.6813 21.21C14.2426 21.21 13.8413 21.322 13.4773 21.546C13.1226 21.77 12.8426 22.078 12.6373 22.47C12.5906 22.5727 12.5486 22.6707 12.5113 22.764C12.4833 22.848 12.46 22.946 12.4413 23.058C12.4226 23.17 12.4086 23.3007 12.3993 23.45C12.3993 23.59 12.3993 23.7673 12.3993 23.982V25.774ZM22.7865 30.198C22.3572 31.1593 21.6899 31.64 20.7845 31.64C20.1965 31.64 19.9025 31.4207 19.9025 30.982C19.9025 30.7487 19.9819 30.576 20.1405 30.464C20.3085 30.3613 20.6119 30.2727 21.0505 30.198C21.2465 30.17 21.4145 30.128 21.5545 30.072C21.6945 30.0253 21.8205 29.96 21.9325 29.876C22.0445 29.8013 22.1425 29.7033 22.2265 29.582C22.3199 29.4607 22.4085 29.3113 22.4925 29.134L22.9825 28.154L20.2945 22.316C20.1732 22.0547 20.0659 21.8493 19.9725 21.7C19.8885 21.5413 19.7952 21.42 19.6925 21.336C19.5992 21.2427 19.4919 21.182 19.3705 21.154C19.2492 21.1167 19.0952 21.0887 18.9085 21.07V20.58H22.6185V21.07C21.9932 21.07 21.6805 21.224 21.6805 21.532C21.6805 21.6533 21.7179 21.8447 21.7925 22.106C21.8672 22.3673 21.9605 22.6333 22.0725 22.904L23.6125 26.628H23.6825L24.9565 23.478C25.0779 23.17 25.1759 22.918 25.2505 22.722C25.3345 22.526 25.3952 22.3673 25.4325 22.246C25.4792 22.1153 25.5072 22.008 25.5165 21.924C25.5352 21.84 25.5445 21.7607 25.5445 21.686C25.5445 21.4433 25.4745 21.28 25.3345 21.196C25.2039 21.112 24.9472 21.07 24.5645 21.07V20.58H27.6445V21.07C27.4672 21.07 27.3179 21.0933 27.1965 21.14C27.0752 21.1867 26.9492 21.294 26.8185 21.462C26.6972 21.6207 26.5572 21.854 26.3985 22.162C26.2492 22.47 26.0625 22.8853 25.8385 23.408L22.7865 30.198ZM28.7929 28H28.4849V25.592H28.8349C29.1989 26.908 29.8615 27.566 30.8229 27.566C31.1962 27.566 31.4902 27.4773 31.7049 27.3C31.9289 27.1133 32.0409 26.8333 32.0409 26.46C32.0409 26.32 32.0175 26.2033 31.9709 26.11C31.9335 26.0073 31.8542 25.9047 31.7329 25.802C31.6209 25.69 31.4575 25.564 31.2429 25.424C31.0375 25.284 30.7622 25.1067 30.4169 24.892C30.0995 24.696 29.8242 24.514 29.5909 24.346C29.3575 24.178 29.1615 24.01 29.0029 23.842C28.8442 23.6647 28.7229 23.478 28.6389 23.282C28.5642 23.086 28.5269 22.8573 28.5269 22.596C28.5269 22.2787 28.5782 21.9893 28.6809 21.728C28.7929 21.4573 28.9422 21.2287 29.1289 21.042C29.3155 20.8553 29.5349 20.7107 29.7869 20.608C30.0389 20.496 30.3142 20.44 30.6129 20.44C30.8649 20.44 31.1262 20.482 31.3969 20.566C31.6675 20.6407 31.9055 20.7433 32.1109 20.874L32.3909 20.58H32.6569V22.596H32.2929C32.0875 22.0267 31.8635 21.6207 31.6209 21.378C31.3782 21.1353 31.0795 21.014 30.7249 21.014C30.4075 21.014 30.1509 21.098 29.9549 21.266C29.7682 21.434 29.6749 21.6673 29.6749 21.966C29.6749 22.1247 29.6982 22.2647 29.7449 22.386C29.8009 22.498 29.8849 22.61 29.9969 22.722C30.1089 22.834 30.2489 22.9507 30.4169 23.072C30.5942 23.184 30.8042 23.3147 31.0469 23.464C31.4482 23.716 31.7889 23.94 32.0689 24.136C32.3582 24.332 32.5915 24.528 32.7689 24.724C32.9462 24.9107 33.0769 25.1067 33.1609 25.312C33.2449 25.5173 33.2869 25.7507 33.2869 26.012C33.2869 26.6747 33.0722 27.1973 32.6429 27.58C32.2135 27.9533 31.6489 28.14 30.9489 28.14C30.2209 28.14 29.5955 27.93 29.0729 27.51L28.7929 28ZM37.1383 25.774C37.1383 26.138 37.1523 26.432 37.1803 26.656C37.2176 26.8707 37.283 27.0433 37.3763 27.174C37.4696 27.2953 37.6003 27.3793 37.7683 27.426C37.9363 27.4727 38.1603 27.5007 38.4403 27.51V28H34.4223V27.51C34.7023 27.5007 34.931 27.4727 35.1083 27.426C35.2856 27.37 35.421 27.286 35.5143 27.174C35.617 27.0527 35.6823 26.8893 35.7103 26.684C35.7476 26.4693 35.7663 26.1987 35.7663 25.872V24.08C35.7663 23.5387 35.757 23.0953 35.7383 22.75C35.729 22.3953 35.7056 22.1527 35.6683 22.022C35.6216 21.8073 35.5143 21.6627 35.3463 21.588C35.1783 21.504 34.861 21.462 34.3943 21.462V20.972L37.1383 20.44V25.774ZM35.5283 17.598C35.5283 17.3553 35.6123 17.15 35.7803 16.982C35.9483 16.814 36.1536 16.73 36.3963 16.73C36.639 16.73 36.8443 16.814 37.0123 16.982C37.1803 17.15 37.2643 17.3553 37.2643 17.598C37.2643 17.8407 37.1803 18.046 37.0123 18.214C36.8443 18.382 36.639 18.466 36.3963 18.466C36.1536 18.466 35.9483 18.382 35.7803 18.214C35.6123 18.046 35.5283 17.8407 35.5283 17.598ZM43.2678 20.44C43.7998 20.44 44.3038 20.538 44.7798 20.734C45.2558 20.9207 45.6711 21.182 46.0258 21.518C46.3898 21.854 46.6744 22.2553 46.8798 22.722C47.0944 23.1793 47.2018 23.6833 47.2018 24.234C47.2018 24.8033 47.0944 25.326 46.8798 25.802C46.6744 26.278 46.3898 26.6887 46.0258 27.034C45.6711 27.3793 45.2558 27.65 44.7798 27.846C44.3038 28.042 43.7998 28.14 43.2678 28.14C42.7451 28.14 42.2458 28.0467 41.7698 27.86C41.3031 27.664 40.8924 27.3933 40.5378 27.048C40.1831 26.7027 39.9031 26.292 39.6978 25.816C39.4924 25.3307 39.3898 24.8033 39.3898 24.234C39.3898 23.6833 39.4924 23.1747 39.6978 22.708C39.9031 22.2413 40.1831 21.84 40.5378 21.504C40.8924 21.168 41.3031 20.9067 41.7698 20.72C42.2458 20.5333 42.7451 20.44 43.2678 20.44ZM43.2678 21.112C42.9224 21.112 42.6051 21.1867 42.3158 21.336C42.0358 21.4853 41.7931 21.7 41.5878 21.98C41.3918 22.2507 41.2378 22.582 41.1258 22.974C41.0231 23.3567 40.9718 23.7813 40.9718 24.248C40.9718 24.7333 41.0231 25.172 41.1258 25.564C41.2378 25.956 41.3918 26.292 41.5878 26.572C41.7931 26.8427 42.0358 27.0527 42.3158 27.202C42.5958 27.3513 42.9131 27.426 43.2678 27.426C43.6224 27.426 43.9444 27.3513 44.2338 27.202C44.5231 27.0527 44.7704 26.838 44.9758 26.558C45.1811 26.278 45.3398 25.942 45.4518 25.55C45.5638 25.158 45.6198 24.724 45.6198 24.248C45.6198 23.7813 45.5638 23.3567 45.4518 22.974C45.3398 22.5913 45.1811 22.2647 44.9758 21.994C44.7704 21.714 44.5231 21.4993 44.2338 21.35C43.9444 21.1913 43.6224 21.112 43.2678 21.112ZM48.4379 21.462V20.944C48.9326 20.6547 49.3199 20.3653 49.5999 20.076C49.8799 19.7867 50.0946 19.4413 50.2439 19.04H50.6499V20.804H52.5259V21.462H50.6499V25.718C50.6499 26.0447 50.6639 26.32 50.6919 26.544C50.7293 26.768 50.7853 26.95 50.8599 27.09C50.9346 27.2207 51.0326 27.314 51.1539 27.37C51.2753 27.426 51.4293 27.454 51.6159 27.454C51.8493 27.454 52.0453 27.4073 52.2039 27.314C52.3719 27.2113 52.5353 27.0433 52.6939 26.81L53.0439 27.076C52.9133 27.4213 52.6846 27.6873 52.3579 27.874C52.0406 28.0513 51.6439 28.14 51.1679 28.14C50.5519 28.14 50.0806 27.9953 49.7539 27.706C49.4366 27.4073 49.2779 26.9827 49.2779 26.432V21.462H48.4379ZM56.0809 25.774C56.0809 26.1567 56.0903 26.46 56.1089 26.684C56.1276 26.908 56.1743 27.0807 56.2489 27.202C56.3329 27.314 56.4496 27.3887 56.5989 27.426C56.7483 27.4633 56.9583 27.4913 57.2289 27.51V28H53.5049V27.51C53.7756 27.4913 53.9903 27.4633 54.1489 27.426C54.3076 27.3887 54.4289 27.314 54.5129 27.202C54.5969 27.09 54.6483 26.9313 54.6669 26.726C54.6949 26.5113 54.7089 26.2267 54.7089 25.872V20.006C54.7089 19.4553 54.6996 19.0167 54.6809 18.69C54.6716 18.3633 54.6483 18.116 54.6109 17.948C54.5923 17.836 54.5596 17.7473 54.5129 17.682C54.4756 17.6073 54.4149 17.5513 54.3309 17.514C54.2469 17.4673 54.1349 17.4347 53.9949 17.416C53.8549 17.3973 53.6823 17.388 53.4769 17.388V16.912L56.0529 16.38V21.714H56.1089C56.2489 21.5273 56.4216 21.3593 56.6269 21.21C56.8416 21.0513 57.0703 20.916 57.3129 20.804C57.5556 20.692 57.8076 20.6033 58.0689 20.538C58.3396 20.4727 58.6009 20.44 58.8529 20.44C59.2823 20.44 59.6743 20.5147 60.0289 20.664C60.3929 20.8133 60.6729 21.014 60.8689 21.266C61.0276 21.4807 61.1443 21.7653 61.2189 22.12C61.2936 22.4653 61.3309 22.9367 61.3309 23.534V25.774C61.3309 26.1567 61.3403 26.46 61.3589 26.684C61.3776 26.8987 61.4243 27.0667 61.4989 27.188C61.5829 27.3093 61.6996 27.3887 61.8489 27.426C61.9983 27.4633 62.2083 27.4913 62.4789 27.51V28H58.7689V27.51C59.0303 27.5007 59.2403 27.4773 59.3989 27.44C59.5576 27.3933 59.6743 27.314 59.7489 27.202C59.8329 27.09 59.8843 26.9313 59.9029 26.726C59.9309 26.5113 59.9449 26.2267 59.9449 25.872V24.108C59.9449 23.0627 59.8236 22.3207 59.5809 21.882C59.3383 21.434 58.9323 21.21 58.3629 21.21C57.9243 21.21 57.5229 21.322 57.1589 21.546C56.8043 21.77 56.5243 22.078 56.3189 22.47C56.2723 22.5727 56.2303 22.6707 56.1929 22.764C56.1649 22.848 56.1416 22.946 56.1229 23.058C56.1043 23.17 56.0903 23.3007 56.0809 23.45C56.0809 23.59 56.0809 23.7673 56.0809 23.982V25.774ZM70.1156 26.698C69.3223 27.6593 68.3376 28.14 67.1616 28.14C66.611 28.14 66.1116 28.0513 65.6636 27.874C65.2156 27.6873 64.8283 27.4307 64.5016 27.104C64.1843 26.768 63.937 26.3713 63.7596 25.914C63.5823 25.4473 63.4936 24.934 63.4936 24.374C63.4936 23.8047 63.587 23.2773 63.7736 22.792C63.9603 22.3067 64.2216 21.8913 64.5576 21.546C64.903 21.2007 65.309 20.93 65.7756 20.734C66.2516 20.538 66.7696 20.44 67.3296 20.44C68.235 20.44 68.935 20.6873 69.4296 21.182C69.9243 21.6673 70.1716 22.3673 70.1716 23.282C70.1716 23.4127 70.1436 23.492 70.0876 23.52C70.041 23.548 69.9243 23.562 69.7376 23.562H65.1316C65.113 23.6367 65.099 23.73 65.0896 23.842C65.0803 23.9447 65.0756 24.0613 65.0756 24.192C65.0756 24.6773 65.1316 25.1207 65.2436 25.522C65.365 25.914 65.533 26.25 65.7476 26.53C65.9716 26.81 66.233 27.0293 66.5316 27.188C66.8396 27.3373 67.1803 27.412 67.5536 27.412C67.9456 27.412 68.3096 27.328 68.6456 27.16C68.9816 26.9827 69.327 26.698 69.6816 26.306L70.1156 26.698ZM67.8056 22.918C67.9923 22.918 68.1416 22.9133 68.2536 22.904C68.3656 22.8947 68.4496 22.876 68.5056 22.848C68.5616 22.82 68.599 22.7827 68.6176 22.736C68.6363 22.68 68.6456 22.61 68.6456 22.526C68.6456 22.0967 68.5056 21.756 68.2256 21.504C67.955 21.2427 67.5816 21.112 67.1056 21.112C66.0976 21.112 65.4723 21.714 65.2296 22.918H67.8056ZM73.941 25.774C73.941 26.1567 73.9503 26.46 73.969 26.684C73.9877 26.908 74.0343 27.0807 74.109 27.202C74.193 27.314 74.3097 27.3887 74.459 27.426C74.6083 27.4633 74.8183 27.4913 75.089 27.51V28H71.365V27.51C71.6357 27.5007 71.8503 27.4773 72.009 27.44C72.1677 27.3933 72.289 27.314 72.373 27.202C72.457 27.09 72.5083 26.9313 72.527 26.726C72.555 26.5113 72.569 26.2267 72.569 25.872V24.234C72.569 23.5993 72.5597 23.1047 72.541 22.75C72.5317 22.3953 72.485 22.134 72.401 21.966C72.3263 21.798 72.205 21.7 72.037 21.672C71.869 21.6347 71.6357 21.616 71.337 21.616V21.126L73.787 20.594L73.983 22.33H74.039C74.1603 22.05 74.3097 21.7933 74.487 21.56C74.6737 21.3267 74.8743 21.1307 75.089 20.972C75.3037 20.804 75.5277 20.6733 75.761 20.58C75.9943 20.4867 76.2323 20.44 76.475 20.44C76.7737 20.44 77.007 20.5147 77.175 20.664C77.3523 20.804 77.441 20.9953 77.441 21.238C77.441 21.462 77.371 21.6393 77.231 21.77C77.091 21.8913 76.8903 21.952 76.629 21.952C76.4797 21.952 76.3537 21.9333 76.251 21.896C76.1483 21.8587 76.055 21.8213 75.971 21.784C75.8963 21.7373 75.8217 21.6953 75.747 21.658C75.6817 21.6207 75.607 21.602 75.523 21.602C75.271 21.602 75.019 21.7653 74.767 22.092C74.515 22.4093 74.319 22.8153 74.179 23.31C74.1043 23.5807 74.0437 23.8887 73.997 24.234C73.9597 24.57 73.941 24.9247 73.941 25.298V25.774ZM82.3909 23.856C81.8589 24.0613 81.4062 24.262 81.0329 24.458C80.6689 24.654 80.3749 24.85 80.1509 25.046C79.9269 25.242 79.7635 25.438 79.6609 25.634C79.5675 25.83 79.5209 26.0307 79.5209 26.236C79.5209 26.544 79.6235 26.796 79.8289 26.992C80.0342 27.188 80.3049 27.286 80.6409 27.286C80.8835 27.286 81.1075 27.2253 81.3129 27.104C81.5275 26.9827 81.7142 26.8193 81.8729 26.614C82.0315 26.3993 82.1575 26.152 82.2509 25.872C82.3442 25.5827 82.3909 25.2793 82.3909 24.962V23.856ZM82.3909 23.254V22.68C82.3909 21.5413 81.9055 20.972 80.9349 20.972C80.7762 20.972 80.6409 20.986 80.5289 21.014C80.4169 21.042 80.3235 21.0887 80.2489 21.154C80.1742 21.2193 80.1042 21.3127 80.0389 21.434C79.9829 21.5553 79.9269 21.7047 79.8709 21.882C79.7682 22.1527 79.6655 22.3347 79.5629 22.428C79.4695 22.512 79.3295 22.554 79.1429 22.554C78.6762 22.554 78.4429 22.3207 78.4429 21.854C78.4429 21.406 78.6809 21.0607 79.1569 20.818C79.6329 20.566 80.3095 20.44 81.1869 20.44C82.1202 20.44 82.7829 20.608 83.1749 20.944C83.5669 21.2707 83.7629 21.8307 83.7629 22.624V25.76C83.7629 26.824 83.9729 27.356 84.3929 27.356C84.5235 27.356 84.6496 27.342 84.7709 27.314C84.8922 27.2767 84.9949 27.188 85.0789 27.048L85.2749 27.384C85.1629 27.5987 84.9576 27.7807 84.6589 27.93C84.3602 28.07 84.0475 28.14 83.7209 28.14C83.3102 28.14 83.0022 28.0093 82.7969 27.748C82.6009 27.4867 82.5029 27.118 82.5029 26.642H82.4329C82.1902 27.0993 81.8542 27.4633 81.4249 27.734C80.9955 27.9953 80.5195 28.126 79.9969 28.126C79.4089 28.126 78.9469 27.9767 78.6109 27.678C78.2749 27.3793 78.1069 26.978 78.1069 26.474C78.1069 26.25 78.1442 26.0353 78.2189 25.83C78.3029 25.6247 78.4335 25.4287 78.6109 25.242C78.7882 25.0553 79.0215 24.8733 79.3109 24.696C79.6002 24.5093 79.9549 24.3227 80.3749 24.136L82.3909 23.254ZM88.1968 21.588H88.2528C88.5515 21.2333 88.8735 20.9533 89.2188 20.748C89.5642 20.5427 89.9655 20.44 90.4228 20.44C90.9548 20.44 91.4402 20.538 91.8788 20.734C92.3268 20.9207 92.7142 21.1867 93.0408 21.532C93.3675 21.8773 93.6195 22.288 93.7968 22.764C93.9835 23.2307 94.0768 23.744 94.0768 24.304C94.0768 24.8733 93.9835 25.396 93.7968 25.872C93.6102 26.3387 93.3535 26.74 93.0268 27.076C92.7002 27.412 92.3128 27.6733 91.8648 27.86C91.4168 28.0467 90.9315 28.14 90.4088 28.14C89.9795 28.14 89.5875 28.07 89.2328 27.93C88.8875 27.7807 88.5608 27.5427 88.2528 27.216V29.26C88.2528 29.6333 88.2715 29.932 88.3088 30.156C88.3462 30.38 88.4208 30.5527 88.5328 30.674C88.6448 30.7953 88.8035 30.8793 89.0088 30.926C89.2235 30.9727 89.5035 31.0007 89.8488 31.01V31.5H85.5368V31.01C85.8168 31.0007 86.0408 30.9727 86.2088 30.926C86.3862 30.8793 86.5215 30.7953 86.6148 30.674C86.7175 30.5527 86.7875 30.3847 86.8248 30.17C86.8622 29.9647 86.8808 29.694 86.8808 29.358V24.122C86.8808 23.5807 86.8715 23.1373 86.8528 22.792C86.8435 22.4467 86.8202 22.2087 86.7828 22.078C86.7362 21.854 86.6288 21.7047 86.4608 21.63C86.2928 21.546 85.9755 21.504 85.5088 21.504V21.028L88.1968 20.496V21.588ZM88.6168 21.994C88.4955 22.1807 88.4022 22.4047 88.3368 22.666C88.2808 22.918 88.2528 23.2493 88.2528 23.66V24.752C88.2528 25.004 88.2575 25.2233 88.2668 25.41C88.2855 25.5873 88.3088 25.7413 88.3368 25.872C88.3648 26.0027 88.4022 26.1193 88.4488 26.222C88.4955 26.3247 88.5562 26.4227 88.6308 26.516C88.8455 26.8147 89.1022 27.048 89.4008 27.216C89.6995 27.3747 90.0122 27.454 90.3388 27.454C90.9828 27.454 91.5008 27.1833 91.8928 26.642C92.2942 26.1007 92.4948 25.34 92.4948 24.36C92.4948 23.8747 92.4388 23.436 92.3268 23.044C92.2242 22.6427 92.0748 22.302 91.8788 22.022C91.6828 21.7327 91.4448 21.5087 91.1648 21.35C90.8942 21.1913 90.5908 21.112 90.2548 21.112C89.9188 21.112 89.6062 21.1913 89.3168 21.35C89.0368 21.4993 88.8035 21.714 88.6168 21.994ZM98.4467 30.198C98.0174 31.1593 97.35 31.64 96.4447 31.64C95.8567 31.64 95.5627 31.4207 95.5627 30.982C95.5627 30.7487 95.642 30.576 95.8007 30.464C95.9687 30.3613 96.272 30.2727 96.7107 30.198C96.9067 30.17 97.0747 30.128 97.2147 30.072C97.3547 30.0253 97.4807 29.96 97.5927 29.876C97.7047 29.8013 97.8027 29.7033 97.8867 29.582C97.98 29.4607 98.0687 29.3113 98.1527 29.134L98.6427 28.154L95.9547 22.316C95.8334 22.0547 95.726 21.8493 95.6327 21.7C95.5487 21.5413 95.4554 21.42 95.3527 21.336C95.2594 21.2427 95.152 21.182 95.0307 21.154C94.9094 21.1167 94.7554 21.0887 94.5687 21.07V20.58H98.2787V21.07C97.6534 21.07 97.3407 21.224 97.3407 21.532C97.3407 21.6533 97.378 21.8447 97.4527 22.106C97.5274 22.3673 97.6207 22.6333 97.7327 22.904L99.2727 26.628H99.3427L100.617 23.478C100.738 23.17 100.836 22.918 100.911 22.722C100.995 22.526 101.055 22.3673 101.093 22.246C101.139 22.1153 101.167 22.008 101.177 21.924C101.195 21.84 101.205 21.7607 101.205 21.686C101.205 21.4433 101.135 21.28 100.995 21.196C100.864 21.112 100.607 21.07 100.225 21.07V20.58H103.305V21.07C103.127 21.07 102.978 21.0933 102.857 21.14C102.735 21.1867 102.609 21.294 102.479 21.462C102.357 21.6207 102.217 21.854 102.059 22.162C101.909 22.47 101.723 22.8853 101.499 23.408L98.4467 30.198ZM114.358 26.698C113.564 27.6593 112.58 28.14 111.404 28.14C110.853 28.14 110.354 28.0513 109.906 27.874C109.458 27.6873 109.07 27.4307 108.744 27.104C108.426 26.768 108.179 26.3713 108.002 25.914C107.824 25.4473 107.736 24.934 107.736 24.374C107.736 23.8047 107.829 23.2773 108.016 22.792C108.202 22.3067 108.464 21.8913 108.8 21.546C109.145 21.2007 109.551 20.93 110.018 20.734C110.494 20.538 111.012 20.44 111.572 20.44C112.477 20.44 113.177 20.6873 113.672 21.182C114.166 21.6673 114.414 22.3673 114.414 23.282C114.414 23.4127 114.386 23.492 114.33 23.52C114.283 23.548 114.166 23.562 113.98 23.562H109.374C109.355 23.6367 109.341 23.73 109.332 23.842C109.322 23.9447 109.318 24.0613 109.318 24.192C109.318 24.6773 109.374 25.1207 109.486 25.522C109.607 25.914 109.775 26.25 109.99 26.53C110.214 26.81 110.475 27.0293 110.774 27.188C111.082 27.3373 111.422 27.412 111.796 27.412C112.188 27.412 112.552 27.328 112.888 27.16C113.224 26.9827 113.569 26.698 113.924 26.306L114.358 26.698ZM112.048 22.918C112.234 22.918 112.384 22.9133 112.496 22.904C112.608 22.8947 112.692 22.876 112.748 22.848C112.804 22.82 112.841 22.7827 112.86 22.736C112.878 22.68 112.888 22.61 112.888 22.526C112.888 22.0967 112.748 21.756 112.468 21.504C112.197 21.2427 111.824 21.112 111.348 21.112C110.34 21.112 109.714 21.714 109.472 22.918H112.048ZM120.481 22.232C120.705 21.952 120.817 21.714 120.817 21.518C120.817 21.2193 120.542 21.07 119.991 21.07V20.58H123.057V21.07C122.889 21.07 122.735 21.0887 122.595 21.126C122.464 21.1633 122.334 21.224 122.203 21.308C122.072 21.392 121.937 21.5087 121.797 21.658C121.666 21.798 121.517 21.9753 121.349 22.19L119.907 24.024L121.769 26.474C122.058 26.8567 122.324 27.1273 122.567 27.286C122.819 27.4353 123.085 27.51 123.365 27.51V28H119.641V27.51C119.977 27.51 120.21 27.4867 120.341 27.44C120.472 27.384 120.537 27.2813 120.537 27.132C120.537 27.0667 120.495 26.9733 120.411 26.852C120.336 26.7213 120.206 26.5347 120.019 26.292L119.039 25.032L117.849 26.544C117.709 26.712 117.639 26.88 117.639 27.048C117.639 27.1787 117.695 27.2907 117.807 27.384C117.919 27.468 118.096 27.51 118.339 27.51V28H115.133V27.51C115.348 27.51 115.539 27.4913 115.707 27.454C115.875 27.4167 116.034 27.3513 116.183 27.258C116.342 27.1647 116.5 27.034 116.659 26.866C116.827 26.698 117.014 26.488 117.219 26.236L118.647 24.486L116.785 21.84C116.57 21.5413 116.374 21.3407 116.197 21.238C116.02 21.126 115.796 21.07 115.525 21.07V20.58H118.969V21.07C118.717 21.07 118.535 21.1027 118.423 21.168C118.311 21.224 118.255 21.3033 118.255 21.406C118.255 21.546 118.344 21.742 118.521 21.994L119.529 23.464L120.481 22.232ZM126.464 21.588H126.52C126.819 21.2333 127.141 20.9533 127.486 20.748C127.832 20.5427 128.233 20.44 128.69 20.44C129.222 20.44 129.708 20.538 130.146 20.734C130.594 20.9207 130.982 21.1867 131.308 21.532C131.635 21.8773 131.887 22.288 132.064 22.764C132.251 23.2307 132.344 23.744 132.344 24.304C132.344 24.8733 132.251 25.396 132.064 25.872C131.878 26.3387 131.621 26.74 131.294 27.076C130.968 27.412 130.58 27.6733 130.132 27.86C129.684 28.0467 129.199 28.14 128.676 28.14C128.247 28.14 127.855 28.07 127.5 27.93C127.155 27.7807 126.828 27.5427 126.52 27.216V29.26C126.52 29.6333 126.539 29.932 126.576 30.156C126.614 30.38 126.688 30.5527 126.8 30.674C126.912 30.7953 127.071 30.8793 127.276 30.926C127.491 30.9727 127.771 31.0007 128.116 31.01V31.5H123.804V31.01C124.084 31.0007 124.308 30.9727 124.476 30.926C124.654 30.8793 124.789 30.7953 124.882 30.674C124.985 30.5527 125.055 30.3847 125.092 30.17C125.13 29.9647 125.148 29.694 125.148 29.358V24.122C125.148 23.5807 125.139 23.1373 125.12 22.792C125.111 22.4467 125.088 22.2087 125.05 22.078C125.004 21.854 124.896 21.7047 124.728 21.63C124.56 21.546 124.243 21.504 123.776 21.504V21.028L126.464 20.496V21.588ZM126.884 21.994C126.763 22.1807 126.67 22.4047 126.604 22.666C126.548 22.918 126.52 23.2493 126.52 23.66V24.752C126.52 25.004 126.525 25.2233 126.534 25.41C126.553 25.5873 126.576 25.7413 126.604 25.872C126.632 26.0027 126.67 26.1193 126.716 26.222C126.763 26.3247 126.824 26.4227 126.898 26.516C127.113 26.8147 127.37 27.048 127.668 27.216C127.967 27.3747 128.28 27.454 128.606 27.454C129.25 27.454 129.768 27.1833 130.16 26.642C130.562 26.1007 130.762 25.34 130.762 24.36C130.762 23.8747 130.706 23.436 130.594 23.044C130.492 22.6427 130.342 22.302 130.146 22.022C129.95 21.7327 129.712 21.5087 129.432 21.35C129.162 21.1913 128.858 21.112 128.522 21.112C128.186 21.112 127.874 21.1913 127.584 21.35C127.304 21.4993 127.071 21.714 126.884 21.994ZM140.334 26.698C139.541 27.6593 138.556 28.14 137.38 28.14C136.83 28.14 136.33 28.0513 135.882 27.874C135.434 27.6873 135.047 27.4307 134.72 27.104C134.403 26.768 134.156 26.3713 133.978 25.914C133.801 25.4473 133.712 24.934 133.712 24.374C133.712 23.8047 133.806 23.2773 133.992 22.792C134.179 22.3067 134.44 21.8913 134.776 21.546C135.122 21.2007 135.528 20.93 135.994 20.734C136.47 20.538 136.988 20.44 137.548 20.44C138.454 20.44 139.154 20.6873 139.648 21.182C140.143 21.6673 140.39 22.3673 140.39 23.282C140.39 23.4127 140.362 23.492 140.306 23.52C140.26 23.548 140.143 23.562 139.956 23.562H135.35C135.332 23.6367 135.318 23.73 135.308 23.842C135.299 23.9447 135.294 24.0613 135.294 24.192C135.294 24.6773 135.35 25.1207 135.462 25.522C135.584 25.914 135.752 26.25 135.966 26.53C136.19 26.81 136.452 27.0293 136.75 27.188C137.058 27.3373 137.399 27.412 137.772 27.412C138.164 27.412 138.528 27.328 138.864 27.16C139.2 26.9827 139.546 26.698 139.9 26.306L140.334 26.698ZM138.024 22.918C138.211 22.918 138.36 22.9133 138.472 22.904C138.584 22.8947 138.668 22.876 138.724 22.848C138.78 22.82 138.818 22.7827 138.836 22.736C138.855 22.68 138.864 22.61 138.864 22.526C138.864 22.0967 138.724 21.756 138.444 21.504C138.174 21.2427 137.8 21.112 137.324 21.112C136.316 21.112 135.691 21.714 135.448 22.918H138.024ZM144.16 25.774C144.16 26.1567 144.169 26.46 144.188 26.684C144.206 26.908 144.253 27.0807 144.328 27.202C144.412 27.314 144.528 27.3887 144.678 27.426C144.827 27.4633 145.037 27.4913 145.308 27.51V28H141.584V27.51C141.854 27.5007 142.069 27.4773 142.228 27.44C142.386 27.3933 142.508 27.314 142.592 27.202C142.676 27.09 142.727 26.9313 142.746 26.726C142.774 26.5113 142.788 26.2267 142.788 25.872V24.234C142.788 23.5993 142.778 23.1047 142.76 22.75C142.75 22.3953 142.704 22.134 142.62 21.966C142.545 21.798 142.424 21.7 142.256 21.672C142.088 21.6347 141.854 21.616 141.556 21.616V21.126L144.006 20.594L144.202 22.33H144.258C144.379 22.05 144.528 21.7933 144.706 21.56C144.892 21.3267 145.093 21.1307 145.308 20.972C145.522 20.804 145.746 20.6733 145.98 20.58C146.213 20.4867 146.451 20.44 146.694 20.44C146.992 20.44 147.226 20.5147 147.394 20.664C147.571 20.804 147.66 20.9953 147.66 21.238C147.66 21.462 147.59 21.6393 147.45 21.77C147.31 21.8913 147.109 21.952 146.848 21.952C146.698 21.952 146.572 21.9333 146.47 21.896C146.367 21.8587 146.274 21.8213 146.19 21.784C146.115 21.7373 146.04 21.6953 145.966 21.658C145.9 21.6207 145.826 21.602 145.742 21.602C145.49 21.602 145.238 21.7653 144.986 22.092C144.734 22.4093 144.538 22.8153 144.398 23.31C144.323 23.5807 144.262 23.8887 144.216 24.234C144.178 24.57 144.16 24.9247 144.16 25.298V25.774ZM148.284 21.462V20.944C148.778 20.6547 149.166 20.3653 149.446 20.076C149.726 19.7867 149.94 19.4413 150.09 19.04H150.496V20.804H152.372V21.462H150.496V25.718C150.496 26.0447 150.51 26.32 150.538 26.544C150.575 26.768 150.631 26.95 150.706 27.09C150.78 27.2207 150.878 27.314 151 27.37C151.121 27.426 151.275 27.454 151.462 27.454C151.695 27.454 151.891 27.4073 152.05 27.314C152.218 27.2113 152.381 27.0433 152.54 26.81L152.89 27.076C152.759 27.4213 152.53 27.6873 152.204 27.874C151.886 28.0513 151.49 28.14 151.014 28.14C150.398 28.14 149.926 27.9953 149.6 27.706C149.282 27.4073 149.124 26.9827 149.124 26.432V21.462H148.284ZM15.6762 44.14H15.1582L13.3382 38.316C13.2542 38.0547 13.1748 37.8447 13.1002 37.686C13.0255 37.5273 12.9368 37.4013 12.8342 37.308C12.7315 37.2147 12.6102 37.154 12.4702 37.126C12.3302 37.0887 12.1575 37.07 11.9522 37.07V36.58H15.6622V37.07C15.2982 37.07 15.0415 37.112 14.8922 37.196C14.7428 37.28 14.6682 37.4247 14.6682 37.63C14.6682 37.7233 14.6822 37.8353 14.7102 37.966C14.7382 38.0873 14.7755 38.2413 14.8222 38.428L15.7742 41.774H15.8302L17.8882 36.58H18.3222L20.1842 41.774H20.2402L21.0802 39.506C21.1922 39.198 21.2855 38.9413 21.3602 38.736C21.4348 38.5213 21.4908 38.344 21.5282 38.204C21.5748 38.0547 21.6075 37.9333 21.6262 37.84C21.6448 37.7467 21.6542 37.658 21.6542 37.574C21.6542 37.3687 21.5935 37.2333 21.4722 37.168C21.3508 37.1027 21.0988 37.07 20.7162 37.07V36.58H23.5162V37.07C23.3762 37.07 23.2548 37.0933 23.1522 37.14C23.0588 37.1773 22.9608 37.2567 22.8582 37.378C22.7648 37.4993 22.6668 37.672 22.5642 37.896C22.4615 38.12 22.3355 38.414 22.1862 38.778L20.0162 44.14H19.4982L17.7902 38.974H17.7342L15.6762 44.14ZM26.8981 41.774C26.8981 42.138 26.9121 42.432 26.9401 42.656C26.9774 42.8707 27.0427 43.0433 27.1361 43.174C27.2294 43.2953 27.3601 43.3793 27.5281 43.426C27.6961 43.4727 27.9201 43.5007 28.2001 43.51V44H24.1821V43.51C24.4621 43.5007 24.6907 43.4727 24.8681 43.426C25.0454 43.37 25.1807 43.286 25.2741 43.174C25.3767 43.0527 25.4421 42.8893 25.4701 42.684C25.5074 42.4693 25.5261 42.1987 25.5261 41.872V40.08C25.5261 39.5387 25.5167 39.0953 25.4981 38.75C25.4887 38.3953 25.4654 38.1527 25.4281 38.022C25.3814 37.8073 25.2741 37.6627 25.1061 37.588C24.9381 37.504 24.6207 37.462 24.1541 37.462V36.972L26.8981 36.44V41.774ZM25.2881 33.598C25.2881 33.3553 25.3721 33.15 25.5401 32.982C25.7081 32.814 25.9134 32.73 26.1561 32.73C26.3987 32.73 26.6041 32.814 26.7721 32.982C26.9401 33.15 27.0241 33.3553 27.0241 33.598C27.0241 33.8407 26.9401 34.046 26.7721 34.214C26.6041 34.382 26.3987 34.466 26.1561 34.466C25.9134 34.466 25.7081 34.382 25.5401 34.214C25.3721 34.046 25.2881 33.8407 25.2881 33.598ZM29.0375 37.462V36.944C29.5322 36.6547 29.9195 36.3653 30.1995 36.076C30.4795 35.7867 30.6942 35.4413 30.8435 35.04H31.2495V36.804H33.1255V37.462H31.2495V41.718C31.2495 42.0447 31.2635 42.32 31.2915 42.544C31.3289 42.768 31.3849 42.95 31.4595 43.09C31.5342 43.2207 31.6322 43.314 31.7535 43.37C31.8749 43.426 32.0289 43.454 32.2155 43.454C32.4489 43.454 32.6449 43.4073 32.8035 43.314C32.9715 43.2113 33.1349 43.0433 33.2935 42.81L33.6435 43.076C33.5129 43.4213 33.2842 43.6873 32.9575 43.874C32.6402 44.0513 32.2435 44.14 31.7675 44.14C31.1515 44.14 30.6802 43.9953 30.3535 43.706C30.0362 43.4073 29.8775 42.9827 29.8775 42.432V37.462H29.0375ZM36.7926 41.802C36.7926 42.1847 36.8019 42.488 36.8206 42.712C36.8392 42.9267 36.8859 43.0947 36.9606 43.216C37.0446 43.328 37.1612 43.4027 37.3106 43.44C37.4692 43.4773 37.6839 43.5053 37.9546 43.524V44H34.2866V43.524C34.5479 43.5053 34.7532 43.4773 34.9026 43.44C35.0612 43.4027 35.1826 43.328 35.2666 43.216C35.3506 43.104 35.4019 42.9453 35.4206 42.74C35.4486 42.5347 35.4626 42.2547 35.4626 41.9V40.038C35.4626 38.9273 35.4346 38.2507 35.3786 38.008C35.3506 37.8867 35.3132 37.7887 35.2666 37.714C35.2292 37.63 35.1686 37.5693 35.0846 37.532C35.0006 37.4853 34.8932 37.4573 34.7626 37.448C34.6319 37.4293 34.4639 37.42 34.2586 37.42V36.972L36.4986 36.44L36.6666 37.826H36.7226C37.0772 37.3873 37.4926 37.0467 37.9686 36.804C38.4446 36.5613 38.9626 36.44 39.5226 36.44C39.9519 36.44 40.3439 36.51 40.6986 36.65C41.0532 36.79 41.3239 36.9813 41.5106 37.224C41.6692 37.4387 41.7812 37.7187 41.8466 38.064C41.9119 38.4 41.9446 38.8667 41.9446 39.464V41.802C41.9446 42.1847 41.9539 42.488 41.9726 42.712C42.0006 42.9267 42.0519 43.0947 42.1266 43.216C42.2012 43.328 42.3132 43.4027 42.4626 43.44C42.6212 43.4773 42.8266 43.5053 43.0786 43.524V44H39.4526V43.524C39.7139 43.5147 39.9192 43.4913 40.0686 43.454C40.2272 43.4073 40.3439 43.328 40.4186 43.216C40.5026 43.104 40.5539 42.9453 40.5726 42.74C40.6006 42.5253 40.6146 42.2453 40.6146 41.9V40.052C40.6146 39.52 40.5866 39.072 40.5306 38.708C40.4746 38.344 40.3812 38.05 40.2506 37.826C40.1292 37.602 39.9659 37.4433 39.7606 37.35C39.5552 37.2473 39.3079 37.196 39.0186 37.196C38.5986 37.196 38.2112 37.308 37.8566 37.532C37.5112 37.7467 37.2406 38.0453 37.0446 38.428C36.9979 38.5213 36.9559 38.61 36.9186 38.694C36.8906 38.778 36.8672 38.876 36.8486 38.988C36.8299 39.1 36.8159 39.2307 36.8066 39.38C36.7972 39.52 36.7926 39.702 36.7926 39.926V41.802ZM50.7289 42.698C49.9356 43.6593 48.9509 44.14 47.7749 44.14C47.2242 44.14 46.7249 44.0513 46.2769 43.874C45.8289 43.6873 45.4416 43.4307 45.1149 43.104C44.7976 42.768 44.5502 42.3713 44.3729 41.914C44.1956 41.4473 44.1069 40.934 44.1069 40.374C44.1069 39.8047 44.2002 39.2773 44.3869 38.792C44.5736 38.3067 44.8349 37.8913 45.1709 37.546C45.5162 37.2007 45.9222 36.93 46.3889 36.734C46.8649 36.538 47.3829 36.44 47.9429 36.44C48.8482 36.44 49.5482 36.6873 50.0429 37.182C50.5376 37.6673 50.7849 38.3673 50.7849 39.282C50.7849 39.4127 50.7569 39.492 50.7009 39.52C50.6542 39.548 50.5376 39.562 50.3509 39.562H45.7449C45.7262 39.6367 45.7122 39.73 45.7029 39.842C45.6936 39.9447 45.6889 40.0613 45.6889 40.192C45.6889 40.6773 45.7449 41.1207 45.8569 41.522C45.9782 41.914 46.1462 42.25 46.3609 42.53C46.5849 42.81 46.8462 43.0293 47.1449 43.188C47.4529 43.3373 47.7936 43.412 48.1669 43.412C48.5589 43.412 48.9229 43.328 49.2589 43.16C49.5949 42.9827 49.9402 42.698 50.2949 42.306L50.7289 42.698ZM48.4189 38.918C48.6056 38.918 48.7549 38.9133 48.8669 38.904C48.9789 38.8947 49.0629 38.876 49.1189 38.848C49.1749 38.82 49.2122 38.7827 49.2309 38.736C49.2496 38.68 49.2589 38.61 49.2589 38.526C49.2589 38.0967 49.1189 37.756 48.8389 37.504C48.5682 37.2427 48.1949 37.112 47.7189 37.112C46.7109 37.112 46.0856 37.714 45.8429 38.918H48.4189ZM52.6503 44H52.3423V41.592H52.6923C53.0563 42.908 53.719 43.566 54.6803 43.566C55.0536 43.566 55.3476 43.4773 55.5623 43.3C55.7863 43.1133 55.8983 42.8333 55.8983 42.46C55.8983 42.32 55.875 42.2033 55.8283 42.11C55.791 42.0073 55.7116 41.9047 55.5903 41.802C55.4783 41.69 55.315 41.564 55.1003 41.424C54.895 41.284 54.6196 41.1067 54.2743 40.892C53.957 40.696 53.6816 40.514 53.4483 40.346C53.215 40.178 53.019 40.01 52.8603 39.842C52.7016 39.6647 52.5803 39.478 52.4963 39.282C52.4216 39.086 52.3843 38.8573 52.3843 38.596C52.3843 38.2787 52.4356 37.9893 52.5383 37.728C52.6503 37.4573 52.7996 37.2287 52.9863 37.042C53.173 36.8553 53.3923 36.7107 53.6443 36.608C53.8963 36.496 54.1716 36.44 54.4703 36.44C54.7223 36.44 54.9836 36.482 55.2543 36.566C55.525 36.6407 55.763 36.7433 55.9683 36.874L56.2483 36.58H56.5143V38.596H56.1503C55.945 38.0267 55.721 37.6207 55.4783 37.378C55.2356 37.1353 54.937 37.014 54.5823 37.014C54.265 37.014 54.0083 37.098 53.8123 37.266C53.6256 37.434 53.5323 37.6673 53.5323 37.966C53.5323 38.1247 53.5556 38.2647 53.6023 38.386C53.6583 38.498 53.7423 38.61 53.8543 38.722C53.9663 38.834 54.1063 38.9507 54.2743 39.072C54.4516 39.184 54.6616 39.3147 54.9043 39.464C55.3056 39.716 55.6463 39.94 55.9263 40.136C56.2156 40.332 56.449 40.528 56.6263 40.724C56.8036 40.9107 56.9343 41.1067 57.0183 41.312C57.1023 41.5173 57.1443 41.7507 57.1443 42.012C57.1443 42.6747 56.9296 43.1973 56.5003 43.58C56.071 43.9533 55.5063 44.14 54.8063 44.14C54.0783 44.14 53.453 43.93 52.9303 43.51L52.6503 44ZM59.0077 44H58.6997V41.592H59.0497C59.4137 42.908 60.0764 43.566 61.0377 43.566C61.411 43.566 61.705 43.4773 61.9197 43.3C62.1437 43.1133 62.2557 42.8333 62.2557 42.46C62.2557 42.32 62.2324 42.2033 62.1857 42.11C62.1484 42.0073 62.069 41.9047 61.9477 41.802C61.8357 41.69 61.6724 41.564 61.4577 41.424C61.2524 41.284 60.977 41.1067 60.6317 40.892C60.3144 40.696 60.039 40.514 59.8057 40.346C59.5724 40.178 59.3764 40.01 59.2177 39.842C59.059 39.6647 58.9377 39.478 58.8537 39.282C58.779 39.086 58.7417 38.8573 58.7417 38.596C58.7417 38.2787 58.793 37.9893 58.8957 37.728C59.0077 37.4573 59.157 37.2287 59.3437 37.042C59.5304 36.8553 59.7497 36.7107 60.0017 36.608C60.2537 36.496 60.529 36.44 60.8277 36.44C61.0797 36.44 61.341 36.482 61.6117 36.566C61.8824 36.6407 62.1204 36.7433 62.3257 36.874L62.6057 36.58H62.8717V38.596H62.5077C62.3024 38.0267 62.0784 37.6207 61.8357 37.378C61.593 37.1353 61.2944 37.014 60.9397 37.014C60.6224 37.014 60.3657 37.098 60.1697 37.266C59.983 37.434 59.8897 37.6673 59.8897 37.966C59.8897 38.1247 59.913 38.2647 59.9597 38.386C60.0157 38.498 60.0997 38.61 60.2117 38.722C60.3237 38.834 60.4637 38.9507 60.6317 39.072C60.809 39.184 61.019 39.3147 61.2617 39.464C61.663 39.716 62.0037 39.94 62.2837 40.136C62.573 40.332 62.8064 40.528 62.9837 40.724C63.161 40.9107 63.2917 41.1067 63.3757 41.312C63.4597 41.5173 63.5017 41.7507 63.5017 42.012C63.5017 42.6747 63.287 43.1973 62.8577 43.58C62.4284 43.9533 61.8637 44.14 61.1637 44.14C60.4357 44.14 59.8104 43.93 59.2877 43.51L59.0077 44ZM71.1067 41.816C71.1067 42.1707 71.1207 42.4553 71.1487 42.67C71.1767 42.8847 71.2327 43.0527 71.3167 43.174C71.41 43.2953 71.536 43.3793 71.6947 43.426C71.8627 43.4727 72.082 43.5007 72.3527 43.51V44H68.4887V43.51C68.7687 43.5007 68.9927 43.4727 69.1607 43.426C69.3287 43.37 69.4593 43.286 69.5527 43.174C69.6553 43.062 69.7207 42.908 69.7487 42.712C69.786 42.5067 69.8047 42.2407 69.8047 41.914V35.88C69.8047 35.376 69.7953 34.956 69.7767 34.62C69.7673 34.2747 69.7487 34.0413 69.7207 33.92C69.674 33.7053 69.562 33.5607 69.3847 33.486C69.2167 33.4113 68.9087 33.374 68.4607 33.374V32.898L71.1067 32.38V41.816ZM80.0414 42.698C79.2481 43.6593 78.2634 44.14 77.0874 44.14C76.5367 44.14 76.0374 44.0513 75.5894 43.874C75.1414 43.6873 74.7541 43.4307 74.4274 43.104C74.1101 42.768 73.8627 42.3713 73.6854 41.914C73.5081 41.4473 73.4194 40.934 73.4194 40.374C73.4194 39.8047 73.5127 39.2773 73.6994 38.792C73.8861 38.3067 74.1474 37.8913 74.4834 37.546C74.8287 37.2007 75.2347 36.93 75.7014 36.734C76.1774 36.538 76.6954 36.44 77.2554 36.44C78.1607 36.44 78.8607 36.6873 79.3554 37.182C79.8501 37.6673 80.0974 38.3673 80.0974 39.282C80.0974 39.4127 80.0694 39.492 80.0134 39.52C79.9667 39.548 79.8501 39.562 79.6634 39.562H75.0574C75.0387 39.6367 75.0247 39.73 75.0154 39.842C75.0061 39.9447 75.0014 40.0613 75.0014 40.192C75.0014 40.6773 75.0574 41.1207 75.1694 41.522C75.2907 41.914 75.4587 42.25 75.6734 42.53C75.8974 42.81 76.1587 43.0293 76.4574 43.188C76.7654 43.3373 77.1061 43.412 77.4794 43.412C77.8714 43.412 78.2354 43.328 78.5714 43.16C78.9074 42.9827 79.2527 42.698 79.6074 42.306L80.0414 42.698ZM77.7314 38.918C77.9181 38.918 78.0674 38.9133 78.1794 38.904C78.2914 38.8947 78.3754 38.876 78.4314 38.848C78.4874 38.82 78.5247 38.7827 78.5434 38.736C78.5621 38.68 78.5714 38.61 78.5714 38.526C78.5714 38.0967 78.4314 37.756 78.1514 37.504C77.8807 37.2427 77.5074 37.112 77.0314 37.112C76.0234 37.112 75.3981 37.714 75.1554 38.918H77.7314ZM84.5948 40.99C84.9868 40.99 85.2901 40.8127 85.5048 40.458C85.7288 40.1033 85.8408 39.604 85.8408 38.96C85.8408 38.3253 85.7288 37.8353 85.5048 37.49C85.2901 37.1353 84.9821 36.958 84.5808 36.958C84.1795 36.958 83.8575 37.1353 83.6148 37.49C83.3815 37.8447 83.2648 38.33 83.2648 38.946C83.2648 39.562 83.3861 40.0567 83.6288 40.43C83.8715 40.8033 84.1935 40.99 84.5948 40.99ZM83.8248 42.628C84.0488 42.6467 84.2541 42.6653 84.4408 42.684C84.6275 42.7027 84.8095 42.7213 84.9868 42.74C85.1735 42.7587 85.3555 42.782 85.5328 42.81C85.7195 42.838 85.9201 42.866 86.1348 42.894C86.8068 42.9967 87.3435 43.258 87.7448 43.678C88.1555 44.0887 88.3608 44.6067 88.3608 45.232C88.3608 46.016 88.0481 46.6133 87.4228 47.024C86.8068 47.4347 85.9108 47.64 84.7348 47.64C84.2121 47.64 83.7315 47.5933 83.2928 47.5C82.8635 47.4067 82.4948 47.2713 82.1868 47.094C81.8788 46.926 81.6361 46.7207 81.4588 46.478C81.2908 46.2353 81.2068 45.9693 81.2068 45.68C81.2068 45.484 81.2395 45.302 81.3048 45.134C81.3701 44.966 81.4588 44.8167 81.5708 44.686C81.6828 44.5647 81.8135 44.4667 81.9628 44.392C82.1215 44.3173 82.2848 44.28 82.4528 44.28C82.7701 44.28 83.0548 44.378 83.3068 44.574C83.0548 44.63 82.8495 44.7653 82.6908 44.98C82.5321 45.204 82.4528 45.456 82.4528 45.736C82.4528 46.1467 82.6535 46.464 83.0548 46.688C83.4655 46.912 84.0441 47.024 84.7908 47.024C86.3868 47.024 87.1848 46.534 87.1848 45.554C87.1848 45.1807 87.0588 44.868 86.8068 44.616C86.5548 44.3733 86.2561 44.2287 85.9108 44.182C85.6868 44.154 85.4535 44.1213 85.2108 44.084C84.9775 44.056 84.7441 44.028 84.5108 44C84.2868 43.972 84.0768 43.9487 83.8808 43.93C83.6848 43.9113 83.5261 43.8927 83.4048 43.874C82.8821 43.818 82.4855 43.678 82.2148 43.454C81.9441 43.23 81.8088 42.922 81.8088 42.53C81.8088 42.2033 81.9441 41.914 82.2148 41.662C82.4855 41.41 82.8261 41.2513 83.2368 41.186V41.13C83.0315 41.046 82.8401 40.9293 82.6628 40.78C82.4855 40.6213 82.3315 40.444 82.2008 40.248C82.0795 40.052 81.9815 39.842 81.9068 39.618C81.8321 39.3847 81.7948 39.1467 81.7948 38.904C81.7948 38.5493 81.8601 38.2227 81.9908 37.924C82.1308 37.6253 82.3221 37.3687 82.5648 37.154C82.8168 36.93 83.1108 36.7573 83.4468 36.636C83.7828 36.5053 84.1515 36.44 84.5528 36.44C84.9635 36.44 85.3508 36.5053 85.7148 36.636C86.0788 36.7573 86.3915 36.9393 86.6528 37.182C86.9701 36.9207 87.2501 36.734 87.4928 36.622C87.7355 36.5007 87.9641 36.44 88.1788 36.44C88.5148 36.44 88.7808 36.5193 88.9768 36.678C89.1821 36.8273 89.2848 37.0327 89.2848 37.294C89.2848 37.4527 89.2288 37.5787 89.1168 37.672C89.0141 37.7653 88.8835 37.812 88.7248 37.812C88.5941 37.812 88.4868 37.7887 88.4028 37.742C88.3188 37.6953 88.2395 37.6487 88.1648 37.602C88.0995 37.546 88.0295 37.4947 87.9548 37.448C87.8801 37.4013 87.7868 37.378 87.6748 37.378C87.4508 37.378 87.2221 37.4573 86.9888 37.616C87.2128 37.9613 87.3248 38.3953 87.3248 38.918C87.3248 39.7113 87.0775 40.3367 86.5828 40.794C86.0881 41.242 85.3461 41.5033 84.3568 41.578C83.7875 41.6247 83.3908 41.6853 83.1668 41.76C82.9428 41.8347 82.8308 41.97 82.8308 42.166C82.8308 42.3153 82.9148 42.4273 83.0828 42.502C83.2508 42.5673 83.4981 42.6093 83.8248 42.628ZM94.0256 39.856C93.4936 40.0613 93.041 40.262 92.6676 40.458C92.3036 40.654 92.0096 40.85 91.7856 41.046C91.5616 41.242 91.3983 41.438 91.2956 41.634C91.2023 41.83 91.1556 42.0307 91.1556 42.236C91.1556 42.544 91.2583 42.796 91.4636 42.992C91.669 43.188 91.9396 43.286 92.2756 43.286C92.5183 43.286 92.7423 43.2253 92.9476 43.104C93.1623 42.9827 93.349 42.8193 93.5076 42.614C93.6663 42.3993 93.7923 42.152 93.8856 41.872C93.979 41.5827 94.0256 41.2793 94.0256 40.962V39.856ZM94.0256 39.254V38.68C94.0256 37.5413 93.5403 36.972 92.5696 36.972C92.411 36.972 92.2756 36.986 92.1636 37.014C92.0516 37.042 91.9583 37.0887 91.8836 37.154C91.809 37.2193 91.739 37.3127 91.6736 37.434C91.6176 37.5553 91.5616 37.7047 91.5056 37.882C91.403 38.1527 91.3003 38.3347 91.1976 38.428C91.1043 38.512 90.9643 38.554 90.7776 38.554C90.311 38.554 90.0776 38.3207 90.0776 37.854C90.0776 37.406 90.3156 37.0607 90.7916 36.818C91.2676 36.566 91.9443 36.44 92.8216 36.44C93.755 36.44 94.4176 36.608 94.8096 36.944C95.2016 37.2707 95.3976 37.8307 95.3976 38.624V41.76C95.3976 42.824 95.6076 43.356 96.0276 43.356C96.1583 43.356 96.2843 43.342 96.4056 43.314C96.527 43.2767 96.6296 43.188 96.7136 43.048L96.9096 43.384C96.7976 43.5987 96.5923 43.7807 96.2936 43.93C95.995 44.07 95.6823 44.14 95.3556 44.14C94.945 44.14 94.637 44.0093 94.4316 43.748C94.2356 43.4867 94.1376 43.118 94.1376 42.642H94.0676C93.825 43.0993 93.489 43.4633 93.0596 43.734C92.6303 43.9953 92.1543 44.126 91.6316 44.126C91.0436 44.126 90.5816 43.9767 90.2456 43.678C89.9096 43.3793 89.7416 42.978 89.7416 42.474C89.7416 42.25 89.779 42.0353 89.8536 41.83C89.9376 41.6247 90.0683 41.4287 90.2456 41.242C90.423 41.0553 90.6563 40.8733 90.9456 40.696C91.235 40.5093 91.5896 40.3227 92.0096 40.136L94.0256 39.254ZM99.8176 41.816C99.8176 42.1707 99.8316 42.4553 99.8596 42.67C99.8876 42.8847 99.9436 43.0527 100.028 43.174C100.121 43.2953 100.247 43.3793 100.406 43.426C100.574 43.4727 100.793 43.5007 101.064 43.51V44H97.1996V43.51C97.4796 43.5007 97.7036 43.4727 97.8716 43.426C98.0396 43.37 98.1703 43.286 98.2636 43.174C98.3663 43.062 98.4316 42.908 98.4596 42.712C98.4969 42.5067 98.5156 42.2407 98.5156 41.914V35.88C98.5156 35.376 98.5063 34.956 98.4876 34.62C98.4783 34.2747 98.4596 34.0413 98.4316 33.92C98.3849 33.7053 98.2729 33.5607 98.0956 33.486C97.9276 33.4113 97.6196 33.374 97.1716 33.374V32.898L99.8176 32.38V41.816ZM108.959 44.14H108.441L106.621 38.316C106.537 38.0547 106.458 37.8447 106.383 37.686C106.309 37.5273 106.22 37.4013 106.117 37.308C106.015 37.2147 105.893 37.154 105.753 37.126C105.613 37.0887 105.441 37.07 105.235 37.07V36.58H108.945V37.07C108.581 37.07 108.325 37.112 108.175 37.196C108.026 37.28 107.951 37.4247 107.951 37.63C107.951 37.7233 107.965 37.8353 107.993 37.966C108.021 38.0873 108.059 38.2413 108.105 38.428L109.057 41.774H109.113L111.171 36.58H111.605L113.467 41.774H113.523L114.363 39.506C114.475 39.198 114.569 38.9413 114.643 38.736C114.718 38.5213 114.774 38.344 114.811 38.204C114.858 38.0547 114.891 37.9333 114.909 37.84C114.928 37.7467 114.937 37.658 114.937 37.574C114.937 37.3687 114.877 37.2333 114.755 37.168C114.634 37.1027 114.382 37.07 113.999 37.07V36.58H116.799V37.07C116.659 37.07 116.538 37.0933 116.435 37.14C116.342 37.1773 116.244 37.2567 116.141 37.378C116.048 37.4993 115.95 37.672 115.847 37.896C115.745 38.12 115.619 38.414 115.469 38.778L113.299 44.14H112.781L111.073 38.974H111.017L108.959 44.14ZM121.307 36.44C121.839 36.44 122.343 36.538 122.819 36.734C123.295 36.9207 123.71 37.182 124.065 37.518C124.429 37.854 124.714 38.2553 124.919 38.722C125.134 39.1793 125.241 39.6833 125.241 40.234C125.241 40.8033 125.134 41.326 124.919 41.802C124.714 42.278 124.429 42.6887 124.065 43.034C123.71 43.3793 123.295 43.65 122.819 43.846C122.343 44.042 121.839 44.14 121.307 44.14C120.784 44.14 120.285 44.0467 119.809 43.86C119.342 43.664 118.932 43.3933 118.577 43.048C118.222 42.7027 117.942 42.292 117.737 41.816C117.532 41.3307 117.429 40.8033 117.429 40.234C117.429 39.6833 117.532 39.1747 117.737 38.708C117.942 38.2413 118.222 37.84 118.577 37.504C118.932 37.168 119.342 36.9067 119.809 36.72C120.285 36.5333 120.784 36.44 121.307 36.44ZM121.307 37.112C120.962 37.112 120.644 37.1867 120.355 37.336C120.075 37.4853 119.832 37.7 119.627 37.98C119.431 38.2507 119.277 38.582 119.165 38.974C119.062 39.3567 119.011 39.7813 119.011 40.248C119.011 40.7333 119.062 41.172 119.165 41.564C119.277 41.956 119.431 42.292 119.627 42.572C119.832 42.8427 120.075 43.0527 120.355 43.202C120.635 43.3513 120.952 43.426 121.307 43.426C121.662 43.426 121.984 43.3513 122.273 43.202C122.562 43.0527 122.81 42.838 123.015 42.558C123.22 42.278 123.379 41.942 123.491 41.55C123.603 41.158 123.659 40.724 123.659 40.248C123.659 39.7813 123.603 39.3567 123.491 38.974C123.379 38.5913 123.22 38.2647 123.015 37.994C122.81 37.714 122.562 37.4993 122.273 37.35C121.984 37.1913 121.662 37.112 121.307 37.112ZM129.025 41.774C129.025 42.1567 129.034 42.46 129.053 42.684C129.072 42.908 129.118 43.0807 129.193 43.202C129.277 43.314 129.394 43.3887 129.543 43.426C129.692 43.4633 129.902 43.4913 130.173 43.51V44H126.449V43.51C126.72 43.5007 126.934 43.4773 127.093 43.44C127.252 43.3933 127.373 43.314 127.457 43.202C127.541 43.09 127.592 42.9313 127.611 42.726C127.639 42.5113 127.653 42.2267 127.653 41.872V40.234C127.653 39.5993 127.644 39.1047 127.625 38.75C127.616 38.3953 127.569 38.134 127.485 37.966C127.41 37.798 127.289 37.7 127.121 37.672C126.953 37.6347 126.72 37.616 126.421 37.616V37.126L128.871 36.594L129.067 38.33H129.123C129.244 38.05 129.394 37.7933 129.571 37.56C129.758 37.3267 129.958 37.1307 130.173 36.972C130.388 36.804 130.612 36.6733 130.845 36.58C131.078 36.4867 131.316 36.44 131.559 36.44C131.858 36.44 132.091 36.5147 132.259 36.664C132.436 36.804 132.525 36.9953 132.525 37.238C132.525 37.462 132.455 37.6393 132.315 37.77C132.175 37.8913 131.974 37.952 131.713 37.952C131.564 37.952 131.438 37.9333 131.335 37.896C131.232 37.8587 131.139 37.8213 131.055 37.784C130.98 37.7373 130.906 37.6953 130.831 37.658C130.766 37.6207 130.691 37.602 130.607 37.602C130.355 37.602 130.103 37.7653 129.851 38.092C129.599 38.4093 129.403 38.8153 129.263 39.31C129.188 39.5807 129.128 39.8887 129.081 40.234C129.044 40.57 129.025 40.9247 129.025 41.298V41.774ZM137.461 43.51C137.769 43.51 137.979 43.496 138.091 43.468C138.212 43.44 138.273 43.4027 138.273 43.356C138.264 43.2813 138.189 43.146 138.049 42.95C137.909 42.754 137.727 42.5207 137.503 42.25L136.019 40.458L135.501 40.948V41.774C135.501 42.138 135.515 42.432 135.543 42.656C135.58 42.8707 135.641 43.0433 135.725 43.174C135.818 43.2953 135.949 43.3793 136.117 43.426C136.294 43.4727 136.523 43.5007 136.803 43.51V44H132.827V43.51C133.107 43.5007 133.331 43.4727 133.499 43.426C133.676 43.3793 133.812 43.2953 133.905 43.174C134.008 43.0527 134.078 42.8893 134.115 42.684C134.152 42.4787 134.171 42.208 134.171 41.872V36.006C134.171 35.2967 134.162 34.76 134.143 34.396C134.134 34.032 134.087 33.7847 134.003 33.654C133.919 33.5233 133.779 33.4487 133.583 33.43C133.387 33.402 133.126 33.388 132.799 33.388V32.912L135.501 32.38V40.066L136.803 38.792C137.223 38.372 137.536 38.064 137.741 37.868C137.946 37.6627 138.049 37.5087 138.049 37.406C138.049 37.3033 137.951 37.224 137.755 37.168C137.559 37.1027 137.279 37.07 136.915 37.07V36.58H140.555V37.07C140.378 37.07 140.224 37.0793 140.093 37.098C139.962 37.1167 139.836 37.154 139.715 37.21C139.603 37.266 139.482 37.3453 139.351 37.448C139.22 37.5413 139.071 37.6627 138.903 37.812L136.887 39.604L139.659 42.74C139.79 42.8987 139.906 43.0293 140.009 43.132C140.121 43.2253 140.228 43.3 140.331 43.356C140.443 43.412 140.56 43.454 140.681 43.482C140.812 43.5007 140.966 43.51 141.143 43.51V44H137.461V43.51Z" fill="black"/>
</svg>
