<svg width="22" height="33" viewBox="0 0 22 33" fill="none" xmlns="http://www.w3.org/2000/svg">
<path d="M18.5156 5.40424C18.132 5.40424 17.7673 5.48665 17.4379 5.63417V5.56873C17.4379 4.108 16.2498 2.91987 14.7891 2.91987C14.4055 2.91987 14.0407 3.00227 13.7114 3.14979V3.08435C13.7114 1.62362 12.5232 0.435493 11.0625 0.435493C9.60177 0.435493 8.41364 1.62362 8.41364 3.08435V3.14979C8.08427 3.00227 7.71954 2.91987 7.33594 2.91987C5.87521 2.91987 4.68708 4.108 4.68708 5.56873V13.0816C3.89697 12.4007 2.86904 11.9878 1.74609 11.9878C1.31228 11.9878 0.960517 12.3396 0.960517 12.7734V22.7109C0.960517 24.5124 1.8207 26.2328 3.26223 27.3144L3.26225 27.3144L4.25591 28.0596C5.21482 28.779 5.92927 30.3453 5.92927 31.7789C5.92927 32.2127 6.28103 32.5645 6.71484 32.5645H9.50977C9.94357 32.5645 10.2953 32.2127 10.2953 31.7789C10.2953 31.3451 9.94357 30.9933 9.50977 30.9933H7.44882C7.26084 29.5221 6.55034 27.8169 5.19871 26.8028L5.19869 26.8028L4.20503 26.0575C4.20502 26.0575 4.20501 26.0575 4.205 26.0575C3.15744 25.2715 2.53167 24.02 2.53167 22.7109V13.6655C3.77317 14.0101 4.68708 15.1507 4.68708 16.5V20.2265C4.68708 20.6603 5.03885 21.0121 5.47266 21.0121C6.10608 21.0121 6.72946 21.1555 7.29444 21.4288C7.5015 22.22 7.96213 22.9179 8.60429 23.6189C9.265 24.3401 10.1292 25.0764 11.1271 25.9266L11.1286 25.9279C11.5378 26.2765 11.9601 26.6364 12.4086 27.0287C12.5567 27.1583 12.7414 27.2231 12.9258 27.2231C13.1102 27.2231 13.2949 27.1583 13.443 27.0287C13.8914 26.6364 14.3138 26.2765 14.7231 25.9279L14.7336 25.9189C15.8991 24.9258 16.8832 24.0874 17.5738 23.2436C18.2712 22.3916 18.6801 21.5217 18.6801 20.465C18.6801 18.5557 17.3201 16.9566 15.4102 16.9566C14.2174 16.9566 13.4246 17.5808 12.9258 18.2267C12.427 17.5808 11.6342 16.9566 10.4414 16.9566C8.79321 16.9566 7.54545 18.151 7.24278 19.7193C6.92232 19.6159 6.59282 19.5407 6.25823 19.4947V19.486V19.4764V19.4665V19.4563V19.4459V19.4352V19.4242V19.413V19.4015V19.3898V19.3778V19.3656V19.3531V19.3403V19.3273V19.3141V19.3006V19.2869V19.2729V19.2586V19.2442V19.2294V19.2145V19.1993V19.1838V19.1681V19.1522V19.1361V19.1197V19.1031V19.0862V19.0691V19.0518V19.0342V19.0165V18.9985V18.9802V18.9618V18.9431V18.9242V18.9051V18.8858V18.8662V18.8464V18.8264V18.8062V18.7858V18.7652V18.7443V18.7233V18.702V18.6806V18.6589V18.637V18.6149V18.5926V18.5701V18.5474V18.5245V18.5014V18.4781V18.4546V18.431V18.4071V18.383V18.3587V18.3343V18.3096V18.2848V18.2598V18.2346V18.2092V18.1836V18.1578V18.1319V18.1058V18.0795V18.053V18.0263V17.9995V17.9725V17.9453V17.918V17.8904V17.8627V17.8349V17.8068V17.7786V17.7503V17.7218V17.6931V17.6642V17.6352V17.606V17.5767V17.5472V17.5176V17.4878V17.4578V17.4277V17.3974V17.367V17.3365V17.3058V17.2749V17.2439V17.2128V17.1815V17.15V17.1185V17.0868V17.0549V17.0229V16.9908V16.9585V16.9261V16.8936V16.861V16.8282V16.7953V16.7622V16.729V16.6957V16.6623V16.6288V16.5951V16.5613V16.5274V16.4933V16.4592V16.4249V16.3905V16.356V16.3214V16.2867V16.2519V16.2169V16.1819V16.1467V16.1114V16.0761V16.0406V16.005V15.9693V15.9336V15.8977V15.8617V15.8256V15.7894V15.7532V15.7168V15.6804V15.6438V15.6072V15.5704V15.5336V15.4967V15.4597V15.4227V15.3855V15.3483V15.311V15.2736V15.2361V15.1985V15.1609V15.1232V15.0854V15.0476V15.0096V14.9717V14.9336V14.8955V14.8573V14.819V14.7807V14.7423V14.7038V14.6653V14.6267V14.5881V14.5494V14.5106V14.4718V14.433V14.394V14.3551V14.3161V14.277V14.2379V14.1987V14.1595V14.1202V14.0809V14.0416V14.0022V13.9628V13.9233V13.8838V13.8443V13.8047V13.7651V13.7255V13.6858V13.6461V13.6063V13.5666V13.5268V13.487V13.4471V13.4072V13.3673V13.3274V13.2875V13.2475V13.2076V13.1676V13.1276V13.0875V13.0475V13.0074V12.9674V12.9273V12.8872V12.8471V12.807V12.7669V12.7268V12.6867V12.6466V12.6065V12.5664V12.5263V12.4862V12.446V12.4059V12.3658V12.3258V12.2857V12.2456V12.2055V12.1655V12.1254V12.0854V12.0454V12.0054V11.9654V11.9255V11.8855V11.8456V11.8057V11.7658V11.726V11.6862V11.6464V11.6066V11.5669V11.5272V11.4875V11.4478V11.4082V11.3686V11.3291V11.2896V11.2501V11.2107V11.1713V11.132V11.0926V11.0534V11.0142V10.975V10.9359V10.8968V10.8578V10.8188V10.7799V10.741V10.7022V10.6635V10.6247V10.5861V10.5475V10.509V10.4705V10.4321V10.3938V10.3555V10.3173V10.2792V10.2411V10.2031V10.1652V10.1273V10.0895V10.0518V10.0142V9.97661V9.93912V9.90172V9.86439V9.82714V9.78998V9.7529V9.7159V9.67899V9.64217V9.60543V9.56879V9.53223V9.49576V9.45939V9.42311V9.38693V9.35084V9.31485V9.27895V9.24316V9.20746V9.17187V9.13638V9.101V9.06572V9.03055V8.99548V8.96052V8.92567V8.89094V8.85631V8.8218V8.78741V8.75313V8.71896V8.68491V8.65099V8.61718V8.58349V8.54993V8.51649V8.48318V8.44999V8.41693V8.38399V8.35119V8.31851V8.28597V8.25356V8.22129V8.18915V8.15715V8.12528V8.09356V8.06197V8.03052V7.99922V7.96806V7.93705V7.90618V7.87545V7.84488V7.81445V7.78417V7.75405V7.72408V7.69426V7.6646V7.63509V7.60574V7.57655V7.54752V7.51865V7.48994V7.46139V7.43301V7.40479V7.37674V7.34886V7.32115V7.2936V7.26623V7.23903V7.212V7.18515V7.15847V7.13197V7.10565V7.07951V7.05354V7.02776V7.00216V6.97675V6.95152V6.92648V6.90162V6.87695V6.85247V6.82819V6.80409V6.78019V6.75648V6.73297V6.70965V6.68653V6.66361V6.64089V6.61838V6.59606V6.57395V6.55204V6.53034V6.50884V6.48756V6.46648V6.44561V6.42495V6.40451V6.38428V6.36427V6.34447V6.32489V6.30553V6.28638V6.26746V6.24876V6.23029V6.21203V6.19401V6.17621V6.15864V6.14129V6.12418V6.1073V6.09065V6.07423V6.05805V6.0421V6.02639V6.01092V5.99569V5.9807V5.96595V5.95145V5.93719V5.92317V5.9094V5.89587V5.8826V5.86957V5.8568V5.84428V5.83201V5.81999V5.80824V5.79673V5.78549V5.7745V5.76378V5.75331V5.74311V5.73317V5.7235V5.71409V5.70495V5.69608V5.68748V5.67915V5.67109V5.6633V5.65579V5.64855V5.64159V5.6349V5.6285V5.62237V5.61653V5.61096V5.60568V5.60069V5.59598V5.59156V5.58742V5.58358V5.58002V5.57676V5.57379V5.57111V5.56873C6.25823 4.97462 6.74184 4.49102 7.33594 4.49102C7.93004 4.49102 8.41364 4.97462 8.41364 5.56873V14.0156C8.41364 14.4494 8.76541 14.8012 9.19922 14.8012C9.63303 14.8012 9.98479 14.4494 9.98479 14.0156V3.08435C9.98479 2.49025 10.4684 2.00665 11.0625 2.00665C11.6566 2.00665 12.1402 2.49025 12.1402 3.08435V14.0156C12.1402 14.4494 12.492 14.8012 12.9258 14.8012C13.3596 14.8012 13.7114 14.4494 13.7114 14.0156V5.56873C13.7114 4.97462 14.195 4.49102 14.7891 4.49102C15.3832 4.49102 15.8668 4.97462 15.8668 5.56873V14.0156C15.8668 14.4494 16.2185 14.8012 16.6523 14.8012C17.0862 14.8012 17.4379 14.4494 17.4379 14.0156V8.0531C17.4379 7.459 17.9215 6.9754 18.5156 6.9754C19.1097 6.9754 19.5933 7.459 19.5933 8.0531V22.7985C19.5933 24.1615 19.2063 25.4897 18.474 26.6397C17.7496 27.7775 17.2535 29.4236 17.1358 30.9933H15.0996C14.6658 30.9933 14.314 31.3451 14.314 31.7789C14.314 32.2127 14.6658 32.5645 15.0996 32.5645H17.8945C18.3283 32.5645 18.6801 32.2127 18.6801 31.7789V31.6975C18.6801 30.2021 19.1234 28.5452 19.7994 27.4836L19.6607 27.3952L19.7994 27.4835C20.6924 26.0811 21.1645 24.4609 21.1645 22.7985V8.0531C21.1645 6.59237 19.9764 5.40424 18.5156 5.40424ZM13.6834 20.1239L13.6834 20.1237L13.6835 20.1235C13.6849 20.1185 13.7139 20.0176 13.7764 19.8683C13.8411 19.7138 13.9404 19.5106 14.0801 19.309C14.3609 18.9038 14.7875 18.5277 15.4102 18.5277C16.3635 18.5277 17.109 19.3385 17.109 20.465C17.109 21.1301 16.8106 21.731 16.2275 22.4042C15.6418 23.0805 14.7874 23.809 13.7041 24.732L13.7041 24.732L13.6787 24.7536C13.4341 24.9621 13.1841 25.1751 12.9258 25.3975C12.6586 25.1674 12.4002 24.9473 12.1475 24.732C11.0641 23.809 10.2097 23.0805 9.62403 22.4042C9.04098 21.731 8.74261 21.1301 8.74261 20.465C8.74261 19.3385 9.48805 18.5277 10.4414 18.5277C11.058 18.5277 11.481 18.8926 11.7612 19.291C12.0409 19.6888 12.1605 20.097 12.1691 20.1271C12.2638 20.4665 12.5731 20.7016 12.9258 20.7016C13.2796 20.7016 13.5897 20.465 13.6834 20.1239Z" fill="#E3BC9B" stroke="#E3BC9B" stroke-width="0.328966"/>
</svg>
